<?xml version="1.0" encoding="utf-8"?>
<!-- Generator: Adobe Illustrator 25.0.0, SVG Export Plug-In . SVG Version: 6.00 Build 0)  -->
<svg version="1.1" id="Capa_1" xmlns="http://www.w3.org/2000/svg" xmlns:xlink="http://www.w3.org/1999/xlink" x="0px" y="0px"
	 viewBox="0 0 70.34 150" style="enable-background:new 0 0 70.34 150;" xml:space="preserve">
<style type="text/css">
	.st0{fill:#E9A967;}
	.st1{fill:#CA864A;}
	.st2{fill:#BA7435;}
	.st3{opacity:0.5;}
	.st4{fill:#353738;}
</style>
<g>
	<g>
		<path class="st0" d="M8.17,16.19c0,0-0.2-8.13,6.46-8.34c6.67-0.2,17.52,0.63,28.58,3.13c11.06,2.5,21.28,6.26,21.91,11.26
			c0.63,5-0.2,64.12-1.04,86.92c-0.83,19.46-0.56,20.28-7.23,20.59c-12.23,0.56-27.82-0.27-41.17-2.23
			c-8.63-1.11-10.56-3.06-11.4-15.02C3.44,100.54,6.5,30.31,8.17,16.19z"/>
		<g>
			<path class="st0" d="M65.12,22.23c-0.63-5-10.85-8.76-21.91-11.26c-1.91-0.43-3.79-0.8-5.67-1.14
				c7.09,2.88,13.39,7.5,13.49,14.87c0.22,16.96-1.77,46.04-2.64,64.55s-1.11,28.53-9.25,28.19c-11.01-0.44-15.86-1.77-22.25-0.44
				c-6.38,1.33-10.14-6.82-10.14-33.26c0-23.72,1.6-59.65,4.15-74.58c-2.88,2.35-2.76,7.04-2.76,7.04
				c-1.67,14.12-4.73,84.35-3.9,96.31s2.79,13.9,11.4,15.02c13.35,1.94,28.92,2.77,41.17,2.23c6.67-0.31,6.4-1.11,7.23-20.59
				C64.92,86.35,65.75,27.25,65.12,22.23z"/>
		</g>
		<g>
			<path class="st0" d="M9.85,54.83c-0.19-2.5-1.84-5.48-2.86-7.74c-0.15-0.32-0.68,0.09-0.56,0.37c0.85,2.19,1.53,4.42,2.26,6.67
				c1.21,3.76,0.1,7.93-0.56,11.69c-0.92,5.26-2.14,10.67-3.73,15.75c-0.17,0.54,0.7,0.34,0.83-0.03c2.02-5.36,3.01-11.52,4-17.17
				C9.8,61.05,10.09,58.18,9.85,54.83z"/>
			<path class="st0" d="M11.94,49.5c-1.26-5.31-3.67-10.51-4.58-15.87c-0.05-0.31-0.48-0.03-0.46,0.19c0.27,4.56,2.55,9,3.56,13.44
				c1.48,6.57,2.38,12.61,1.68,19.38c-0.6,5.75-1.97,11.38-3.23,17.01C7.57,89.6,4.9,95.06,4.34,101.19
				c-0.07,0.77,0.97,0.37,1.05-0.17c0.95-6.06,3.25-11.62,4.64-17.56c1.43-6.12,2.62-12.27,3.23-18.53
				C13.75,59.67,13.13,54.61,11.94,49.5z"/>
			<path class="st0" d="M24.55,52.56c-0.37-1.74-0.9-3.37-1.57-4.93c0.07-0.09,0.14-0.19,0.12-0.27
				c-0.36-6.23-1.36-12.52-2.62-18.63c-1.33-6.41-2.13-12.84-3.13-19.29c-0.05-0.29-0.48-0.05-0.44,0.17
				c0.39,2.88,0.29,5.72,0.9,8.57c0.66,3.15,1.19,6.33,1.68,9.51c0.95,6.06,1.82,12.11,2.67,18.19c-1.74-3.5-4.07-6.67-6.58-9.78
				c-0.1-0.12-0.26-0.12-0.39-0.05C13.32,29.26,10.94,22.6,9,15.83c-0.07-0.24-0.49,0.03-0.46,0.24c1.77,9.2,5.58,17.95,7.49,27.15
				c1.94,9.36,3.76,18.42,3.74,28.02c-0.02,4.59-0.41,8.64-1.53,13.12c-1.12,4.46-2.84,8.74-3.95,13.2
				c-1.99,8.01-2.6,17.17-1.97,25.4c0.05,0.58,0.87,0.07,0.87-0.34c-0.05-9.36,0.39-18.83,2.81-27.9c2.14-8.11,5.1-15.33,4.75-23.85
				c-0.41-9.61-1.92-18.54-3.86-27.97c-0.36-1.72-0.78-3.42-1.22-5.12c1.91,2.53,3.73,4.81,5.15,7.79
				c1.65,3.42,2.72,6.57,3.54,10.31c1.72,7.94,1.57,15.82,0.8,23.89c-0.63,6.69-1.05,13.32-1.19,20.04
				c-0.12,6.57-0.09,13.85-1.29,20.35c-0.09,0.44,0.51,0.19,0.6-0.1c0.83-2.82,0.56-6.18,0.83-9.12c0.31-3.33,0.58-6.62,0.6-9.95
				c0.02-8.18,0.92-16.23,1.48-24.36C26.74,68.32,26.28,60.68,24.55,52.56z"/>
			<path class="st0" d="M33.4,94.13c-0.29-1.36-1.53-9.63-3.64-9.54c-2.5,0.1-1.5,8.29-1.6,9.73c-0.53,8.08-2.25,15.86-2.11,23.99
				c0,0.34,0.53,0.05,0.53-0.2c0.12-5.9,0.61-11.67,1.75-17.47c0.43-2.13,0.41-4.42,0.53-6.6c0.07-1.46,0.1-2.91,0.1-4.39
				c0,0.87,0.09-5.61,1.41-2.96c2.23,4.46,2.74,10.02,3.59,14.89c1.02,5.82,1.85,11.62,3.44,17.32c0.12,0.44,0.85-0.1,0.77-0.49
				C36.3,110.32,35.1,102.19,33.4,94.13z"/>
			<path class="st0" d="M27.25,49.09c-1.14-5.24-2.53-10.41-3.16-15.74c-0.7-5.97-1.26-11.93-2.16-17.86
				c-0.03-0.26-0.41-0.03-0.39,0.15c1.22,10.38,1.8,20.64,4.17,30.84c2.77,11.99,4.83,24.09,5.21,36.41
				c0.02,0.54,0.82,0.07,0.83-0.32C31.88,71.24,29.65,60.12,27.25,49.09z"/>
			<path class="st0" d="M35.93,62.67c-1.17-6.92-3.45-13.68-5.63-20.4c0.12-0.1,0.19-0.24,0.17-0.39
				c-2.01-10.99-2.19-22.42-0.41-33.46c0.03-0.26-0.31-0.15-0.36,0.02c-1.46,4.32-1.43,9.08-1.45,13.59
				c-0.02,5.55,0,10.8,0.77,16.18c-0.09-0.26-0.17-0.51-0.24-0.77c-1.58-5.14-2.7-10.46-3.52-15.77c-0.66-4.41,0.31-9.1,0.05-13.52
				c-0.02-0.31-0.48-0.03-0.46,0.19c0.07,4-0.31,8.13-0.41,12.16c-0.1,4.37,1.36,9,2.35,13.22c2.19,9.41,6.06,18.37,7.88,27.85
				c3.45,18.08,0.95,36.64,4.15,54.71c0.1,0.6,0.95,0.09,0.9-0.36C37.9,98.21,38.91,80.26,35.93,62.67z"/>
			<path class="st0" d="M40.85,63.72c-0.78-8.34-2.31-16.38-4.29-24.5c-2.33-9.6-2.96-18.54-3.05-28.36c0-0.39-0.61-0.05-0.63,0.24
				c-0.14,8.81,0.14,16.98,2.06,25.62c2.04,9.15,3.93,18.07,4.85,27.42c0.88,9.12,0.58,18.31,0.58,27.46
				c0,8.71-1.16,18.25,0.71,26.79c0.12,0.58,0.95,0.09,0.9-0.36C39.89,100.08,42.55,81.74,40.85,63.72z"/>
			<path class="st0" d="M50.2,93.17c-0.07-8.73-0.58-17.61-1.67-26.27c-1.11-8.76-2.38-17.47-3.91-26.17
				c-0.92-5.21-1.65-10.14-1.26-15.45c0.32-4.46,0.77-8.9,1.34-13.32c0.05-0.36-0.44-0.17-0.49,0.09
				c-1.72,8.57-2.33,17.3-0.97,25.94c1.41,8.91,2.91,17.8,4.03,26.76c1.07,8.54,1.48,17.08,1.85,25.67
				c0.41,9.27-1.74,18.97-0.36,28.16c0.1,0.63,0.99,0.09,0.97-0.39C49.3,109.88,50.27,101.51,50.2,93.17z"/>
			<path class="st0" d="M46.43,100.22c-0.14-3.05-1.29-5.94-1.84-8.9c-0.46-2.48-0.75-5.09-1.58-7.47
				c-0.09-0.24-0.49,0.05-0.43,0.27c0.88,2.67,1.11,5.75,1.57,8.54c0.53,3.2,1.51,6.12,1.63,9.41c0.24,6.11-0.27,12.25,0,18.36
				c0.02,0.48,0.7,0.05,0.71-0.29C46.78,113.55,46.73,106.8,46.43,100.22z"/>
			<path class="st0" d="M54,94.01c-0.49-4.49-1.24-8.93-2.14-13.35c-0.87-4.27-0.87-8.69-1.38-13.03
				c-1.07-9.25-1.09-18.58-1.63-27.88c-0.53-9.1-0.58-18.08,0.27-27.15c0.03-0.37-0.48-0.19-0.49,0.09
				C47.65,20.8,47.41,28.8,47.81,37c0.46,9.25,0.43,18.65,1.38,27.87c0.48,4.53,0.83,9.03,1.22,13.56c0.37,4.29,1.62,8.59,2.18,12.9
				c0.61,4.61,1.07,9.24,1.05,13.88c-0.02,4.98-0.61,10.11-0.07,15.06c0.07,0.68,1.09,0.1,1.05-0.43
				C53.91,111.24,54.93,102.67,54,94.01z"/>
			<path class="st0" d="M62.11,93.99c-1.17-8.32-1.91-16.71-3.22-25.01c-1.28-8.13-1.75-16.35-3.61-24.38
				c-2.26-9.78-3.13-19.97-1.57-29.92c0.07-0.43-0.53-0.2-0.58,0.09c-1.57,8-1.29,16.37,0,24.4c0.73,4.49,2.14,8.85,2.72,13.37
				c0.58,4.54,0.77,9.12,1.51,13.64c1.38,8.42,2.18,16.91,3.2,25.38c1.04,8.66,1.75,16.79,1.21,25.54c-0.03,0.48,0.77,0.12,0.8-0.22
				C63.49,109.2,63.2,101.63,62.11,93.99z"/>
			<path class="st0" d="M62.1,55.61c-0.92-4.15-2.13-8.01-2.53-12.3c-0.85-8.91-1.99-17.35-1.04-26.34c0.05-0.41-0.51-0.2-0.56,0.09
				c-1.21,8.46-0.66,16.71,0.43,25.14c1.16,8.9,3.39,17.4,4.34,26.34c0.07,0.66,1.05,0.1,1.02-0.41
				C63.44,63.91,63.01,59.76,62.1,55.61z"/>
			<path class="st0" d="M65.17,38.63c-1.99-5.97-2.23-12.37-2.43-18.61c-0.02-0.43-0.65-0.05-0.65,0.26
				c-0.03,6.31-0.09,12.96,2.16,18.95C64.44,39.77,65.33,39.09,65.17,38.63z"/>
			<path class="st0" d="M60.58,97.03c-1.8-7.01-4.87-13.78-5.27-21.08c-0.17-3.01-0.7-5.85-0.63-8.91
				c0.09-3.69,0.97-7.21,0.92-10.92c0-0.37-0.56-0.05-0.56,0.22c-0.09,3.73-1.12,7.32-1.21,11.04c-0.09,3.52,0.43,6.84,0.6,10.33
				c0.29,6.55,2.94,13.85,5.24,19.92C59.87,98.19,60.7,97.49,60.58,97.03z"/>
			<path class="st0" d="M60.82,118.2c-0.17-3.66-0.48-7.32-0.6-10.97c-0.02-0.41-0.63-0.07-0.63,0.26c0.02,2.16,0.14,4.3,0.15,6.46
				c0.03,3.47,1.04,7.71-1,10.79c-0.37,0.56,0.34,0.73,0.66,0.31C61.02,122.98,60.94,120.72,60.82,118.2z"/>
		</g>
		<g>
			<path class="st1" d="M65.12,22.23c-0.37-2.98-4.13-5.51-9.44-7.6c3.08,2.81,5.46,6.67,5.05,11.91
				C58.8,51.56,58.23,78,56.57,95.79c-1.67,17.8-1.67,26.98-7.79,24.75c-6.12-2.23-27.82-1.96-35.88-0.83
				c-3.73,0.61-6.14,0.29-8-1.48c1.17,6.91,3.78,8.37,10.77,9.27c13.35,1.94,28.92,2.77,41.17,2.23c6.67-0.31,6.4-1.11,7.23-20.59
				C64.92,86.35,65.75,27.25,65.12,22.23z"/>
		</g>
	</g>
	<g>
		<path class="st2" d="M34.67,120.07c-18.03-0.54-24.8,2.31-27.3,4.34c1.68,1.85,4.27,2.57,8.34,3.1
			c13.35,1.94,28.92,2.77,41.17,2.23c3.28-0.15,4.88-0.43,5.77-2.99C60.56,124.02,52.33,121.62,34.67,120.07z"/>
	</g>
	<g class="st3">
		<path class="st2" d="M34.74,120.05c-13.98-0.43-19.22,1.79-21.16,3.37c1.29,1.45,3.3,1.99,6.45,2.4
			c10.34,1.51,22.42,2.16,31.92,1.74c2.55-0.12,3.79-0.34,4.47-2.33C54.81,123.11,48.43,121.26,34.74,120.05z"/>
	</g>
	<g class="st3">
		<path class="st2" d="M34.21,121.7c-8.01-0.24-11.02,1.02-12.15,1.94c0.75,0.83,1.89,1.14,3.69,1.38
			c5.94,0.87,12.86,1.24,18.31,0.99c1.46-0.07,2.18-0.19,2.57-1.33C45.73,123.45,42.07,122.4,34.21,121.7z"/>
	</g>
	<path class="st2" d="M49.08,12.55c-3.78-1.62-7.83-2.64-11.87-3.28c-2.42-0.39-4.85-0.66-7.26-1.04c-2.48-0.37-5.77-0.17-7.49-0.19
		c-0.19,0-0.49,0.41-0.24,0.43c2.42,0.15,3.06,0.1,4.61,0.24c3.76,0.31,4.95,0.56,7.45,0.9c5.05,0.71,10.63,1.94,15.46,3.56
		C50.1,13.28,49.52,12.74,49.08,12.55z"/>
	<g>
		<path class="st4" d="M37.65,15.97c0,1.92-1.57,3.47-3.47,3.47c-1.92,0-3.47-1.57-3.47-3.47c0-1.92,1.55-3.47,3.47-3.47
			C36.1,12.5,37.65,14.06,37.65,15.97z"/>
		<path class="st4" d="M36.82,41.28c0,1.92-1.57,3.47-3.47,3.47c-1.92,0-3.47-1.57-3.47-3.47c0-1.92,1.57-3.47,3.47-3.47
			C35.27,37.81,36.82,39.36,36.82,41.28z"/>
		<path class="st4" d="M36.82,71.53c0,1.92-1.57,3.47-3.47,3.47c-1.92,0-3.47-1.55-3.47-3.47c0-1.92,1.57-3.47,3.47-3.47
			C35.27,68.06,36.82,69.61,36.82,71.53z"/>
	</g>
	<path class="st0" d="M27.68,124.05c0,0,4.17-2.3,13.2,0c1.29,9.19,0.58,19.96,0.58,19.96s-5.89,2.59-12.91,0.14
		C27.25,132.23,27.68,124.05,27.68,124.05z"/>
	<path class="st0" d="M40.88,124.05c-9.03-2.3-13.2,0-13.2,0s-0.02,0.26-0.03,0.73c3.08-1.22,7.21-1.84,9.07,1.58
		c1.68,3.11,2.16,8.78,0.43,11.96c-2.02,3.69-5.36,4.39-8.81,3.73c0.07,0.68,0.14,1.38,0.2,2.09c7.03,2.43,12.91-0.14,12.91-0.14
		S42.17,133.24,40.88,124.05z"/>
	<path class="st1" d="M40.88,124.05c-1.22-0.31-2.36-0.53-3.42-0.7c1.11,0.9,1.97,2.13,2.42,3.69c0.68,2.36,0.56,4.88,0.68,7.33
		c0.12,2.28,0.19,4.59-0.53,6.79c-0.75,2.3-2.67,3.52-5.04,4.01c3.83-0.05,6.45-1.19,6.45-1.19S42.17,133.24,40.88,124.05z"/>
	<g>
		<path class="st0" d="M30.03,140.64c-1.48-5.31-1.8-10.72-1.12-16.23c0.03-0.31-0.36-0.15-0.39,0.07c-0.82,5.48-0.78,11.26,1,16.52
			C29.64,141.32,30.1,140.93,30.03,140.64z"/>
		<path class="st0" d="M31.81,144.36c-1.43-6.28-1.84-12.16-1.31-18.61c0.02-0.26-0.31-0.14-0.32,0.05
			c-0.66,6.28-0.78,12.84,1.14,18.9C31.42,145.04,31.86,144.64,31.81,144.36z"/>
		<path class="st0" d="M33.85,134.7c-0.24-3.78-0.32-7.55-0.49-11.33c-0.02-0.24-0.32-0.03-0.34,0.15
			c-0.2,7.06,0.73,14.07,0.49,21.13c-0.02,0.31,0.44,0.09,0.46-0.14C34.28,141.27,34.08,137.95,33.85,134.7z"/>
		<path class="st0" d="M36.22,123.9c0-0.24-0.32-0.03-0.32,0.14c-0.12,4.88-0.14,9.39-1.57,14.1c-0.1,0.34,0.29,0.27,0.39,0.05
			C36.56,133.65,36.34,128.75,36.22,123.9z"/>
		<path class="st0" d="M41.56,142.63c-0.97-3.33-1.99-6.72-2.33-10.21c-0.14-1.45-0.36-2.91-0.56-4.36
			c-0.2-1.45-0.12-2.96-0.39-4.39c-0.03-0.2-0.29-0.03-0.29,0.12c0.26,6.38,0.73,13.22,3.11,19.16
			C41.22,143.24,41.63,142.88,41.56,142.63z"/>
		<path class="st0" d="M37.56,134.72c-0.2-3.47-0.15-6.96-0.12-10.43c0-0.2-0.29-0.03-0.31,0.14c-0.26,6.7-0.05,13.27,0.92,19.9
			c0.05,0.29,0.41,0.03,0.39-0.17C38.41,141.03,37.75,137.85,37.56,134.72z"/>
	</g>
</g>
</svg>
