<?xml version="1.0" encoding="utf-8"?>
<!-- Generator: Adobe Illustrator 25.0.0, SVG Export Plug-In . SVG Version: 6.00 Build 0)  -->
<svg version="1.1" id="Layer_1" xmlns="http://www.w3.org/2000/svg" xmlns:xlink="http://www.w3.org/1999/xlink" x="0px" y="0px"
	 viewBox="0 0 65.78 225.33" style="enable-background:new 0 0 65.78 225.33;" xml:space="preserve">
<style type="text/css">
	.st0{fill-rule:evenodd;clip-rule:evenodd;fill:#C7BAAA;}
	.st1{fill-rule:evenodd;clip-rule:evenodd;fill:#AE9F91;}
	.st2{fill-rule:evenodd;clip-rule:evenodd;fill:#A39589;}
	.st3{fill-rule:evenodd;clip-rule:evenodd;fill:#D9CDC0;}
</style>
<path class="st0" d="M35.56,90.96c0,0,2.32-7.27,3.48-8.03c0,0,1.03-4.36,2.38-5.61c0,0-0.06-3.39,2.25-4.71c0,0,1.29-3.74,2.7-4.64
	c1.41-0.9,5.08,2.36,5.85,3.81C52.99,73.3,50.49,76,50.49,76s-0.58,2.7-2.32,4.29c0,0-0.19,2.49-2.31,4.09c0,0-0.2,2.7-1.48,4.08
	c0,0,0.13,2.56-2.57,5.26c0,0-0.32,4.99-3.73,6.99C34.66,102.8,35.56,90.96,35.56,90.96L35.56,90.96z"/>
<path class="st1" d="M35.56,90.96c0,0,2.32-7.27,3.48-8.03c0,0,1.03-4.36,2.38-5.61c0,0-0.06-3.39,2.25-4.71c0,0,1.29-3.74,2.7-4.64
	c0.9-0.62,2.83,0.55,4.25,1.87l0,0c0,0-2.77-1.52-3.8-0.14c-1.03,1.45-1.67,2.42-0.9,5.75c0,0-0.97-0.9-1.35-1.59
	c0,0-2.83,0.9-1.48,5.68c0,0-0.64-0.62-0.96-1.18c0,0-2.25,2.42-1.93,7.34c0,0-0.51-1.25-0.77-1.25c-0.26-0.07-1.16,5.89,1.87,11.91
	c0,0-0.26,2.42-3.99,4.02c-0.32,0.14-0.51,0.28-0.71,0.35c-0.39,0.14-0.71,0.28-0.9,0.48C35.24,98.3,35.56,90.96,35.56,90.96
	L35.56,90.96z"/>
<path class="st0" d="M34.27,33.07c0,0,2.7-0.63,3.41,0.76c0.77,1.45,0.13,2.29,0.13,2.29s0.71,1.73,0,9.21
	c-0.71,7.55-0.45,29.36-0.13,33.93c0.39,4.57-0.06,8.66-0.06,8.66s2.38,7.27,1.29,15.16l1.41,34.97c0,0,0.77,1.66-0.39,2.63
	c0,0,2.77,1.52,3.15,4.71c0,0,2.38,1.8,2.96,5.06c0,0,7.21,6.86,10.61,16.34c0,0,4.5,4.43,6.43,15.3c0,0,2.83,10.8-2.9,22.37
	c0,0-5.92,11.42-14.02,14.12c0,0-5.98,2.91-13.32,2.91c-7.27,0-13.25-2.91-13.25-2.91c-8.11-2.7-14.02-14.12-14.02-14.12
	c-5.73-11.56-2.9-22.37-2.9-22.37c1.93-10.87,6.43-15.3,6.43-15.3c3.41-9.48,10.62-16.34,10.62-16.34c0.51-3.25,2.96-5.06,2.96-5.06
	c0.32-3.18,3.15-4.71,3.15-4.71c-1.22-0.97-0.45-2.63-0.45-2.63l2.57-34.83c-1.09-7.89,0.52-10.94,0.52-10.94s-0.77-8.45-0.45-13.02
	c0.39-4.57,0.64-26.39-0.06-33.93c-0.71-7.48,0-9.21,0-9.21s-0.64-0.83,0.13-2.29c0.71-1.39,3.41-0.76,3.41-0.76
	C32.21,32.31,33.57,32.31,34.27,33.07L34.27,33.07z M32.86,211.04c0,0,0.58-0.35,3.02,0c0,0,1.35-1.18,4.57-0.97
	c0,0,3.09-2.42,5.73-2.98c0,0,2.57-1.73,4.37-4.29c1.8-2.49,3.15-9.35,4.18-10.73c0,0-1.35-7.96-0.26-10.11c0,0-3.09-4.99-3.41-9.42
	c0,0-2.64-2.49-3.41-5.68c0,0-2.83-2.35-3.73-5.06c0,0-2.7-2.56-4.5-6.58c0,0-3.47-2.91-4.38-5.75c0,0-1.8-1.25-2.19-2.08
	c-0.39,0.83-2.19,2.08-2.19,2.08c-0.84,2.84-4.31,5.75-4.31,5.75c-1.8,4.02-4.5,6.58-4.5,6.58c-0.97,2.7-3.73,5.06-3.73,5.06
	c-0.77,3.18-3.41,5.68-3.41,5.68c-0.39,4.43-3.41,9.42-3.41,9.42c1.09,2.15-0.26,10.11-0.26,10.11c1.03,1.39,2.38,8.24,4.18,10.73
	c1.74,2.56,4.37,4.29,4.37,4.29c2.64,0.55,5.73,2.98,5.73,2.98c3.22-0.21,4.57,0.97,4.57,0.97
	C32.34,210.69,32.86,211.04,32.86,211.04L32.86,211.04z"/>
<path class="st2" d="M40.58,138.95c0.06,0.55-0.06,1.25-0.64,1.73c0,0,0.26,0.14,0.58,0.42c0,0-4.76,3.05-2.83,7.62
	c0,0,1.87-1.11,3.02-1.04c0,0-2.57,0.9-2.06,3.46c0.58,2.63,5.15,3.26,5.15,3.26s-0.97,0.55-2.57,0.48c0,0,0.51,4.64,7.66,6.09
	c0,0-1.8,0.69-3.6,0.55c0,0,1.48,4.85,9.59,6.99c0,0-2.38-0.21-5.92-1.31c0,0,1.67,5.06,8.94,7.34c0,0-4.5-0.62-5.6-0.97
	c0,0,1.42,5.12,4.18,8.17c2.7,3.12,2.96,5.13,2.96,5.13s-2.25-3.46-3.73-3.95c0,0-0.71,4.29,2.06,12.6c0,0-0.84-0.9-1.93-2.15
	c0,0-1.48,2.84-1.48,6.65c0,3.88-0.96,6.99-0.96,6.99s0.19-3.74-0.58-4.85c0,0-1.29,3.39-3.34,4.71c-2.12,1.31-3.28,4.85-3.28,4.85
	s0.06-1.25,0-2.91c0,0-4.63,1.38-9.2,6.99c0,0,0.64-2.7,2.25-3.95c0,0-4.05,0.14-6.76,3.67c0,0,0.39-1.8,1.54-2.77
	c0,0-2.45-0.83-5.6,1.25c0,0,0.97-1.25,1.22-1.73c0.26-0.48-3.02-2.08-5.53-0.76c0,0,0.32-0.69,1.29-1.45
	c3.15-0.21,4.5,0.97,4.5,0.97c2.44-0.35,2.96,0,2.96,0s0.58-0.35,3.02,0c0,0,1.35-1.18,4.57-0.97c0,0,3.09-2.42,5.73-2.98
	c0,0,2.57-1.73,4.37-4.29c1.8-2.49,3.15-9.35,4.18-10.73c0,0-1.35-7.96-0.26-10.11c0,0-3.09-4.99-3.41-9.42c0,0-2.64-2.49-3.41-5.68
	c0,0-2.83-2.35-3.73-5.06c0,0-2.7-2.56-4.5-6.58c0,0-3.47-2.91-4.38-5.75c0,0-1.8-1.25-2.19-2.08c-0.39,0.83-2.19,2.08-2.19,2.08
	c-0.84,2.84-4.31,5.75-4.31,5.75s3.15-4.09,3.28-6.65c0,0,2.19-1.11,2.19-3.88c0-2.7-1.29-4.09-1.29-4.09L40.58,138.95z"/>
<path class="st2" d="M39.16,100.24c-0.06,0.9-0.13,1.87-0.26,2.84l0.19,4.22l-6.31-1.31l7.46,29.29l0.06,2.77
	c0,0,0.77,1.66-0.39,2.63c0,0,0.26,0.14,0.58,0.42c0,0-3.67-0.07-5.15,1.66c0,0-0.26-0.97-0.19-1.52c0,0-7.53-0.76-9.07,2.35
	c-1.54,3.19-0.26,5.75-0.26,5.75s-2.19-0.9-2.38-2.7c0,0-2.96,2.63-2.77,6.3c0,0-0.51-0.55-0.64-1.31c0,0-9.2,8.52-9.71,19.87
	c0,0-0.9-1.87-0.97-3.25c0,0-2.9,5.26-2.12,10.32c0,0-0.97-2.29-1.22-3.67c-0.26-1.32-2.25,3.74-0.64,6.78c0,0-1.16-1.11-1.42-2.08
	c0,0-2.12,4.78,2.06,8.38c0,0-2.19-0.49-3.09-1.8c0,0-0.32,4.5,3.28,6.58c0,0-1.67-0.28-2.51-0.76c-0.77-0.48,0.39,4.5,3.99,6.03
	c0,0-1.61-0.21-2.77-0.83c-1.22-0.62,0.19,4.23,3.47,4.99c0,0-1.09,0.55-1.87,0.41c-0.77-0.07,0.52,4.43,5.92,4.85
	c0,0-2.57,0.28-2.38,1.52c0.13,1.31,2.51,3.39,5.73,2.63c0,0-2.38,0.62-1.87,1.66c0.52,1.11,4.7,1.32,7.21,0.56
	c0,0-4.05,0.9-3.73,2.08c0.26,1.18,4.25,1.94,7.21,0.49c0,0-1.54,0.69-1.42,1.87c0.06,1.25,11.32,5.06,28.05-2.56
	c-1.55,1.25-3.28,2.29-5.08,2.91c0,0-5.98,2.91-13.32,2.91c-7.27,0-13.25-2.91-13.25-2.91c-8.11-2.7-14.02-14.12-14.02-14.12
	c-5.73-11.56-2.9-22.37-2.9-22.37c1.93-10.87,6.43-15.3,6.43-15.3c3.41-9.48,10.62-16.34,10.62-16.34c0.51-3.25,2.96-5.06,2.96-5.06
	c0.32-3.18,3.15-4.71,3.15-4.71c-1.22-0.97-0.45-2.63-0.45-2.63l2.57-34.83c-1.09-7.89,0.52-10.94,0.52-10.94s-0.77-8.45-0.45-13.02
	c0.39-4.57,0.64-26.39-0.06-33.93c-0.71-7.48,0-9.21,0-9.21s-0.64-0.83,0.13-2.29c0.71-1.39,3.41-0.76,3.41-0.76
	c0.71-0.76,2.06-0.76,2.77,0c0,0-1.87-0.76-2.25,0.42c-0.45,1.11,1.09,1.87,1.09,1.87s-1.22,0-2.32-0.9
	c-1.16-0.9-2.51,0.35-0.9,1.87c1.54,1.52,2.44,2.42,3.41,4.23c0,0-2.64-2.49-4.12-2.63c-1.48-0.14,3.15,5.12,4.25,6.72
	c0,0-2.96-2.08-4.12-2.56c-1.16-0.55,0.64,4.29,2.38,6.58c1.74,2.28,2.12,4.64,2.12,4.64s-2.57-4.22-3.73-4.64
	c-1.22-0.42-1.48,7.06,0.64,8.86c2.12,1.87,3.22,5.33,3.22,5.33s-3.02-3.88-4.05-4.29c-1.03-0.42,0.84,5.95,0.51,8.65
	c-0.32,2.63,3.93,6.51,3.93,6.51s-3.28-1.38-4.63-3.39c0,0-1.16,4.09-0.06,7.34c1.09,3.18,4.57,5.82,4.57,5.82s-3.09-1.18-4.57-3.67
	c0,0-1.09,5.4-0.45,7.82c0.71,2.35,4.7,3.18,4.7,3.18s-2.77,1.04-4.25-0.9c-1.48-1.94,2.32,7.76,4.05,9.42c0,0-3.15-3.67-3.86-4.92
	c-0.64-1.18-1.29,4.09-0.39,5.26C30.35,100.93,35.88,102.18,39.16,100.24L39.16,100.24z"/>
<path class="st0" d="M26.55,112.08c-1.99,1.11-2.89-1.04-2.38-3.12c0,0-1.35-2.35-0.58-3.88c0.77-1.52,2.25-1.11,2.25-1.11
	s1.48-1.87,3.35-0.42c0,0,1.74-1.8,3.67-0.28c0,0,1.03-1.11,2.83-0.14c0,0,1.67-0.76,3.48,0.42c0,0,2.19-0.83,2.89,2.35
	c0.71,3.18-0.64,8.24-3.99,6.51c0,0-2.06,0.9-3.34-0.35c0,0-1.99,0.83-3.54-0.21C31.18,111.87,28.1,114.09,26.55,112.08
	L26.55,112.08z"/>
<path class="st2" d="M26.55,112.08c-1.99,1.11-2.89-1.04-2.38-3.12c0,0-1.35-2.35-0.58-3.88c0.77-1.52,2.25-1.11,2.25-1.11
	c-2.12,2.42-0.9,4.09-0.9,4.09c0.77-0.9,1.16-0.9,1.16-0.9s-1.41,2.91-0.19,3.26c1.22,0.35,2.12-2.77,2.12-2.77
	c-0.13,2.01-0.58,2.91-0.58,2.91c2.64,2.42,4.57-2.63,4.57-2.63c0.13,1.8-0.26,2.7-0.26,2.7c2.77,0.97,5.34-2.08,5.34-2.08
	c-0.39,1.8-1.54,2.7-1.54,2.7c1.42,0.62,3.02-0.21,3.02-0.21c0.13,1.31,1.29,1.66,1.35,1.66c-0.51,0.14-1.16,0.14-1.87-0.28
	c0,0-2.06,0.9-3.34-0.35c0,0-1.99,0.83-3.54-0.21C31.18,111.87,28.1,114.09,26.55,112.08L26.55,112.08z"/>
<path class="st0" d="M26.29,120.53c-2.12,0.9-2.83-1.32-2.19-3.33c0,0-1.16-2.42-0.26-3.95c0.9-1.45,2.25-0.9,2.25-0.9
	s1.67-1.73,3.41-0.14c0,0,1.87-1.59,3.67,0.07c0,0,1.16-1.04,2.83,0.07c0,0,1.74-0.62,3.41,0.69c0,0,2.25-0.63,2.77,2.63
	c0.51,3.18-1.29,8.1-4.44,6.16c0,0-2.19,0.69-3.34-0.62c0,0-2,0.62-3.47-0.55C30.93,120.67,27.71,122.68,26.29,120.53L26.29,120.53z
	"/>
<path class="st2" d="M26.29,120.53c-2.12,0.9-2.83-1.32-2.19-3.33c0,0-1.16-2.42-0.26-3.95c0.9-1.45,2.25-0.9,2.25-0.9
	c-2.25,2.29-1.16,4.02-1.16,4.02c0.84-0.83,1.22-0.83,1.22-0.83s-1.61,2.84-0.39,3.25c1.16,0.48,2.32-2.63,2.32-2.63
	c-0.26,2.01-0.84,2.91-0.84,2.91c2.44,2.63,4.76-2.22,4.76-2.22c0,1.8-0.45,2.63-0.45,2.63c2.7,1.18,5.47-1.59,5.47-1.59
	c-0.51,1.73-1.67,2.49-1.67,2.49c1.29,0.83,2.96,0.07,2.96,0.07c0.06,1.31,1.22,1.73,1.29,1.8c-0.58,0.14-1.22,0-1.87-0.41
	c0,0-2.19,0.69-3.34-0.62c0,0-2,0.62-3.47-0.55C30.93,120.67,27.71,122.68,26.29,120.53L26.29,120.53z"/>
<path class="st0" d="M26.29,129.46c-2.12,0.97-2.83-1.25-2.19-3.32c0,0-1.16-2.42-0.26-3.88c0.9-1.45,2.25-0.97,2.25-0.97
	s1.67-1.73,3.41-0.14c0,0,1.87-1.59,3.67,0.07c0,0,1.16-1.04,2.83,0.14c0,0,1.74-0.62,3.41,0.69c0,0,2.25-0.62,2.77,2.56
	c0.51,3.25-1.29,8.17-4.44,6.16c0,0-2.19,0.76-3.34-0.62c0,0-2,0.62-3.47-0.48C30.93,129.67,27.71,131.61,26.29,129.46L26.29,129.46
	z"/>
<path class="st2" d="M26.29,129.46c-2.12,0.97-2.83-1.25-2.19-3.32c0,0-1.16-2.42-0.26-3.88c0.9-1.45,2.25-0.97,2.25-0.97
	c-2.25,2.29-1.16,4.02-1.16,4.02c0.84-0.83,1.22-0.76,1.22-0.76s-1.61,2.77-0.39,3.25c1.16,0.42,2.32-2.63,2.32-2.63
	c-0.26,2.01-0.84,2.84-0.84,2.84c2.44,2.7,4.76-2.21,4.76-2.21c0,1.8-0.45,2.63-0.45,2.63c2.7,1.25,5.47-1.59,5.47-1.59
	c-0.51,1.8-1.67,2.56-1.67,2.56c1.29,0.76,2.96,0,2.96,0c0.06,1.38,1.22,1.8,1.29,1.8c-0.58,0.14-1.22,0-1.87-0.42
	c0,0-2.19,0.76-3.34-0.62c0,0-2,0.62-3.47-0.48C30.93,129.67,27.71,131.61,26.29,129.46L26.29,129.46z"/>
<path class="st0" d="M26.29,138.4c-2.12,0.97-2.83-1.25-2.19-3.25c0,0-1.16-2.49-0.26-3.95c0.9-1.45,2.25-0.9,2.25-0.9
	s1.67-1.73,3.41-0.14c0,0,1.87-1.66,3.67,0c0,0,1.16-0.97,2.83,0.14c0,0,1.74-0.62,3.41,0.69c0,0,2.25-0.62,2.77,2.63
	c0.51,3.18-1.29,8.1-4.44,6.16c0,0-2.19,0.69-3.34-0.69c0,0-2,0.69-3.47-0.48C30.93,138.61,27.71,140.61,26.29,138.4L26.29,138.4z"
	/>
<path class="st2" d="M26.29,138.4c-2.12,0.97-2.83-1.25-2.19-3.25c0,0-1.16-2.49-0.26-3.95c0.9-1.45,2.25-0.9,2.25-0.9
	c-2.25,2.22-1.16,4.02-1.16,4.02c0.84-0.83,1.22-0.83,1.22-0.83s-1.61,2.84-0.39,3.25c1.16,0.48,2.32-2.63,2.32-2.63
	c-0.26,2.01-0.84,2.91-0.84,2.91c2.44,2.63,4.76-2.22,4.76-2.22c0,1.8-0.45,2.63-0.45,2.63c2.7,1.18,5.47-1.59,5.47-1.59
	c-0.51,1.73-1.67,2.49-1.67,2.49c1.29,0.83,2.96,0.07,2.96,0.07c0.06,1.32,1.22,1.73,1.29,1.8c-0.58,0.07-1.22,0-1.87-0.42
	c0,0-2.19,0.69-3.34-0.69c0,0-2,0.69-3.47-0.48C30.93,138.61,27.71,140.61,26.29,138.4L26.29,138.4z"/>
<path class="st3" d="M39.16,99.34c0.13-6.3-1.54-11.42-1.54-11.42s0.13-1.18,0.19-3.05c0.06-1.52,0.06-3.53-0.13-5.61
	c-0.32-4.57-0.58-26.39,0.13-33.93c0.71-7.48,0-9.21,0-9.21s0.64-0.83-0.13-2.29c-0.51-0.97-1.93-0.97-2.77-0.83
	c0.58,0.07,1.16,0.28,1.42,0.83c0.77,1.45,0.13,2.29,0.13,2.29s0.71,1.73,0,9.21c-0.77,7.55-0.45,29.36-0.13,33.93
	c0.39,4.57-0.06,8.66-0.06,8.66s0.06,0.21,0.13,0.48c0.45,1.52,1.61,6.23,1.41,11.77c0,0.21-0.06,0.41-0.06,0.69
	c0.13-0.07,0.26-0.07,0.32-0.14c0.39-0.14,0.77-0.28,1.09-0.48c0-0.14,0-0.21,0-0.35C39.16,99.69,39.16,99.48,39.16,99.34
	L39.16,99.34z"/>
<path class="st3" d="M61.74,182.09c0,0,2.83,10.8-2.89,22.37c0,0-4.44,8.59-10.87,12.6c1.03-0.42,2.12-0.83,3.28-1.39
	c5.34-4.29,8.94-11.22,8.94-11.22c5.73-11.56,2.9-22.37,2.9-22.37c-1.93-10.87-6.43-15.3-6.43-15.3
	c-3.41-9.48-10.61-16.34-10.61-16.34c-0.58-3.25-2.96-5.06-2.96-5.06c-0.26-2.29-1.74-3.67-2.57-4.29c0,0-0.26,0.21-0.71,0.55
	c0.77,0.76,1.74,2.01,1.93,3.74c0,0,2.38,1.8,2.96,5.06c0,0,7.21,6.86,10.62,16.34C55.31,166.79,59.81,171.22,61.74,182.09
	L61.74,182.09z"/>
<path class="st3" d="M11.3,181.95c0,0,3.02-4.99,3.41-9.42c0,0,2.64-2.49,3.41-5.68c0,0,2.77-2.35,3.73-5.06c0,0,2.7-2.56,4.5-6.58
	c0,0,2.57-3.39,3.15-5.89c-0.13,0.07-0.19,0.14-0.19,0.14c-0.84,2.84-4.31,5.75-4.31,5.75c-1.8,4.02-4.5,6.58-4.5,6.58
	c-0.97,2.7-3.8,5.06-3.8,5.06c-0.71,3.18-3.35,5.68-3.35,5.68c-0.39,4.43-3.41,9.42-3.41,9.42c1.09,2.15-0.26,10.11-0.26,10.11
	c1.03,1.39,2.38,8.24,4.18,10.73c1.74,2.56,4.38,4.29,4.38,4.29c2.64,0.55,5.73,2.98,5.73,2.98c0.45,0,0.9,0,1.29,0
	c-0.32-0.28-3.22-2.42-5.66-2.98c0,0-2.64-1.73-4.37-4.29c-1.8-2.49-3.15-9.35-4.18-10.73C11.05,192.06,12.4,184.1,11.3,181.95
	L11.3,181.95z"/>
<path class="st3" d="M49.84,75.17c0,0-0.58,2.7-2.32,4.29c0,0-0.19,2.49-2.32,4.08c0,0-0.19,2.7-1.41,4.09c0,0,0.07,2.56-2.64,5.26
	c0,0-0.06,1.04-0.45,2.28c0.19,0.42,0.39,0.83,0.58,1.18c0.45-1.45,0.51-2.63,0.51-2.63c2.7-2.7,2.57-5.26,2.57-5.26
	c1.29-1.38,1.48-4.08,1.48-4.08c2.12-1.59,2.31-4.09,2.31-4.09c1.74-1.59,2.32-4.29,2.32-4.29s2.51-2.7,1.74-4.22
	c-0.13-0.28-0.45-0.69-0.77-1.04c0.06,0.07,0.13,0.14,0.13,0.28C52.35,72.47,49.84,75.17,49.84,75.17L49.84,75.17z"/>
<path class="st3" d="M35.75,121.92c0,0,1.74-0.62,3.41,0.69c0,0,2.25-0.62,2.77,2.56c0.19,1.45,0,3.19-0.58,4.5
	c0.77-1.38,1.09-3.39,0.84-5.06c-0.51-3.18-2.77-2.56-2.77-2.56c-1.67-1.31-3.41-0.69-3.41-0.69c-1.67-1.18-2.83-0.14-2.83-0.14
	c-1.8-1.66-3.67-0.07-3.67-0.07c-1.74-1.59-3.41,0.14-3.41,0.14s-1.35-0.48-2.25,0.97c-0.13,0.14-0.19,0.28-0.26,0.42
	c0.9-1.31,2.25-0.83,2.25-0.83s1.67-1.73,3.35-0.07c0,0,1.93-1.66,3.73,0C32.92,121.78,34.02,120.74,35.75,121.92L35.75,121.92z"/>
<path class="st3" d="M39.42,130.99c-1.67-1.32-3.41-0.69-3.41-0.69c-1.67-1.11-2.83-0.14-2.83-0.14c-1.8-1.66-3.67,0-3.67,0
	c-1.74-1.59-3.41,0.14-3.41,0.14s-1.35-0.55-2.25,0.9c-0.13,0.14-0.19,0.35-0.19,0.48c0.9-1.32,2.19-0.83,2.19-0.83
	s1.67-1.73,3.35-0.14c0,0,1.93-1.59,3.73,0.07c0,0,1.1-1.04,2.83,0.07c0,0,1.74-0.63,3.41,0.69c0,0,2.25-0.62,2.77,2.63
	c0.19,1.38,0,3.12-0.58,4.5c0.77-1.39,1.09-3.46,0.84-5.06C41.67,130.36,39.42,130.99,39.42,130.99L39.42,130.99z"/>
<path class="st3" d="M38.84,104.12c0,0,2.25-0.76,2.96,2.35c0.32,1.52,0.19,3.53-0.45,4.92c0.9-1.46,1.09-3.74,0.71-5.47
	c-0.71-3.19-2.89-2.35-2.89-2.35c-1.8-1.18-3.48-0.42-3.48-0.42c-1.8-0.97-2.83,0.14-2.83,0.14c-1.93-1.52-3.67,0.28-3.67,0.28
	c-1.87-1.46-3.35,0.42-3.35,0.42s-1.48-0.42-2.25,1.11c-0.06,0.14-0.06,0.21-0.13,0.28c0.84-1.18,2.06-0.83,2.06-0.83
	s1.54-1.87,3.35-0.42c0,0,1.8-1.8,3.67-0.28c0,0,1.09-1.11,2.89-0.14C35.43,103.7,37.1,102.94,38.84,104.12L38.84,104.12z"/>
<path class="st3" d="M33.18,112.29c-1.8-1.66-3.67-0.07-3.67-0.07c-1.74-1.59-3.41,0.14-3.41,0.14s-1.35-0.55-2.25,0.9
	c-0.13,0.14-0.19,0.35-0.26,0.48c0.9-1.32,2.25-0.83,2.25-0.83s1.67-1.73,3.35-0.14c0,0,1.93-1.59,3.73,0.07c0,0,1.1-1.04,2.83,0.14
	c0,0,1.74-0.62,3.41,0.62c0,0,2.25-0.55,2.77,2.63c0.19,1.38,0,3.18-0.58,4.5c0.77-1.39,1.09-3.46,0.84-5.05
	c-0.51-3.26-2.77-2.63-2.77-2.63c-1.67-1.32-3.41-0.69-3.41-0.69C34.34,111.25,33.18,112.29,33.18,112.29L33.18,112.29z"/>
<path class="st0" d="M41.09,30c-1.03,2.7,0.96,3.88,2.89,3.18c0,0,2.19,1.8,3.6,0.76c1.42-1.04,1.03-2.98,1.03-2.98
	s1.74-2.01,0.39-4.43c0,0,1.67-2.35,0.26-4.85c0,0,1.03-1.45,0.13-3.81c0,0,0.71-2.29-0.39-4.57c0,0,0.77-2.98-2.19-3.95
	c-2.96-0.97-7.66,0.97-6.05,5.33c0,0-0.84,2.77,0.32,4.43c0,0-0.77,2.63,0.19,4.71C41.29,23.83,39.23,27.92,41.09,30L41.09,30z"/>
<path class="st2" d="M41.09,30c-1.03,2.7,0.96,3.88,2.89,3.18c0,0,2.19,1.8,3.6,0.76c1.42-1.04,1.03-2.98,1.03-2.98
	c-2.25,2.84-3.8,1.25-3.8,1.25c0.83-1.04,0.83-1.52,0.83-1.52s-2.7,1.8-3.02,0.14c-0.32-1.59,2.57-2.77,2.57-2.77
	c-1.86,0.14-2.7,0.76-2.7,0.76c-2.25-3.53,2.44-6.09,2.44-6.09c-1.67-0.14-2.51,0.35-2.51,0.35c-0.9-3.67,1.93-7.06,1.93-7.06
	c-1.67,0.49-2.51,2.01-2.51,2.01c-0.58-1.87,0.19-3.95,0.19-3.95c-1.22-0.28-1.54-1.8-1.54-1.87c-0.13,0.69-0.06,1.52,0.26,2.49
	c0,0-0.84,2.77,0.32,4.43c0,0-0.77,2.63,0.19,4.71C41.29,23.83,39.23,27.92,41.09,30L41.09,30z"/>
<path class="st0" d="M33.31,30.34c-0.9,2.84,1.16,3.81,3.03,2.91c0,0,2.31,1.59,3.67,0.42c1.35-1.25,0.84-3.12,0.84-3.12
	s1.61-2.15,0.13-4.43c0,0,1.54-2.56,0-4.92c0,0,0.9-1.52-0.13-3.81c0,0,0.58-2.29-0.64-4.5c0,0,0.58-3.05-2.44-3.67
	c-2.96-0.63-7.53,1.73-5.73,5.95c0,0-0.64,2.84,0.64,4.36c0,0-0.64,2.7,0.45,4.64C33.11,24.18,31.25,28.47,33.31,30.34L33.31,30.34z
	"/>
<path class="st2" d="M33.31,30.34c-0.9,2.84,1.16,3.81,3.03,2.91c0,0,2.31,1.59,3.67,0.42c1.35-1.25,0.84-3.12,0.84-3.12
	c-2.06,3.05-3.73,1.59-3.73,1.59c0.77-1.11,0.77-1.59,0.77-1.59s-2.64,2.08-3.02,0.48c-0.45-1.59,2.44-3.05,2.44-3.05
	c-1.87,0.35-2.7,1.11-2.7,1.11c-2.44-3.32,2.06-6.37,2.06-6.37c-1.67,0-2.44,0.62-2.44,0.62c-1.09-3.6,1.48-7.27,1.48-7.27
	c-1.61,0.69-2.32,2.28-2.32,2.28c-0.77-1.8-0.06-4.01-0.06-4.01c-1.22-0.07-1.61-1.59-1.67-1.66c-0.06,0.76,0,1.52,0.39,2.49
	c0,0-0.64,2.84,0.64,4.36c0,0-0.64,2.7,0.45,4.64C33.11,24.18,31.25,28.47,33.31,30.34L33.31,30.34z"/>
<path class="st0" d="M24.94,30.34c-0.84,2.84,1.16,3.81,3.09,2.91c0,0,2.25,1.59,3.6,0.42c1.35-1.25,0.9-3.12,0.9-3.12
	s1.61-2.15,0.13-4.43c0,0,1.48-2.56-0.06-4.92c0,0,0.97-1.52-0.13-3.81c0,0,0.58-2.29-0.64-4.5c0,0,0.58-3.05-2.38-3.67
	c-3.02-0.63-7.59,1.73-5.73,5.95c0,0-0.71,2.84,0.58,4.36c0,0-0.58,2.7,0.45,4.64C24.75,24.18,22.95,28.47,24.94,30.34L24.94,30.34z
	"/>
<path class="st2" d="M24.94,30.34c-0.84,2.84,1.16,3.81,3.09,2.91c0,0,2.25,1.59,3.6,0.42c1.35-1.25,0.9-3.12,0.9-3.12
	c-2.12,3.05-3.73,1.59-3.73,1.59c0.77-1.11,0.71-1.59,0.71-1.59s-2.57,2.08-2.96,0.48c-0.45-1.59,2.38-3.05,2.38-3.05
	c-1.87,0.35-2.64,1.11-2.64,1.11c-2.51-3.32,2.06-6.37,2.06-6.37c-1.67,0-2.44,0.62-2.44,0.62c-1.09-3.6,1.48-7.27,1.48-7.27
	c-1.61,0.69-2.38,2.28-2.38,2.28c-0.71-1.8,0-4.01,0-4.01c-1.29-0.07-1.67-1.59-1.67-1.66c-0.13,0.76,0,1.52,0.39,2.49
	c0,0-0.71,2.84,0.58,4.36c0,0-0.58,2.7,0.45,4.64C24.75,24.18,22.95,28.47,24.94,30.34L24.94,30.34z"/>
<path class="st0" d="M16.64,30.34c-0.9,2.84,1.16,3.81,3.09,2.91c0,0,2.25,1.59,3.6,0.42c1.35-1.25,0.84-3.12,0.84-3.12
	s1.61-2.15,0.13-4.43c0,0,1.54-2.56,0-4.92c0,0,0.9-1.52-0.13-3.81c0,0,0.58-2.29-0.64-4.5c0,0,0.58-3.05-2.44-3.67
	c-2.96-0.63-7.53,1.73-5.73,5.95c0,0-0.64,2.84,0.64,4.36c0,0-0.64,2.7,0.45,4.64C16.45,24.18,14.65,28.47,16.64,30.34L16.64,30.34z
	"/>
<path class="st2" d="M16.64,30.34c-0.9,2.84,1.16,3.81,3.09,2.91c0,0,2.25,1.59,3.6,0.42c1.35-1.25,0.84-3.12,0.84-3.12
	c-2.06,3.05-3.67,1.59-3.67,1.59c0.71-1.11,0.71-1.59,0.71-1.59s-2.57,2.08-3.02,0.48c-0.39-1.59,2.44-3.05,2.44-3.05
	c-1.87,0.35-2.7,1.11-2.7,1.11c-2.44-3.32,2.12-6.37,2.12-6.37c-1.67,0-2.51,0.62-2.51,0.62c-1.09-3.6,1.54-7.27,1.54-7.27
	c-1.67,0.69-2.38,2.28-2.38,2.28c-0.71-1.8-0.06-4.01-0.06-4.01c-1.22-0.07-1.61-1.59-1.61-1.66c-0.13,0.76-0.06,1.52,0.32,2.49
	c0,0-0.64,2.84,0.64,4.36c0,0-0.64,2.7,0.45,4.64C16.45,24.18,14.65,28.47,16.64,30.34L16.64,30.34z"/>
<path class="st3" d="M31.96,17.81c0,0,0.58-2.35-0.64-4.57c0,0,0.58-2.98-2.38-3.67c-1.35-0.28-2.96,0.07-4.18,0.83
	c1.29-1.04,3.15-1.52,4.7-1.18c2.96,0.62,2.38,3.67,2.38,3.67c1.22,2.22,0.64,4.5,0.64,4.5c1.09,2.28,0.13,3.81,0.13,3.81
	c1.54,2.35,0.06,4.92,0.06,4.92c1.48,2.29-0.13,4.43-0.13,4.43s0.45,1.87-0.9,3.12c-0.13,0.07-0.26,0.21-0.39,0.28
	c1.22-1.25,0.77-2.98,0.77-2.98s1.61-2.22,0.13-4.5c0,0,1.48-2.49-0.06-4.85C32.08,21.62,33.05,20.09,31.96,17.81L31.96,17.81z"/>
<path class="st3" d="M23.53,12.89c1.22,2.22,0.64,4.5,0.64,4.5c1.03,2.28,0.13,3.81,0.13,3.81c1.54,2.35,0,4.92,0,4.92
	c1.48,2.29-0.13,4.43-0.13,4.43s0.52,1.87-0.84,3.12c-0.13,0.07-0.26,0.21-0.45,0.28c1.22-1.25,0.77-2.98,0.77-2.98
	s1.61-2.22,0.13-4.5c0,0,1.54-2.49,0-4.85c0,0,0.9-1.52-0.13-3.81c0,0,0.58-2.35-0.64-4.57c0,0,0.58-2.98-2.44-3.67
	c-1.29-0.28-2.89,0.07-4.18,0.83c1.29-1.04,3.22-1.52,4.7-1.18C24.11,9.84,23.53,12.89,23.53,12.89L23.53,12.89z"/>
<path class="st3" d="M48.49,13.65c0,0,0.77-2.98-2.19-3.88c-1.42-0.48-3.22-0.28-4.57,0.55c1.35-1.18,3.47-1.45,5.08-0.97
	c2.96,0.97,2.19,3.95,2.19,3.95c1.09,2.29,0.39,4.57,0.39,4.57c0.9,2.35-0.13,3.81-0.13,3.81c1.42,2.5-0.26,4.85-0.26,4.85
	c1.35,2.42-0.39,4.43-0.39,4.43s0.39,1.94-1.03,2.98c-0.07,0.07-0.19,0.14-0.26,0.21c1.09-1.11,0.77-2.77,0.77-2.77
	s1.74-2.08,0.39-4.5c0,0,1.67-2.35,0.26-4.85c0,0,1.03-1.39,0.13-3.81C48.88,18.22,49.58,16.01,48.49,13.65L48.49,13.65z"/>
<path class="st3" d="M40.96,21.2c1.54,2.35,0,4.92,0,4.92c1.48,2.29-0.13,4.43-0.13,4.43s0.51,1.87-0.84,3.12
	c-0.13,0.07-0.32,0.21-0.45,0.28c1.22-1.25,0.77-2.98,0.77-2.98s1.61-2.22,0.13-4.5c0,0,1.48-2.49-0.06-4.85
	c0,0,0.97-1.52-0.06-3.81c0,0,0.58-2.35-0.64-4.57c0,0,0.58-2.98-2.44-3.67c-1.29-0.28-2.89,0.07-4.18,0.83
	c1.29-1.04,3.22-1.52,4.7-1.18c3.02,0.62,2.44,3.67,2.44,3.67c1.22,2.22,0.64,4.5,0.64,4.5C41.86,19.68,40.96,21.2,40.96,21.2
	L40.96,21.2z"/>
</svg>
