<?xml version="1.0" encoding="utf-8"?>
<!-- Generator: Adobe Illustrator 25.0.0, SVG Export Plug-In . SVG Version: 6.00 Build 0)  -->
<svg version="1.1" id="Capa_1" xmlns="http://www.w3.org/2000/svg" xmlns:xlink="http://www.w3.org/1999/xlink" x="0px" y="0px"
	 viewBox="0 0 106.41 55.67" style="enable-background:new 0 0 106.41 55.67;" xml:space="preserve">
<style type="text/css">
	.st0{fill:#E9A967;}
	.st1{fill:#BA7435;}
	.st2{fill:#854716;}
	.st3{fill:#353738;}
	.st4{fill:#4D4F50;}
	.st5{fill:#6D7072;}
	.st6{fill:#FFFFFF;}
</style>
<g>
	<g>
		<path class="st0" d="M71.04,35.19c-4.64-0.42-20.16-1.04-34.95-0.85c-13.3-0.12-33.05-0.25-33.05-0.25l0.31,4.66
			c0,0,45.25,5.27,66.71,5.03c0.04-0.05,0.06-0.1,0.1-0.15C68.06,39.43,69.98,36.41,71.04,35.19z"/>
		<path class="st1" d="M71.1,35.2c-0.02,0-0.04,0-0.05-0.01c-1.06,1.22-2.98,4.24-0.88,8.44C72.61,40.11,71.93,36.11,71.1,35.2z"/>
		<g>
			<path class="st0" d="M63.98,34.7c-1.99,0.62-3.71,1.6-5.81,1.89c-2.55,0.36-5.05,0.57-7.61,0.81c-5.45,0.5-10.85,0.33-16.32,0.23
				c-2.18-0.04-4.34-0.68-6.52-0.6c-3.1,0.12-6.1,0.54-9.22,0.5c-2.6-0.04-5.09-0.37-7.66-0.74c-2.45-0.35-4.88-1.46-7.37-1.39
				c-0.17,0.01-0.41,0.35-0.16,0.36c2.46,0.18,4.83,1.25,7.28,1.61c2.57,0.38,5.07,0.7,7.67,0.7c2.55,0,4.98-0.12,7.51-0.44
				c3.31-0.42,6.73,0.53,10.07,0.53c4.92,0.01,9.72,0.31,14.62-0.24c2.52-0.28,5.08-0.51,7.6-0.77c2.16-0.22,3.93-1.27,5.95-1.95
				C64.31,35.08,64.37,34.58,63.98,34.7z"/>
			<path class="st0" d="M44.51,34.18c-5.67,1.54-11.45,0.77-17.18,1.66c-3.12,0.49-5.94,0.26-9.05,0.01
				c-3.14-0.25-6.23-0.35-9.19-1.6c-0.15-0.06-0.39,0.21-0.21,0.3c2.22,1.18,4.87,1.55,7.34,1.67c3.15,0.15,6.2,0.71,9.35,0.32
				c3.12-0.38,6.11-0.47,9.24-0.61c3.23-0.14,6.56-0.38,9.67-1.33C44.69,34.56,44.81,34.1,44.51,34.18z"/>
			<path class="st0" d="M70.38,35.4c-0.85,0.8-2.26,1.02-3.3,1.47c-0.98,0.42-1.82,1.3-2.72,1.85c-2.57,1.59-4.92,1.91-7.84,2.33
				c-3.24,0.46-6.26,1.07-9.56,0.81c-3.05-0.25-6.07-0.98-9.12-1.3c-2.96-0.31-5.82-0.89-8.81-1.03c-3.06-0.14-6.03,0.12-9.07-0.29
				c-2.79-0.38-5.62-0.48-8.42-0.91c-1.44-0.22-2.88-0.23-4.32-0.52c-1.24-0.25-2.65-0.79-3.89-0.45c-0.19,0.05-0.41,0.46-0.08,0.42
				c1.37-0.18,3.21,0.5,4.57,0.78c1.66,0.34,3.45,0.35,5.14,0.54c3.21,0.36,6.41,0.5,9.61,0.88c1.48,0.17,3.08-0.12,4.55-0.15
				c1.76-0.03,3.51,0.12,5.26,0.31c3.14,0.33,6.36,0.86,9.47,1.41c2.8,0.49,5.49,0.97,8.34,0.88c3.16-0.11,6.39-0.85,9.54-1.21
				c2-0.23,3.84-1.44,5.5-2.46c1.26-0.77,2.42-1.57,3.83-2.06c0.62-0.21,1.18-0.49,1.66-0.95C71.03,35.45,70.69,35.1,70.38,35.4z"/>
			<path class="st0" d="M68.85,43.3c-3.29-3.58-7.4-1.25-11.36-0.39c-0.16,0.03-0.31,0.35-0.07,0.33c1.58-0.17,3.29-0.75,4.84-1.13
				c2.54-0.63,4.26-0.09,6.18,1.58C68.64,43.85,69.02,43.49,68.85,43.3z"/>
		</g>
	</g>
	<g>
		<path class="st0" d="M69.98,35.11c-0.31,0.5-0.6,1.02-0.88,1.54c-0.61,1.15-1.09,2.5-1.95,3.5c-0.81,0.94-2.47,0.86-3.58,0.8
			c-1.5-0.09-2.96-0.08-4.45-0.09c-1.54,0-3.98-0.26-2.85-2.32c0.59-1.08,1.78-1.61,2.79-2.21c0.9-0.53,1.76-1.1,2.65-1.63
			c-4.92-0.19-11.1-0.34-17.53-0.37c-0.21,0.2-0.41,0.4-0.63,0.59c-1.41,1.22-3.03,2.21-4.64,3.13c-3.23,1.84-6.59,2.58-10.21,1.32
			c-0.04-0.01-0.03-0.09-0.03-0.11c0.46-2.33,3.45-2.79,5.39-3.05c1.76-0.23,3.45-0.23,5.23-0.27c1.57-0.04,2.86-0.46,4.05-1.53
			c0.03-0.03,0.06-0.05,0.09-0.08c-2.44-0.01-4.9,0-7.35,0.03c-5.04-0.05-11-0.09-16.47-0.13c0.04,0.66,0.13,1.32,0.1,1.84
			c-0.03,0.63-0.23,1.18-0.57,1.7c-0.17,0.26-0.64,0.81-1.03,0.63c-1.15-0.54-2.19-0.82-3.47-0.86c-2.85-0.1-5.81,0.05-8.63-0.35
			C4.72,37,4.4,35.41,4.4,34.13c-0.88-0.01-1.37-0.01-1.37-0.01l0.31,4.66c0,0,45.25,5.27,66.71,5.03c0.04-0.05,0.06-0.1,0.1-0.15
			c-2.1-4.2-0.18-7.22,0.88-8.44C70.74,35.16,70.38,35.14,69.98,35.11z"/>
		<path class="st1" d="M71.1,35.2c-0.02,0-0.04,0-0.05-0.01c-1.06,1.22-2.98,4.24-0.88,8.44C72.61,40.11,71.93,36.11,71.1,35.2z"/>
	</g>
	<g>
		<path class="st0" d="M102.56,7.97c-0.85-2.66-2.58-2.57-5.27-1.59c-9.08,3.68-36.3,18.39-48.31,25.75
			c-11.24,6.88-17.11,11.61-17.83,12.2c1.08-0.36,2.91-0.62,3.95,1.16c0.89,1.53,0.98,2.89,0.71,3.82c0.38-0.34,1.21-1.08,2.99-2.65
			c4.11-3.31,11.41-8.09,18.58-12.75c0,0,2.76-1.9,8.64-5.09c5.89-3.19,10.36-6.32,14.1-6.56c3.74-0.25,8.34-0.31,12.45,0.25
			c4.11,0.55,5.52,0.25,5.82-0.55c0.31-0.8,0.49-1.78-1.96-2.02c-2.45-0.25-7.78-0.36-12.39-1.03c5.48-2.74,14.49-5.59,16.66-6.42
			C102.87,11.66,103.23,10.1,102.56,7.97z"/>
	</g>
	<g>
		<path class="st0" d="M83.19,17.43c-10.92,4.9-20.82,10.67-31.31,17.21c-10.5,6.54-15.05,12.22-16.17,10.15
			c-0.6-1.11-1.89-1.55-2.96-1.71c-0.88,0.67-1.41,1.1-1.6,1.25c1.08-0.36,2.91-0.62,3.95,1.16c0.89,1.53,0.98,2.89,0.71,3.82
			c0.38-0.34,1.21-1.08,2.99-2.65c4.11-3.31,11.41-8.09,18.58-12.75c0,0,2.76-1.9,8.64-5.09c5.89-3.19,10.36-6.32,14.1-6.56
			c3.74-0.25,8.34-0.31,12.45,0.25c4.11,0.55,5.52,0.25,5.82-0.55c0.31-0.8,0.49-1.78-1.96-2.02c-2.45-0.25-7.78-0.36-12.39-1.03
			c5.48-2.74,14.49-5.59,16.66-6.42c1.99-0.76,2.46-2.13,2-3.99C100.61,11.72,92.65,13.19,83.19,17.43z"/>
	</g>
	<path class="st1" d="M35.09,45.49c-1.04-1.78-2.87-1.52-3.95-1.16c-0.05,0.04-0.08,0.06-0.08,0.06s-1.41,1.84,0.31,3.8
		c1.71,1.95,4.08,1.42,4.11,1.41c0-0.01,0.05-0.05,0.32-0.29C36.07,48.38,35.98,47.02,35.09,45.49z"/>
	<g>
		<path class="st2" d="M56.33,34.16c-4.11,2.44-8.41,4.79-11.77,8.23c-0.18,0.18,0.02,0.39,0.2,0.21c3.44-3.36,7.77-5.43,11.71-8.11
			C56.7,34.35,56.62,34,56.33,34.16z"/>
		<path class="st2" d="M45.03,34.25c-3.62,2.13-7.19,4.5-10.49,7.1c-0.17,0.13-0.11,0.42,0.11,0.27c3.46-2.42,7.01-4.68,10.51-7.05
			C45.37,34.42,45.3,34.1,45.03,34.25z"/>
	</g>
	<g>
		<path class="st0" d="M90,9.88C81.46,17.41,70.77,22,61.01,27.72C56,30.66,51,33.45,45.8,36.05c-2.26,1.13-4.32,2.59-6.4,4.01
			c-1.8,1.23-3.04,2.68-4.68,4.05c-0.23,0.19-0.04,0.55,0.23,0.35c1.64-1.25,2.86-2.79,4.64-3.94c2.57-1.67,5.02-3.33,7.79-4.69
			c5.04-2.46,9.8-5.28,14.63-8.12c9.55-5.6,20.08-9.97,28.33-17.49C90.66,9.94,90.32,9.6,90,9.88z"/>
		<path class="st0" d="M80.28,15.27c-3.67,1.93-6.91,4.48-10.66,6.3c-4.26,2.07-8.46,4.27-12.66,6.46
			c-3.67,1.91-7.33,3.74-10.87,5.84c-3.8,2.26-7.02,6.19-11.25,7.67c-0.19,0.07-0.23,0.4,0.02,0.32c1.84-0.55,3.19-1.84,4.74-2.93
			c1.87-1.32,3.63-2.75,5.48-4.08c3.64-2.61,7.97-4.42,11.93-6.53c4.38-2.33,8.83-4.56,13.31-6.69c3.55-1.69,6.62-4.15,10.09-5.98
			C80.72,15.5,80.61,15.09,80.28,15.27z"/>
		<path class="st0" d="M101.85,6.53c-0.94,1.2-2.86,2.16-4.17,2.92c-1.79,1.05-3.63,2.04-5.42,3.1c-3.34,1.97-6.58,4.1-9.9,6.09
			c-3.19,1.9-6.7,3.25-9.93,5.07c-1.48,0.83-2.94,1.67-4.36,2.6c-1.29,0.84-2.22,2-3.45,2.89c-0.17,0.12-0.12,0.39,0.11,0.26
			c1.04-0.61,1.83-1.57,2.81-2.26c1.82-1.28,3.82-2.41,5.81-3.42c3.34-1.7,6.76-3.23,9.98-5.16c3.58-2.14,7.07-4.44,10.69-6.53
			c2.6-1.5,6.4-2.94,8.28-5.35C102.55,6.38,102.07,6.25,101.85,6.53z"/>
		<path class="st0" d="M97.88,20.28c-3.81,1.07-8.84-0.23-12.54-1.19c-0.15-0.04-0.36,0.26-0.19,0.33c0.76,0.31,1.17,0.59,2.02,0.69
			c1.48,0.17,2.91,0.75,4.39,0.76c2.04,0.02,4.41,0.72,6.35-0.18C98.13,20.58,98.22,20.18,97.88,20.28z"/>
		<path class="st0" d="M54.72,34.02c-3.4,1.38-7.6,2.85-10.43,5.26c-1.46,1.25-2.99,2.43-4.24,3.91c-0.7,0.83-1.34,1.67-1.92,2.6
			c-0.21,0.34-1.01,2.06-1.48,2.39c-0.14,0.1-0.16,0.42,0.07,0.31c0.7-0.35,0.97-1.17,1.41-1.79c1.56-2.21,3.04-4.37,5.23-6.07
			c3.51-2.73,7.56-4.2,11.44-6.24C55,34.28,54.99,33.91,54.72,34.02z"/>
	</g>
	<g>
		<g>
			<g>
				<path class="st3" d="M44.25,39.94c-0.97-0.07-1.7-0.92-1.63-1.89c0.07-0.97,0.92-1.7,1.89-1.63s1.7,0.92,1.63,1.89
					C46.07,39.28,45.22,40.01,44.25,39.94z"/>
			</g>
			<g>
				<path class="st4" d="M44.54,39.72c-0.97-0.07-1.7-0.92-1.63-1.89c0.07-0.97,0.92-1.7,1.89-1.63s1.7,0.92,1.63,1.89
					S45.51,39.79,44.54,39.72z"/>
			</g>
			<g>
				<path class="st5" d="M46.05,36.87c-0.3-0.38-0.74-0.63-1.25-0.67c-0.97-0.07-1.82,0.66-1.89,1.63
					c-0.03,0.39,0.08,0.75,0.27,1.06C44.12,38.2,45.06,37.5,46.05,36.87z"/>
				<path class="st5" d="M46.43,38.09c0.02-0.3-0.04-0.58-0.15-0.83c-0.96,0.63-1.88,1.31-2.81,1.98c0.28,0.27,0.65,0.45,1.07,0.48
					C45.51,39.79,46.36,39.06,46.43,38.09z"/>
			</g>
		</g>
		<path class="st6" d="M43.58,37.42c0.49-0.68,1.12-1.06,1.96-0.71c0.11,0.05,0.14-0.09,0.05-0.14c-0.4-0.2-0.68-0.28-1.12-0.17
			c-0.5,0.12-0.87,0.46-1.12,0.89C43.28,37.4,43.51,37.52,43.58,37.42z"/>
		<path class="st6" d="M43.44,37.86c0-0.02,0-0.03,0.01-0.05c0.04-0.11-0.17-0.24-0.23-0.13c-0.03,0.05-0.03,0.06-0.03,0.12
			C43.19,37.93,43.45,38.02,43.44,37.86z"/>
	</g>
</g>
</svg>
