<?xml version="1.0" encoding="utf-8"?>
<!-- Generator: Adobe Illustrator 25.0.0, SVG Export Plug-In . SVG Version: 6.00 Build 0)  -->
<svg version="1.1" id="Capa_1" xmlns="http://www.w3.org/2000/svg" xmlns:xlink="http://www.w3.org/1999/xlink" x="0px" y="0px"
	 viewBox="0 0 70.34 75" style="enable-background:new 0 0 70.34 75;" xml:space="preserve">
<style type="text/css">
	.st0{fill:#BA7435;}
	.st1{fill:#E9A967;}
	.st2{fill:#ED791E;}
	.st3{fill:#353738;}
	.st4{fill:#4D4F50;}
	.st5{fill:#6D7072;}
	.st6{fill:#FFFFFF;}
	.st7{fill:#854716;}
</style>
<g>
	<g>
		<path class="st0" d="M6.36,14.24c0-2.11-0.6-3.36-1.06-3.99c-1.18,0.45-1.99,5.27-0.22,7.54C5.64,17.32,6.36,16.32,6.36,14.24z"/>
		<path class="st1" d="M44.82,7.54c-22.2-0.86-38.26,2.33-39.48,2.7c-0.01,0-0.02,0.01-0.04,0.02c0.45,0.63,1.06,1.88,1.06,3.99
			c0,2.08-0.72,3.08-1.28,3.55c0.04,0.06,0.09,0.11,0.14,0.17c13.49-1.47,60.7-4.29,60.7-4.29l0.37-5.64
			C66.28,8.03,60.03,7.78,44.82,7.54z"/>
		<path class="st1" d="M10.98,9.21c-3.26,0.48-5.24,0.9-5.64,1.02c-0.01,0-0.02,0.01-0.04,0.02c0.45,0.63,1.06,1.88,1.06,3.99
			c0,2.08-0.72,3.08-1.28,3.55c0.04,0.06,0.09,0.11,0.14,0.17c1.28-0.14,2.87-0.29,4.69-0.45C10.03,14.71,10.32,11.93,10.98,9.21z"
			/>
		<path class="st1" d="M65.95,8.01c-0.15,0.87-0.41,1.7-0.9,2.41c-0.55,0.81-1.38,1.56-2.43,1.54c-0.91-0.02-1.81-0.29-2.72-0.27
			c-1.01,0.02-2.02,0.09-3.02,0.25c-1.86,0.29-3.7,0.62-5.58,0.78c-1.43,0.12-3.06,0.32-4.47-0.06c-2.31-0.61-2.38-3.02-2.43-5.14
			c-5.2-0.19-10.05-0.16-14.45,0c0.36,0.89,0.61,1.81,0.57,2.82c-0.06,1.62-1.13,3.61-2.76,4.12c-1.74,0.55-5.62,1.18-6.33-1.17
			c-0.51-1.7-0.03-3.58,0.53-5.31c-4.31,0.34-7.92,0.78-10.67,1.18c-0.65,2.72-0.92,5.51-1.03,8.31
			c17.51-1.53,55.66-3.81,55.66-3.81l0.37-5.64C66.28,8.03,66.17,8.02,65.95,8.01z"/>
		<g>
			<path class="st1" d="M62.34,8.28c-4.59,1.33-9.45,0.71-14.16,1.09c-4.85,0.39-9.55,1.69-14.36,2.39
				c-4.71,0.69-9.53,1.21-14.29,1.21c-3.87,0-11,0.34-13.68-3.01c-0.12-0.15-0.42,0.12-0.33,0.27c0.66,1.14,2.12,1.58,3.28,2.07
				c2.17,0.93,4.69,0.82,6.99,0.95c5.11,0.29,10.07-0.09,15.16-0.63c5.17-0.54,10.19-1.89,15.35-2.51c5.32-0.64,10.78,0.1,16-1.33
				C62.61,8.69,62.76,8.16,62.34,8.28z"/>
			<path class="st1" d="M50.22,7.38c-2.76,0-5,0.87-7.7,1.45c-3.5,0.75-7.09,0.86-10.64,1.24c-3.78,0.41-7.91,0.65-11.7,0.49
				c-1.5-0.07-2.98-0.17-4.49-0.11c-1.6,0.07-5.18,0.49-6.11-1.21C9.45,9.01,9.12,9.3,9.18,9.5c0.57,1.94,4.13,1.6,5.65,1.55
				c3.87-0.14,7.67,0.23,11.54-0.17c3.95-0.41,7.94-0.45,11.9-0.86c3.92-0.41,7.79-2.08,11.7-2.08C50.25,7.94,50.58,7.38,50.22,7.38
				z"/>
			<path class="st1" d="M32.86,7.29c-2.8,0.72-5.79,2.24-8.49,0.41c-0.16-0.11-0.49,0.24-0.32,0.37c2.55,2.04,6.05,0.74,8.78-0.31
				C33.03,7.69,33.18,7.2,32.86,7.29z"/>
			<path class="st1" d="M65.97,11.54c-1.77,0.46-3.85,0.09-5.68,0.17c-2.32,0.1-4.64,0.23-6.96,0.39
				c-5.39,0.38-10.73,0.89-16.14,0.99c-4.73,0.09-9.29,0.55-13.98,1.02c-2.93,0.29-5.78,1.27-8.71,1.33
				c-2.17,0.04-5.84,0.34-7.71-0.82c-0.13-0.08-0.35,0.17-0.24,0.28c1.27,1.28,3.41,0.87,5.09,0.98c2.85,0.17,5.19-0.14,7.97-0.8
				c5.12-1.22,10.51-1.06,15.72-1.43c5.44-0.38,10.88-0.44,16.32-0.88c2.32-0.19,4.64-0.33,6.97-0.42c2.28-0.09,5.01,0.32,7.23-0.23
				C66.15,12.04,66.36,11.44,65.97,11.54z"/>
		</g>
	</g>
	<g>
		<g>
			<path class="st2" d="M8.22,69.49L7.94,69.4c-2.87-1.18-3.32-3.04-3.34-3.12l-0.01-0.03v-0.03c0,0,0.01-0.1,0.02-0.29l0.02-0.24
				l0.24,0.02c0.87,0.07,2.47,0.6,3.39,3.37l0.02,0.06L8.22,69.49z M5.1,66.22c0.08,0.26,0.58,1.54,2.53,2.5
				C6.91,66.95,5.91,66.37,5.1,66.22z"/>
			<path class="st1" d="M16.54,49.72c-0.66-4.17,0.49-10.87,0.74-16.35c0.25-5.48,1.47-17.25,2.29-21.42s1.14-5.56,1.14-5.56
				s-2.21-4.66-7.28-1.55c0,0-4.58,28.2-4.9,41.86c-0.33,5.89-0.49,7.11-2.04,12.18c-1.24,4.05-1.54,6.32-1.61,7.07
				c0.91,0.07,2.33,0.63,3.17,3.2c1.63-5.55,2.53-12.4,3.51-15.51s0.9-3.84,1.55-1.55c0.66,2.29,3.84,9.56,3.84,9.56
				s1.15,0.33,1.96-0.74c0.82-1.06,0.98-2.45,0.49-3.43C18.91,56.5,17.19,53.89,16.54,49.72z"/>
		</g>
		<g>
			<path class="st1" d="M6.65,68.44c0.38,0.26,0.83,0.51,1.39,0.74c0-0.01,0-0.02,0.01-0.03c-0.31-0.94-0.7-1.61-1.1-2.08
				C6.81,67.66,6.71,68.13,6.65,68.44z"/>
			<path class="st1" d="M4.87,65.95c-0.02,0.19-0.02,0.29-0.02,0.29s0.27,1.16,1.8,2.2c0.06-0.31,0.16-0.78,0.29-1.37
				C6.23,66.24,5.44,65.99,4.87,65.95z"/>
			<path class="st1" d="M10.16,52.82c-1.09,4.26-2.55,11.04-3.22,14.24c0.41,0.48,0.8,1.15,1.1,2.08c1.63-5.55,2.53-12.4,3.51-15.51
				c0.65-2.05,0.83-3.06,1.07-2.86C11.89,49.48,11.02,49.46,10.16,52.82z"/>
			<path class="st1" d="M16.54,49.72c-0.66-4.17,0.49-10.87,0.74-16.35c0.25-5.48,1.47-17.25,2.29-21.42s1.14-5.56,1.14-5.56
				s-0.47-0.98-1.46-1.74c-0.29,1.59-0.72,4.2-1.28,8.28c-1.1,8.09-1.84,12.63-3.23,25.75c-0.63,5.97,0.33,12.67,2.29,17.09
				c1.17,2.64,1.32,4.57,1.25,5.7c0.22-0.12,0.43-0.29,0.63-0.55c0.82-1.06,0.98-2.45,0.49-3.43C18.91,56.5,17.19,53.89,16.54,49.72
				z"/>
		</g>
		<g>
			<path class="st1" d="M15.69,4.53c-1.6,10.11-3.45,20.16-6.06,30.06c-0.07,0.25,0.32,0.16,0.38-0.01
				c1.54-4.59,2.54-9.66,3.46-14.42c0.99-5.17,1.89-10.43,2.47-15.67C15.96,4.31,15.71,4.4,15.69,4.53z"/>
			<path class="st1" d="M13.6,41.53c-0.17-5.5,1.87-10.65,2.59-16.01c-0.18,5.65-0.29,11.39,0.11,16.98
				c0.02,0.27,0.39,0.02,0.4-0.16c0.41-6.39-0.02-12.87,0.13-19.28c0.07-2.98,0.22-5.96,0.37-8.93c0.16-3.25,0.74-6.33,1.12-9.54
				c0.03-0.23-0.28-0.11-0.31,0.05c-1.08,5.64-1.48,11.09-1.68,16.83c-0.04,1.18-0.08,2.36-0.12,3.54
				c-0.07-0.04-0.22,0.04-0.24,0.15c-0.87,5.6-2.83,10.82-2.88,16.58c-0.03,4.56,1.77,9.99,4.42,13.71
				c0.12,0.17,0.45-0.14,0.33-0.32C15.26,51.16,13.75,46.22,13.6,41.53z"/>
			<g>
				<path class="st1" d="M11.18,34.84c-0.03,0.05-0.06,0.1-0.09,0.15C10.9,35.33,10.87,35.41,11.18,34.84z"/>
				<path class="st1" d="M15.69,19.68c0.67-5.17,1.6-10.45,1.96-15.63c0.02-0.23-0.29-0.12-0.31,0.05
					c-0.53,4.62-1.35,9.24-1.94,13.87c-0.6,4.72-1.28,9.58-2.81,14.12h-0.01c-0.09-0.01-0.19,0.05-0.24,0.12
					c-1.02,1.47-1.55,3.23-2.97,4.4c-0.1,0.08-0.02,0.24,0.1,0.15c0.64-0.49,1.19-1.06,1.6-1.76c0.41-0.75,1.59-2.77,1.61-1.87
					c0.02,0.97-0.22,1.99-0.38,2.94c-0.75,4.4-2.86,8.54-4.05,12.83c-0.08,0.29,0.37,0.14,0.42-0.07c0.35-1.26,5.3-14.15,4.3-16.42
					l0,0C14.57,28.46,15.15,23.87,15.69,19.68z"/>
			</g>
			<path class="st1" d="M10.91,45.95c-0.19,1.38-0.21,2.79-0.41,4.18c-0.3,2.08-1.1,4.05-1.83,6.01c-1.33,3.57-2.92,7.15-3.02,11.01
				c-0.01,0.32,0.49,0.04,0.5-0.2c0.2-4.3,2.07-8.28,3.5-12.28c1.05-2.96,1.17-5.71,1.5-8.76C11.16,45.75,10.93,45.83,10.91,45.95z"
				/>
		</g>
	</g>
	<g>
		<g>
			<g>
				<path class="st3" d="M16.96,13.53c-0.34,0.91-1.36,1.38-2.27,1.04c-0.92-0.34-1.38-1.36-1.04-2.27
					c0.34-0.91,1.36-1.38,2.27-1.04C16.83,11.6,17.29,12.62,16.96,13.53z"/>
			</g>
			<g>
				<path class="st4" d="M16.83,13.18c-0.34,0.91-1.36,1.38-2.27,1.04s-1.38-1.36-1.04-2.27c0.34-0.91,1.36-1.38,2.27-1.04
					S17.16,12.27,16.83,13.18z"/>
			</g>
			<g>
				<path class="st5" d="M14.51,10.94c-0.44,0.18-0.81,0.53-0.99,1.02c-0.34,0.91,0.12,1.93,1.04,2.27
					c0.36,0.14,0.74,0.14,1.09,0.04C15.25,13.16,14.84,12.06,14.51,10.94z"/>
				<path class="st5" d="M15.79,10.91c-0.28-0.1-0.56-0.13-0.84-0.09c0.34,1.1,0.73,2.17,1.12,3.25c0.33-0.2,0.61-0.5,0.76-0.9
					C17.16,12.27,16.7,11.25,15.79,10.91z"/>
			</g>
		</g>
		<path class="st6" d="M14.35,13.46c-0.52-0.66-0.7-1.37-0.13-2.08c0.08-0.09-0.05-0.17-0.12-0.09c-0.3,0.33-0.45,0.57-0.48,1.03
			c-0.03,0.51,0.2,0.96,0.54,1.32C14.24,13.74,14.42,13.56,14.35,13.46z"/>
		<path class="st6" d="M14.73,13.72c-0.01-0.01-0.03-0.01-0.04-0.02c-0.1-0.07-0.28,0.1-0.19,0.18c0.04,0.04,0.05,0.04,0.1,0.06
			C14.73,13.98,14.89,13.75,14.73,13.72z"/>
	</g>
	<path class="st7" d="M20.22,8.37c-1,4.02-1.94,8.29-2.12,12.43c-0.01,0.28,0.12,0.27,0.15,0.07c0.5-4.24,1.68-8.4,2.15-12.64
		C20.43,7.92,20.27,8.17,20.22,8.37z"/>
	<path class="st7" d="M12.91,8.57c-0.23,0.16-0.29,0.34-0.36,0.63c-0.26,1.13-0.36,2.28-0.57,3.42c-0.43,2.32-0.94,4.69-0.94,7.07
		c0,0.16,0.26,0.04,0.27-0.07c0.17-1.9,0.38-3.77,0.71-5.65c0.16-0.9,0.36-1.81,0.45-2.72c0.06-0.6,0-2.14,0.51-2.57
		C13.05,8.62,13,8.51,12.91,8.57z"/>
</g>
</svg>
