<?xml version="1.0" encoding="utf-8"?>
<!-- Generator: Adobe Illustrator 25.0.0, SVG Export Plug-In . SVG Version: 6.00 Build 0)  -->
<svg version="1.1" id="Capa_1" xmlns="http://www.w3.org/2000/svg" xmlns:xlink="http://www.w3.org/1999/xlink" x="0px" y="0px"
	 viewBox="0 0 73.78 148.89" style="enable-background:new 0 0 73.78 148.89;" xml:space="preserve">
<style type="text/css">
	.st0{fill:#793811;}
	.st1{fill:#E9A967;}
	.st2{fill:#FFD405;}
	.st3{opacity:0.5;fill:#882912;enable-background:new    ;}
	.st4{fill:#76A4D8;}
	.st5{fill:#353738;}
	.st6{fill:#4D4F50;}
	.st7{fill:#6D7072;}
	.st8{fill:#FFFFFF;}
	.st9{fill:#BB3E17;}
	.st10{opacity:0.5;}
</style>
<g>
	<g>
		<path class="st0" d="M20.81,102.43c-1.02-1.76-0.59-3.23-0.59-3.23s-1.25-2.44-2.84-1.83c-1.59,0.61-1.47,4.41,0,10.79
			c3.01-2.91,5.05-3.79,6.58-2.8c-0.05-0.04-0.1-0.08-0.15-0.12C23.8,105.25,21.82,104.19,20.81,102.43z"/>
		<path class="st1" d="M56.95,62.92L20.22,99.21c0,0-0.42,1.47,0.59,3.23s2.99,2.82,2.99,2.82C36.79,92.38,62.44,68.3,62.44,68.3
			L56.95,62.92z"/>
	</g>
	<g>
		<path class="st1" d="M57.89,63.77c-2.29,1.52-4.21,3.64-5.96,5.75c-1.38,1.67-2.37,3.78-3.71,5.52c-1.41,1.83-2.9,3.6-4.4,5.36
			c-1.71,2-3.19,4.11-5.07,5.97c-1.51,1.49-3.11,2.89-4.38,4.59c-0.42,0.55-0.81,1.13-1.2,1.7c-0.81,0.91-1.94,1.6-2.86,2.36
			c-1.29,1.07-2.51,2.2-3.66,3.43c-1.52,1.62-3.04,4.04-3.81,6.12c-0.02,0.04-0.04,0.08-0.05,0.12s-0.02,0.08-0.03,0.11
			c-0.13,0.45,0.56,0.28,0.67-0.02c0.01-0.02,0.02-0.04,0.03-0.07c0.05-0.07,0.08-0.14,0.09-0.21c1.06-2.78,3.12-5.42,5.22-7.46
			c0.92-0.89,2.17-1.69,3.25-2.6c-0.31,0.48-0.62,0.96-0.94,1.44c-0.8,1.2-2.16,2.38-2.16,3.89c0,0.41,0.61,0.08,0.65-0.18
			c0.27-1.64,2.1-3.46,3-4.82c1.12-1.68,2.1-3.39,3.49-4.88c2.88-3.07,5.66-5.98,8.34-9.23c2.5-3.05,5.3-6.03,7.26-9.47
			c1.64-2.88,4.04-4.94,6.4-7.19C58.18,63.87,58.07,63.65,57.89,63.77z"/>
		<path class="st1" d="M58.98,64.94c-4.64,4.01-8.19,9.3-10.18,15.14c-0.18,0.53,0.53,0.47,0.67,0.07
			c1.98-5.82,5.55-10.59,9.73-14.98C59.39,64.96,59.19,64.76,58.98,64.94z"/>
		<path class="st1" d="M60.69,66.05c-3.03,2.12-5.54,5.34-5.99,9.13c-0.06,0.47,0.53,0.19,0.62-0.1c0.58-1.99,1.13-3.76,2.37-5.45
			c0.94-1.29,2.01-2.26,3.17-3.32C61.02,66.16,60.9,65.91,60.69,66.05z"/>
		<path class="st1" d="M46.52,73.07c-1.86,1.37-3.26,3.7-4.76,5.43c-1.88,2.16-3.74,4.34-5.44,6.65c-1.97,2.69-3.73,5.71-6.23,7.96
			c-1.54,1.39-3.45,2.51-5.33,3.34c-0.88,0.39-1.7,0.52-2.54,1c-0.3,0.18-0.31,0.77,0.13,0.58c2.18-0.92,4.2-1.65,6.19-2.99
			c2.41-1.64,4.1-3.77,5.85-6.08c2.08-2.74,3.95-5.58,6.18-8.21c1.07-1.27,2.16-2.53,3.23-3.8c0.97-1.15,1.75-2.63,2.88-3.63
			C46.86,73.18,46.72,72.93,46.52,73.07z"/>
	</g>
	<g>
		<path class="st1" d="M56.95,62.92L44.01,75.71l0.06,0.05c0,0,9.65-8.83,11.77-6.87c2.13,1.96-11.77,14.39-21.74,24.03
			c-8.86,8.57-14.1,11.32-11.5,3.93l-2.38,2.35c0,0-0.42,1.47,0.59,3.23s2.99,2.82,2.99,2.82c12.99-12.88,38.64-36.96,38.64-36.96
			L56.95,62.92z"/>
	</g>
	<g>
		<path class="st1" d="M57.41,69.57c0.62,1.16,0.77,2,0.39,3.09c2.85-2.69,4.63-4.36,4.63-4.36l-5.49-5.38l-1.53,1.51
			C55.95,66.2,56.55,67.93,57.41,69.57z"/>
	</g>
	<path class="st1" d="M45.13,13.98c0,0-0.9-4.03-0.67-5.94c0.22-1.9,1.23-1.9,2.8-2.24c1.57-0.33,4.03-0.78,4.48,2.13
		c0.45,2.91,2.8,15.34,4.59,22.51s4.31,19.58,6.5,27.77c2.24,8.4,2.13,8.06,2.24,8.96c0.11,0.9-1.68,1.79-3.69,2.24
		c-2.01,0.45-3.36,0.78-3.92-0.67C56.89,67.29,47.48,26.52,45.13,13.98z"/>
	<path class="st2" d="M18.24,130.36c-1.8-6.54-5.4-12.1-9.32-18.8c-2.33-3.98-2.35-6.98-1.99-8.76c-2.11,1.9-2.75,3.33-2.05,5.03
		c1.01,2.46,2.13,5.15,5.38,9.97s2.35,4.15,4.82,12.43c2.45,8.24,8.22,13.71,14.56,11.13C22.8,140.86,19.82,136.12,18.24,130.36z"/>
	<path class="st3" d="M18.24,130.36c-1.8-6.54-5.4-12.1-9.32-18.8c-2.33-3.98-2.35-6.98-1.99-8.76c-2.11,1.9-2.75,3.33-2.05,5.03
		c0.2,0.49,0.4,0.99,0.63,1.51c1.51-0.7,1.97,1.89,2.75,3.36c0.99,1.87,2.29,3.56,3.36,5.39c1.27,2.15,2.55,4.41,3.38,6.75
		c0.87,2.46,1.57,4.98,2.45,7.44c0.79,2.23,1.78,4.7,3.56,6.32c0.84,0.77,1.33,1.45,1.44,2.32c2.19,1.22,4.64,1.48,7.19,0.45
		C22.8,140.86,19.82,136.12,18.24,130.36z"/>
	<path class="st4" d="M25.37,110.51c0-3.45-0.68-4.56-1.41-5.15c-1.52-0.99-3.57-0.11-6.58,2.8c-1.47-6.38-1.59-10.18,0-10.79
		c1.59-0.61,2.84,1.83,2.84,1.83s-0.67-1.91-1.68-3.36c-1.01-1.46-5.21,2.16-7.84,4.03c-1.57,1.11-2.82,2.06-3.77,2.92
		c-0.36,1.78-0.34,4.78,1.99,8.76c3.92,6.7,7.52,12.26,9.32,18.8c1.58,5.76,4.56,10.5,11.39,10.99c0.04-0.01,0.07-0.03,0.11-0.04
		c6.38-2.69,5.94-10.98,1.23-17.92C26.26,116.45,25.37,114.21,25.37,110.51z"/>
	<g>
		<path class="st1" d="M59.27,42.5c-2.59-5.81-4.99-11.41-6.91-17.48c-0.98-3.09-1.86-6.15-2.28-9.37
			c-0.43-3.33,0.05-6.64,0.08-9.97c0-0.3-0.48-0.08-0.49,0.14c-0.23,3.07-0.58,6.13-0.33,9.21c0.24,2.99,1.01,5.86,1.88,8.71
			c2.01,6.62,4.31,12.97,7.5,19.12C58.87,43.17,59.39,42.78,59.27,42.5z"/>
		<path class="st1" d="M63.81,67.15c-0.89-2.13-1.35-4.67-2.02-6.9c-0.79-2.63-1.45-5.3-2.21-7.94c-1.39-4.81-3.28-9.53-5.17-14.17
			c1.88,3.07,3.68,6.19,5.57,9.24c0.16,0.25,0.58-0.07,0.47-0.31c-2.84-6.41-7.69-11.76-10.27-18.32
			c-1.48-3.77-2.45-7.61-2.92-11.62c-0.43-3.75,0.07-7.41,0.5-11.13c0.03-0.26-0.31-0.12-0.35,0.06c-0.74,3.4-1.11,6.88-0.85,10.35
			c0.29,3.92,1.28,7.38,2.46,11.1c1.09,3.43,2.88,6.57,4.77,9.62c0.05,0.09,0.11,0.18,0.16,0.27c-0.1,0.05-0.19,0.16-0.15,0.26
			c1.86,4.94,3.79,9.92,5.3,14.98c0.79,2.64,1.41,5.32,2.18,7.97c0.66,2.27,1.08,4.74,1.97,6.93
			C63.38,67.83,63.93,67.43,63.81,67.15z"/>
		<path class="st1" d="M62.37,68.72c-1.45-2.26-1.88-5.53-2.65-8.08c-1.04-3.47-2.35-6.84-3.53-10.27c-1.1-3.21-2-6.55-3.28-9.69
			c-1.31-3.2-3.03-6.27-3.92-9.63c-0.05-0.19-0.39,0.03-0.36,0.19c0.63,3.15,2.16,6.08,3.38,9.03c1.3,3.16,2.14,6.47,3.29,9.69
			c1.21,3.39,2.49,6.77,3.54,10.22c0.86,2.82,1.3,6.46,2.9,8.96C61.95,69.46,62.55,69,62.37,68.72z"/>
		<path class="st1" d="M60.37,68.78c-0.75-0.77-0.95-4.1-1.14-5.04c-0.41-2-1.08-3.86-1.8-5.77c-1.52-4.01-3.25-7.93-5.01-11.84
			c-0.09-0.2-0.41,0.05-0.35,0.22c1.66,4.28,3.53,8.46,5.1,12.77c0.79,2.17,1.2,4.33,1.75,6.57c0.19,0.75,0.18,2.97,0.89,3.62
			C60.08,69.56,60.62,69.04,60.37,68.78z"/>
		<path class="st1" d="M55.69,28.51c-0.74-2.61-1.78-5.12-2.49-7.73c-0.8-2.95-0.93-5.55-0.76-8.59c0.01-0.18-0.27-0.04-0.29,0.08
			c-0.39,2.55-0.46,4.74,0.12,7.26c0.73,3.18,1.88,6.22,2.93,9.3C55.3,29.12,55.76,28.76,55.69,28.51z"/>
	</g>
	<g>
		<path class="st1" d="M62.83,58.22c-2.19-8.19-4.7-20.61-6.5-27.77c-1.79-7.17-4.14-19.6-4.59-22.51
			c-0.45-2.91-2.91-2.46-4.48-2.13c-1.57,0.34-2.58,0.34-2.8,2.24c-0.23,1.9,0.67,5.94,0.67,5.94c0.09,0.5,0.2,1.05,0.32,1.63
			l0.09,0.05c0,0-0.73-7.6,1.96-8.01c2.7-0.41,5.07,21.66,9.97,39.32C62.03,63,59.23,65.02,55.4,60.44
			c1.11,4.72,1.89,7.92,2.04,8.31c0.56,1.46,1.9,1.12,3.92,0.67s3.81-1.34,3.69-2.24C64.95,66.28,65.06,66.62,62.83,58.22z"/>
	</g>
	<g>
		<g>
			<g>
				<path class="st5" d="M59.97,66.55c-0.74-0.05-1.29-0.69-1.23-1.43c0.05-0.74,0.69-1.29,1.43-1.23c0.74,0.05,1.29,0.69,1.23,1.43
					C61.34,66.05,60.7,66.61,59.97,66.55z"/>
			</g>
			<g>
				<path class="st6" d="M60.19,66.38c-0.74-0.05-1.29-0.69-1.23-1.43c0.05-0.73,0.69-1.29,1.43-1.23c0.74,0.05,1.29,0.69,1.23,1.43
					C61.57,65.88,60.92,66.44,60.19,66.38z"/>
			</g>
			<g>
				<path class="st7" d="M61.33,64.23c-0.22-0.28-0.56-0.48-0.95-0.51c-0.73-0.05-1.37,0.5-1.43,1.23c-0.02,0.29,0.06,0.57,0.2,0.8
					C59.87,65.24,60.59,64.71,61.33,64.23z"/>
				<path class="st7" d="M61.62,65.15c0.02-0.22-0.03-0.44-0.11-0.63c-0.73,0.48-1.42,0.99-2.13,1.5c0.22,0.2,0.49,0.34,0.81,0.36
					C60.92,66.44,61.57,65.88,61.62,65.15z"/>
			</g>
		</g>
		<path class="st8" d="M59.46,64.64c0.37-0.52,0.85-0.8,1.48-0.54c0.08,0.04,0.11-0.07,0.04-0.11c-0.3-0.15-0.51-0.21-0.85-0.13
			c-0.38,0.09-0.65,0.35-0.84,0.67C59.24,64.63,59.41,64.72,59.46,64.64z"/>
		<path class="st8" d="M59.36,64.97c0-0.01,0-0.02,0-0.03c0.03-0.09-0.13-0.18-0.17-0.1c-0.02,0.04-0.02,0.05-0.02,0.09
			C59.17,65.03,59.37,65.1,59.36,64.97z"/>
	</g>
	<g>
		<path class="st4" d="M19.82,127.15c-2.14-10.15-5.01-9.29-9.44-16.59c-2.02-4.15-1.71-7.51-0.51-10.09
			c-1.18,0.86-2.16,1.63-2.94,2.32c-0.36,1.78-0.34,4.78,1.99,8.76c3.92,6.7,7.52,12.26,9.32,18.8c1.58,5.76,4.56,10.5,11.39,10.99
			c0.04-0.01,0.07-0.03,0.11-0.04c1.24-0.52,2.21-1.25,2.95-2.14C26.44,141.22,21.28,134.19,19.82,127.15z"/>
	</g>
	<g>
		<path class="st9" d="M34.07,133.53c-1.32,1.88-2.89,2.71-5.2,2.57c-1.81-0.1-3.92-1.51-4.7-3.14c-0.12-0.26-0.53,0.07-0.45,0.3
			c0.77,2.15,3.37,3.41,5.51,3.55c2.29,0.15,4.18-1.15,5.29-3.08C34.73,133.35,34.28,133.22,34.07,133.53z"/>
		<path class="st9" d="M23.28,131.94c-0.14-0.23-0.26-0.44-0.34-0.69c-0.08-0.24-0.5,0.06-0.42,0.27c0.09,0.26,0.22,0.5,0.38,0.73
			C23.01,132.43,23.38,132.11,23.28,131.94z"/>
	</g>
	<g class="st10">
		<path class="st0" d="M23.8,105.25c0,0-1.98-1.06-2.99-2.82c-1.02-1.76-0.59-3.23-0.59-3.23s-0.31-0.61-0.83-1.15
			c-0.94,2.19-0.54,4.26,1.58,6.37c-1.81-0.29-2.97,1.6-2.97,1.6s-0.07-2.25-0.58-6.09c-0.17-1.28-0.03-2.1,0.23-2.64
			c-0.09,0.02-0.18,0.04-0.27,0.07c-1.59,0.61-1.47,4.41,0,10.79c3.01-2.91,5.05-3.79,6.58-2.8
			C23.9,105.33,23.85,105.29,23.8,105.25z"/>
	</g>
</g>
</svg>
