<?xml version="1.0" encoding="utf-8"?>
<!-- Generator: Adobe Illustrator 25.0.0, SVG Export Plug-In . SVG Version: 6.00 Build 0)  -->
<svg version="1.1" id="Capa_1" xmlns="http://www.w3.org/2000/svg" xmlns:xlink="http://www.w3.org/1999/xlink" x="0px" y="0px"
	 viewBox="0 0 36.89 167.99" style="enable-background:new 0 0 36.89 167.99;" xml:space="preserve">
<style type="text/css">
	.st0{fill:#BB3E17;}
	.st1{fill:#76A4D8;}
	.st2{fill:#FFD405;}
	.st3{opacity:0.5;fill:#882912;enable-background:new    ;}
	.st4{fill:#793811;}
	.st5{opacity:0.5;}
	.st6{fill:#E9A967;}
	.st7{fill:#BA7435;}
	.st8{fill:#353738;}
	.st9{fill:#4D4F50;}
	.st10{fill:#6D7072;}
	.st11{fill:#FFFFFF;}
</style>
<g>
	<g>
		<path class="st0" d="M24.51,122.91c-0.01,0.18-0.08,1.07-0.43,5.56c-4.45,2.51-8.83-0.07-8.83-0.07l0.45-7.13
			c0,0-5.39,1.72-6.01,6.5c-0.61,4.78,1.33,9.29-1.59,16.55c-0.91,2.27-1.57,4.22-1.97,5.92c-0.27,2.38-0.15,8.69,8.75,9.55
			c6.86,0.66,10.75-1.81,12.7-3.77c0.02-0.12,0.05-0.23,0.06-0.34c1.15-8.34-1.6-9.82,0.89-18.34
			C31.02,128.85,29.82,124.98,24.51,122.91z"/>
	</g>
	<path class="st1" d="M24.51,122.91c-0.01,0.18-0.08,1.07-0.43,5.56c-4.45,2.51-8.83-0.07-8.83-0.07l0.45-7.13
		c0,0-5.39,1.72-6.01,6.5c-0.61,4.78,1.33,9.29-1.59,16.55c-0.91,2.27-1.57,4.22-1.97,5.92c-0.27,2.38-0.15,8.69,8.75,9.55
		c6.86,0.66,10.75-1.81,12.7-3.77c0.02-0.12,0.05-0.23,0.06-0.34c1.15-8.34-1.6-9.82,0.89-18.34
		C31.02,128.85,29.82,124.98,24.51,122.91z"/>
	<g>
		<path class="st1" d="M24.51,122.91c-0.01,0.18-0.08,1.07-0.43,5.56c-4.45,2.51-8.83-0.07-8.83-0.07l0.45-7.13
			c0,0-5.39,1.72-6.01,6.5c-0.01,0.05-0.01,0.1-0.02,0.15c0.31-0.29,0.61-0.48,0.88-0.52c1.59-0.25,1.96,4.29,0.61,15.08
			c0,0,2.94-7.72,6.99-7.48c4.05,0.24,5.27,4.78,6.13,9.32c1.84-4.05,1.84-0.61,1.96,4.54c0.12,5.15-1.72,8.95-10.3,8.09
			c-8.46-0.85-10.37-5.27-8.42-11.16c-0.62,1.65-1.09,3.13-1.4,4.45c-0.27,2.38-0.15,8.69,8.75,9.55c6.86,0.66,10.75-1.81,12.7-3.77
			c0.02-0.12,0.05-0.23,0.06-0.34c1.15-8.34-1.6-9.82,0.89-18.34C31.02,128.85,29.82,124.98,24.51,122.91z"/>
	</g>
	<path class="st2" d="M14.88,159.8c-8.89-0.86-9.02-7.18-8.75-9.55c-1.15,4.88-0.15,7.76,3.36,10.18c4.67,3.23,16.65,3.58,18.08-4.4
		C25.62,157.99,21.73,160.46,14.88,159.8z"/>
	<path class="st3" d="M9.69,160.56c0.24-0.31,0.61-0.5,1.16-0.48c2.06,0.09,3.81,1.23,5.92,1.2c2.08-0.02,4.07-0.33,5.97-1.22
		c0.79-0.37,2.18-1.08,3.01-0.36c0.91-0.95,1.56-2.16,1.83-3.67c-1.96,1.96-5.84,4.43-12.7,3.77c-8.89-0.86-9.02-7.18-8.75-9.55
		c-1.15,4.88-0.15,7.76,3.36,10.18C9.55,160.47,9.62,160.51,9.69,160.56z"/>
	<path class="st4" d="M25.02,140.64c-0.61-7.11-4.17-7.36-8.09-7.36s-4.66,6.25-4.66,6.25s0.39-6.16,0.25-9.54s0.09-8.54,6.38-7.7
		s8.78,3.15,7.89,9.53C25.9,138.22,25.02,140.64,25.02,140.64z"/>
	<g class="st5">
		<path class="st4" d="M18.9,122.3c-5.66-0.76-6.42,3.34-6.41,6.63c0.36-0.85,0.74-1.58,1.05-1.6c0.75-0.06,1.45,2.9,1.45,2.9
			s7.15,1.39,9.3-0.29c0.99,4.42,0.35,5.29,0.35,5.29s-1.63-2.96-6.51-2.73c-3.27,0.12-4.77,1.53-5.62,1.72
			c-0.08,2.74-0.24,5.32-0.24,5.32s0.73-6.25,4.66-6.25c3.92,0,7.48,0.25,8.09,7.36c0,0,0.88-2.43,1.77-8.81
			C27.68,125.45,25.2,123.15,18.9,122.3z"/>
	</g>
	<path class="st6" d="M24.09,128.47c0.34-4.48,0.41-5.38,0.43-5.56c-0.01,0-0.02-0.01-0.03-0.01c0.26-9.46,2.33-54.85,2.33-54.85
		s-4.91-3.87-8.26,0.84l-2.86,52.38l-0.45,7.13C15.25,128.4,19.63,130.98,24.09,128.47z"/>
	<g>
		<path class="st6" d="M26.82,68.05c0,0-4.91-3.87-8.26,0.84l-1.02,18.74c0.4-3.04,1.48-8.79,3.88-8.79c3.27,0,2.45,14.06,1.8,28.78
			c-0.6,13.4-6.48,14.46-7.03,4.66l-0.49,9l-0.45,7.13c0,0,4.38,2.58,8.83,0.07c0.34-4.48,0.41-5.38,0.43-5.56
			c-0.01,0-0.02-0.01-0.03-0.01C24.74,113.44,26.82,68.05,26.82,68.05z"/>
	</g>
	<g>
		<path class="st6" d="M19.24,78.64c2.1-1.67,4.97-0.44,5.84,1.94c0.46,1.26,0.78,2.6,1,3.97c0.41-9.28,0.74-16.5,0.74-16.5
			s-4.91-3.87-8.26,0.84l-0.63,11.52C18.25,79.73,18.65,79.1,19.24,78.64z"/>
	</g>
	<g>
		<path class="st6" d="M25.62,75.96c-0.11-1.71-0.67-10.68-1.33-26.91c-0.39-9.56-0.11-35.55-0.45-38.61s-5.56-2.5-5.56-2.5
			l-1.37,21.95c0,0,1.49,38.35,2.23,46.72C20.27,75.77,22.54,74.62,25.62,75.96z"/>
		<path class="st7" d="M19.14,76.61c0,0.01,0,0.01,0,0.02c2.08,1.72,6.5-0.37,6.5-0.37s-0.01-0.11-0.02-0.31
			C22.54,74.62,20.27,75.77,19.14,76.61z"/>
	</g>
	<g>
		<path class="st6" d="M19.8,7.98c-0.01-0.23-0.34-0.03-0.35,0.14c-0.15,4.85-0.27,9.69-0.77,14.53c-0.51,4.96-0.48,9.94-1.3,14.88
			c-0.07,0.4,0.5,0.19,0.55-0.09c1-4.9,0.88-9.92,1.32-14.88C19.69,17.71,19.93,12.85,19.8,7.98z"/>
		<path class="st6" d="M23.59,9.37c0-0.22-0.32-0.02-0.33,0.13c-0.19,4.18-0.34,8.36-0.58,12.53c-0.27,4.76-1.6,8.99-2.67,13.59
			c0.19-2.73,0.32-5.46,0.62-8.12c0.7-6.31,1.12-12.68,0.97-19.04c0-0.23-0.34-0.03-0.35,0.14c-0.18,6.67-0.59,13.31-1.32,19.95
			c-0.64,5.86-0.6,11.89-2.05,17.63c-0.1,0.38,0.46,0.17,0.54-0.09c0.95-3.3,1.31-6.77,1.57-10.25c0.07,0.16,0.45,0,0.5-0.21
			c0.52-1.94,1.09-3.87,1.58-5.81c0.42,1.9-0.05,4.29-0.12,6.2c-0.1,2.96-0.21,5.88-0.53,8.83c-0.31,2.8-0.8,5.54-1.46,8.28
			c-0.5,2.06-1.25,4.16-1.29,6.3c-0.01,0.27,0.4,0.05,0.43-0.12c0.92-5.5,2.5-10.76,3.04-16.35c0.23-2.37,0.3-4.75,0.32-7.13
			c0.01-2.01,0.49-4.45-0.1-6.39c-0.03-0.09-0.11-0.08-0.19-0.04c0.54-2.23,0.96-4.5,1.04-6.83C23.36,18.17,23.66,13.77,23.59,9.37z
			"/>
		<path class="st6" d="M23.9,35.25c-0.14,3.48-1.26,7.08-1.76,10.54c-0.49,3.37-0.81,6.75-1.04,10.15
			c-0.25,3.76-0.28,7.56-0.63,11.31c-0.27,2.89-0.94,5.85-0.26,8.72c0.07,0.32,0.63-0.07,0.56-0.37c-0.78-3.37,0.28-6.96,0.45-10.36
			c0.19-3.79,0.33-7.58,0.6-11.37c0.24-3.32,0.65-6.6,1.08-9.9c0.38-2.91,1.28-5.9,1.29-8.84C24.19,34.94,23.9,35.11,23.9,35.25z"/>
		<path class="st6" d="M24.33,51.31c0.01-0.2-0.31-0.04-0.33,0.09c-0.29,1.82-0.16,3.63-0.08,5.47c0.08,2.06-0.13,4.14-0.27,6.2
			c-0.27,4.19-0.62,8.37-0.61,12.57c0,0.34,0.52,0.05,0.53-0.21c0.02-3.9,0.33-7.81,0.56-11.71C24.39,59.58,24.05,55.43,24.33,51.31
			z"/>
	</g>
	<g>
		<path class="st6" d="M22.42,103.97c-0.07-4.09,0.24-8.35-0.68-12.36c-1-4.33-3.69-8.88-3.13-13.39c0.04-0.32-0.41-0.16-0.45,0.07
			c-0.6,3.74,1.11,7.02,2.15,10.51c1.42,4.8,1.33,9.58,1.41,14.52c0.07,4.4-0.27,8.76-0.32,13.16c-0.04,4.01-0.49,8.14-0.02,12.13
			c-0.14,0.2-0.18,0.44,0.08,0.44h0.14c0.23,0,0.52-0.21,0.49-0.47C21.07,120.51,22.55,112.09,22.42,103.97z"/>
		<path class="st6" d="M25.56,100.35c0-0.01,0-0.01,0-0.01c-0.56-3.6-1.51-7.11-2.64-10.56c-1.38-4.2-2.89-8.32-2.5-12.81
			c0.03-0.32-0.39-0.15-0.44,0.07c-0.64,3.43,0.27,6.83,1.26,10.09c1.38,4.55,2.77,8.94,3.65,13.63c0.08,0.44,0.74,0.07,0.69-0.27
			C25.57,100.44,25.56,100.4,25.56,100.35z"/>
		<path class="st6" d="M25.41,84.14c-0.54-2.4-1.52-4.55-2.35-6.86c-0.09-0.24-0.48,0.06-0.41,0.27c1.48,4.79,2.86,9.18,2.95,14.26
			c0.01,0.42,0.67,0.07,0.66-0.26C26.21,89.07,25.95,86.56,25.41,84.14z"/>
		<path class="st6" d="M17.89,90.89c-0.05-0.27-0.45-0.04-0.42,0.17c1.06,6.96,1.74,13.77,1.54,20.82
			c-0.1,3.55-0.09,7.08-0.41,10.62c-0.19,2.09-0.57,4.11-0.57,6.22c0,0.44,0.7,0.07,0.7-0.28c0-2.25,0.41-4.45,0.61-6.69
			c0.29-3.37,0.25-6.75,0.34-10.13C19.86,104.57,19.1,97.82,17.89,90.89z"/>
	</g>
	<g>
		<path class="st6" d="M19.3,53.66C18.97,40.25,20.28,20.14,22.57,19c0.78-0.39,1.21,0.58,1.45,2.03
			c-0.02-5.31-0.06-9.48-0.19-10.59c-0.34-3.06-5.56-2.5-5.56-2.5L16.9,29.89c0,0,1.49,38.35,2.23,46.72
			c1.13-0.84,3.4-1.99,6.48-0.66c-0.09-1.34-0.45-7.18-0.92-17.5C23.54,73.27,19.63,67.05,19.3,53.66z"/>
	</g>
	<g>
		<g>
			<g>
				<path class="st8" d="M21.69,73.34c-0.74-0.05-1.29-0.69-1.23-1.43c0.05-0.73,0.69-1.29,1.43-1.23c0.74,0.05,1.29,0.69,1.23,1.43
					C23.07,72.84,22.43,73.4,21.69,73.34z"/>
			</g>
			<g>
				<path class="st9" d="M21.91,73.17c-0.74-0.05-1.29-0.69-1.23-1.43c0.05-0.74,0.69-1.29,1.43-1.23c0.74,0.05,1.29,0.69,1.23,1.43
					C23.29,72.67,22.65,73.23,21.91,73.17z"/>
			</g>
			<g>
				<path class="st10" d="M23.05,71.02c-0.22-0.28-0.56-0.48-0.95-0.51c-0.73-0.05-1.38,0.5-1.43,1.23c-0.02,0.29,0.06,0.57,0.2,0.8
					C21.6,72.03,22.31,71.5,23.05,71.02z"/>
				<path class="st10" d="M23.34,71.94c0.01-0.22-0.03-0.44-0.11-0.63c-0.73,0.48-1.42,0.99-2.13,1.5c0.21,0.2,0.49,0.34,0.81,0.36
					C22.65,73.23,23.29,72.67,23.34,71.94z"/>
			</g>
		</g>
		<path class="st11" d="M21.19,71.43c0.37-0.52,0.85-0.8,1.48-0.54c0.08,0.04,0.11-0.07,0.04-0.11c-0.3-0.15-0.51-0.21-0.85-0.13
			c-0.38,0.09-0.65,0.35-0.84,0.67C20.96,71.42,21.13,71.51,21.19,71.43z"/>
		<path class="st11" d="M21.08,71.76c0-0.01,0-0.02,0-0.03c0.03-0.09-0.13-0.18-0.17-0.1c-0.02,0.04-0.02,0.05-0.02,0.09
			C20.89,71.82,21.09,71.89,21.08,71.76z"/>
	</g>
	<g>
		<path class="st0" d="M22.27,156.04c-3.29,0.84-6.45,1.09-9.75,0.12c-2.48-0.73-5.07-3.43-4.57-6.24c0.03-0.18-0.22-0.11-0.26,0.01
			c-0.67,2.09,0.81,4.56,2.5,5.69c3.62,2.39,8.08,2,12.05,0.86C22.44,156.42,22.56,155.96,22.27,156.04z"/>
		<path class="st0" d="M24.27,154.99c-0.23,0.19-0.51,0.3-0.74,0.5c-0.27,0.25,0.02,0.55,0.29,0.3c0.22-0.2,0.5-0.31,0.71-0.53
			C24.77,155.01,24.53,154.77,24.27,154.99z"/>
	</g>
</g>
</svg>
