<?xml version="1.0" encoding="utf-8"?>
<!-- Generator: Adobe Illustrator 25.0.0, SVG Export Plug-In . SVG Version: 6.00 Build 0)  -->
<svg version="1.1" id="Capa_1" xmlns="http://www.w3.org/2000/svg" xmlns:xlink="http://www.w3.org/1999/xlink" x="0px" y="0px"
	 viewBox="0 0 36.9 168" style="enable-background:new 0 0 36.9 168;" xml:space="preserve">
<style type="text/css">
	.st0{fill:#BB3E17;}
	.st1{fill:#76A4D8;}
	.st2{fill:#FFD405;}
	.st3{opacity:0.5;fill:#882912;enable-background:new    ;}
	.st4{fill:#793811;}
	.st5{opacity:0.5;}
	.st6{fill:#E9A967;}
	.st7{fill:#BA7435;}
	.st8{fill:#353738;}
	.st9{fill:#4D4F50;}
	.st10{fill:#6D7072;}
	.st11{fill:#FFFFFF;}
</style>
<g>
	<g>
		<path class="st0" d="M6.9,137.3c2.5,8.5-0.3,10,0.9,18.3c0,0.1,0,0.2,0.1,0.3c1.9,2,5.8,4.4,12.7,3.8c8.9-0.9,9-7.2,8.8-9.6
			c-0.4-1.7-1.1-3.6-2-5.9c-2.9-7.3-1-11.8-1.6-16.5c-0.6-4.8-6-6.5-6-6.5l0.4,7.1c0,0-4.4,2.6-8.8,0.1c-0.4-4.5-0.4-5.4-0.4-5.6
			C5.6,125,4.4,128.9,6.9,137.3z"/>
	</g>
	<path class="st1" d="M6.9,137.3c2.5,8.5-0.3,10,0.9,18.3c0,0.1,0,0.2,0.1,0.3c1.9,2,5.8,4.4,12.7,3.8c8.9-0.9,9-7.2,8.8-9.6
		c-0.4-1.7-1.1-3.6-2-5.9c-2.9-7.3-1-11.8-1.6-16.5c-0.6-4.8-6-6.5-6-6.5l0.4,7.1c0,0-4.4,2.6-8.8,0.1c-0.4-4.5-0.4-5.4-0.4-5.6
		C5.6,125,4.4,128.9,6.9,137.3z"/>
	<g>
		<path class="st1" d="M6.9,137.3c2.5,8.5-0.3,10,0.9,18.3c0,0.1,0,0.2,0.1,0.3c1.9,2,5.8,4.4,12.7,3.8c8.9-0.9,9-7.2,8.8-9.6
			c-0.3-1.3-0.8-2.8-1.4-4.4c1.9,5.9,0,10.3-8.4,11.2c-8.6,0.9-10.4-2.9-10.3-8.1c0.1-5.1,0.1-8.6,2-4.5c0.9-4.5,2.1-9.1,6.1-9.3
			s7,7.5,7,7.5c-1.4-10.8-1-15.3,0.6-15.1c0.3,0,0.6,0.2,0.9,0.5c0-0.1,0-0.1,0-0.2c-0.6-4.8-6-6.5-6-6.5l0.4,7.1
			c0,0-4.4,2.6-8.8,0.1c-0.4-4.5-0.4-5.4-0.4-5.6C5.6,125,4.4,128.9,6.9,137.3z"/>
	</g>
	<path class="st2" d="M7.9,156c1.4,8,13.4,7.6,18.1,4.4c3.5-2.4,4.5-5.3,3.4-10.2c0.3,2.4,0.1,8.7-8.8,9.6
		C13.7,160.5,9.8,158,7.9,156z"/>
	<path class="st3" d="M26,160.4c3.5-2.4,4.5-5.3,3.4-10.2c0.3,2.4,0.1,8.7-8.8,9.6c-6.9,0.7-10.7-1.8-12.7-3.8
		c0.3,1.5,0.9,2.7,1.8,3.7c0.8-0.7,2.2,0,3,0.4c1.9,0.9,3.9,1.2,6,1.2c2.1,0,3.9-1.1,5.9-1.2c0.5,0,0.9,0.2,1.2,0.5
		C25.8,160.5,25.9,160.5,26,160.4z"/>
	<path class="st4" d="M8.7,131.8c-0.9-6.4,1.6-8.7,7.9-9.5s6.5,4.3,6.4,7.7c-0.1,3.4,0.2,9.5,0.2,9.5s-0.7-6.2-4.7-6.2
		s-7.5,0.2-8.1,7.4C10.4,140.6,9.5,138.2,8.7,131.8z"/>
	<g class="st5">
		<path class="st4" d="M8.7,131.8c0.9,6.4,1.8,8.8,1.8,8.8c0.6-7.1,4.2-7.4,8.1-7.4c3.9,0,4.7,6.2,4.7,6.2s-0.2-2.6-0.2-5.3
			c-0.9-0.2-2.4-1.6-5.6-1.7c-4.9-0.2-6.5,2.7-6.5,2.7s-0.6-0.9,0.4-5.3c2.2,1.7,9.3,0.3,9.3,0.3s0.7-3,1.5-2.9c0.3,0,0.7,0.7,1,1.6
			c0-3.3-0.8-7.4-6.4-6.6C10.2,123.2,7.8,125.4,8.7,131.8z"/>
	</g>
	<path class="st6" d="M20.2,128.4l-0.4-7.1l-2.9-52.4c-3.3-4.7-8.3-0.8-8.3-0.8s2.1,45.4,2.3,54.8c0,0,0,0,0,0
		c0,0.2,0.1,1.1,0.4,5.6C15.8,131,20.2,128.4,20.2,128.4z"/>
	<g>
		<path class="st6" d="M11,122.9C11,122.9,10.9,122.9,11,122.9c0,0.2,0.1,1.1,0.4,5.6c4.5,2.5,8.8-0.1,8.8-0.1l-0.5-7.1l-0.5-9
			c-0.6,9.8-6.4,8.7-7-4.7c-0.7-14.7-1.5-28.8,1.8-28.8c2.4,0,3.5,5.8,3.9,8.8l-1-18.7c-3.3-4.7-8.3-0.8-8.3-0.8
			S10.7,113.4,11,122.9z"/>
	</g>
	<g>
		<path class="st6" d="M17.5,80.4l-0.6-11.5c-3.3-4.7-8.3-0.8-8.3-0.8S9,75.3,9.4,84.6c0.2-1.4,0.5-2.7,1-4c0.9-2.4,3.7-3.6,5.8-1.9
			C16.8,79.1,17.2,79.7,17.5,80.4z"/>
	</g>
	<g>
		<path class="st6" d="M16.3,76.6c0.7-8.4,2.2-46.7,2.2-46.7l-1.4-22c0,0-5.2-0.6-5.6,2.5s-0.1,29-0.5,38.6
			C10.5,65.3,9.9,74.2,9.8,76C12.9,74.6,15.2,75.8,16.3,76.6z"/>
		<path class="st7" d="M9.8,75.9c0,0.2,0,0.3,0,0.3s4.4,2.1,6.5,0.4c0,0,0,0,0,0C15.2,75.8,12.9,74.6,9.8,75.9z"/>
	</g>
	<g>
		<path class="st6" d="M16.2,22.6c0.4,5,0.3,10,1.3,14.9c0,0.3,0.6,0.5,0.5,0.1c-0.8-4.9-0.8-9.9-1.3-14.9C16.3,17.8,16.1,13,16,8.1
			c0-0.2-0.3-0.4-0.4-0.1C15.5,12.9,15.8,17.7,16.2,22.6z"/>
		<path class="st6" d="M12.2,22.6c0.1,2.3,0.5,4.6,1,6.8c-0.1,0-0.2,0-0.2,0c-0.6,1.9-0.1,4.4-0.1,6.4c0,2.4,0.1,4.8,0.3,7.1
			c0.5,5.6,2.1,10.8,3,16.3c0,0.2,0.4,0.4,0.4,0.1c0-2.1-0.8-4.2-1.3-6.3c-0.7-2.7-1.2-5.5-1.5-8.3c-0.3-2.9-0.4-5.9-0.5-8.8
			c-0.1-1.9-0.5-4.3-0.1-6.2c0.5,1.9,1.1,3.9,1.6,5.8c0,0.2,0.4,0.4,0.5,0.2c0.3,3.5,0.6,7,1.6,10.2c0.1,0.3,0.6,0.5,0.5,0.1
			c-1.4-5.7-1.4-11.8-2-17.6c-0.7-6.6-1.1-13.3-1.3-20c0-0.2-0.4-0.4-0.4-0.1c-0.2,6.4,0.3,12.7,1,19c0.3,2.7,0.4,5.4,0.6,8.1
			C14.4,31,13,26.8,12.8,22c-0.2-4.2-0.4-8.3-0.6-12.5c0-0.2-0.3-0.4-0.3-0.1C11.8,13.8,12.1,18.2,12.2,22.6z"/>
		<path class="st6" d="M11.3,35.1c0,2.9,0.9,5.9,1.3,8.8c0.4,3.3,0.8,6.6,1.1,9.9c0.3,3.8,0.4,7.6,0.6,11.4c0.2,3.4,1.2,7,0.5,10.4
			c-0.1,0.3,0.5,0.7,0.6,0.4c0.7-2.9,0-5.8-0.3-8.7c-0.3-3.7-0.4-7.5-0.6-11.3c-0.2-3.4-0.6-6.8-1-10.2c-0.5-3.5-1.6-7.1-1.8-10.5
			C11.5,35.1,11.3,34.9,11.3,35.1z"/>
		<path class="st6" d="M11.3,63.7c0.2,3.9,0.5,7.8,0.6,11.7c0,0.3,0.5,0.5,0.5,0.2c0-4.2-0.3-8.4-0.6-12.6c-0.1-2.1-0.4-4.1-0.3-6.2
			c0.1-1.8,0.2-3.7-0.1-5.5c0-0.1-0.3-0.3-0.3-0.1C11.4,55.4,11.1,59.6,11.3,63.7z"/>
	</g>
	<g>
		<path class="st6" d="M13.4,128.6c0,0.3,0.3,0.5,0.5,0.5H14c0.3,0,0.2-0.2,0.1-0.4c0.5-4,0-8.1,0-12.1c0-4.4-0.4-8.8-0.3-13.2
			c0.1-4.9,0-9.7,1.4-14.5c1-3.5,2.7-6.8,2.1-10.5c0-0.2-0.5-0.4-0.5-0.1c0.6,4.5-2.1,9.1-3.1,13.4c-0.9,4-0.6,8.3-0.7,12.4
			C12.9,112.1,14.4,120.5,13.4,128.6z"/>
		<path class="st6" d="M9.9,100.5c0,0.3,0.6,0.7,0.7,0.3c0.9-4.7,2.3-9.1,3.6-13.6c1-3.3,1.9-6.7,1.3-10.1C15.4,76.8,15,76.7,15,77
			c0.4,4.5-1.1,8.6-2.5,12.8c-1.1,3.4-2.1,7-2.6,10.6c0,0,0,0,0,0C9.9,100.4,9.9,100.4,9.9,100.5z"/>
		<path class="st6" d="M9.2,91.5c0,0.3,0.6,0.7,0.7,0.3c0.1-5.1,1.5-9.5,3-14.3c0.1-0.2-0.3-0.5-0.4-0.3c-0.8,2.3-1.8,4.5-2.4,6.9
			C9.5,86.6,9.2,89.1,9.2,91.5z"/>
		<path class="st6" d="M15.8,111.6c0.1,3.4,0,6.8,0.3,10.1c0.2,2.2,0.6,4.4,0.6,6.7c0,0.4,0.7,0.7,0.7,0.3c0-2.1-0.4-4.1-0.6-6.2
			c-0.3-3.5-0.3-7.1-0.4-10.6c-0.2-7,0.5-13.9,1.5-20.8c0-0.2-0.4-0.4-0.4-0.2C16.3,97.8,15.6,104.6,15.8,111.6z"/>
	</g>
	<g>
		<path class="st6" d="M10.8,58.4c-0.5,10.3-0.8,16.2-0.9,17.5c3.1-1.3,5.4-0.2,6.5,0.7c0.7-8.4,2.2-46.7,2.2-46.7L17.2,7.9
			c0,0-5.2-0.6-5.6,2.5c-0.1,1.1-0.2,5.3-0.2,10.6c0.2-1.5,0.7-2.4,1.5-2c2.3,1.1,3.6,21.2,3.3,34.7C15.8,67.1,11.9,73.3,10.8,58.4z
			"/>
	</g>
	<g>
		<g>
			<g>
				<path class="st8" d="M12.3,72.1c-0.1-0.7,0.5-1.4,1.2-1.4c0.7-0.1,1.4,0.5,1.4,1.2c0.1,0.7-0.5,1.4-1.2,1.4
					C13,73.4,12.4,72.8,12.3,72.1z"/>
			</g>
			<g>
				<path class="st9" d="M12.1,71.9c-0.1-0.7,0.5-1.4,1.2-1.4c0.7-0.1,1.4,0.5,1.4,1.2c0.1,0.7-0.5,1.4-1.2,1.4
					C12.8,73.2,12.2,72.7,12.1,71.9z"/>
			</g>
			<g>
				<path class="st10" d="M14.6,72.5c0.1-0.2,0.2-0.5,0.2-0.8c-0.1-0.7-0.7-1.3-1.4-1.2c-0.4,0-0.7,0.2-1,0.5
					C13.1,71.5,13.8,72,14.6,72.5z"/>
				<path class="st10" d="M13.5,73.2c0.3,0,0.6-0.2,0.8-0.4c-0.7-0.5-1.4-1-2.1-1.5c-0.1,0.2-0.1,0.4-0.1,0.6
					C12.2,72.7,12.8,73.2,13.5,73.2z"/>
			</g>
		</g>
		<path class="st11" d="M14.4,71.3c-0.2-0.3-0.5-0.6-0.8-0.7c-0.3-0.1-0.6,0-0.9,0.1c-0.1,0,0,0.2,0,0.1c0.6-0.3,1.1,0,1.5,0.5
			C14.3,71.5,14.5,71.4,14.4,71.3z"/>
		<path class="st11" d="M14.6,71.7C14.6,71.7,14.6,71.7,14.6,71.7c-0.1-0.2-0.2-0.1-0.2,0c0,0,0,0,0,0
			C14.4,71.9,14.6,71.8,14.6,71.7z"/>
	</g>
	<g>
		<path class="st0" d="M13.2,156.5c4,1.1,8.4,1.5,12.1-0.9c1.7-1.1,3.2-3.6,2.5-5.7c0-0.1-0.3-0.2-0.3,0c0.5,2.8-2.1,5.5-4.6,6.2
			c-3.3,1-6.5,0.7-9.7-0.1C12.9,156,13,156.4,13.2,156.5z"/>
		<path class="st0" d="M10.9,155.3c0.2,0.2,0.5,0.3,0.7,0.5c0.3,0.2,0.6-0.1,0.3-0.3c-0.2-0.2-0.5-0.3-0.7-0.5
			C10.9,154.8,10.7,155,10.9,155.3z"/>
	</g>
</g>
</svg>
