<?xml version="1.0" encoding="utf-8"?>
<!-- Generator: Adobe Illustrator 25.0.0, SVG Export Plug-In . SVG Version: 6.00 Build 0)  -->
<svg version="1.1" id="Layer_1" xmlns="http://www.w3.org/2000/svg" xmlns:xlink="http://www.w3.org/1999/xlink" x="0px" y="0px"
	 viewBox="0 0 42 84" style="enable-background:new 0 0 42 84;" xml:space="preserve">
<style type="text/css">
	.st0{fill-rule:evenodd;clip-rule:evenodd;fill:#C7BAAA;}
	.st1{fill-rule:evenodd;clip-rule:evenodd;fill:#A39589;}
	.st2{fill-rule:evenodd;clip-rule:evenodd;fill:#D9CDC0;}
</style>
<path class="st0" d="M19.6,29c0,0,2.3-7.3,3.5-8c0,0,1-4.4,2.4-5.6c0,0-0.1-3.4,2.2-4.7c0,0,1.3-3.7,2.7-4.6s5.1,2.4,5.8,3.8
	c0.8,1.5-1.7,4.2-1.7,4.2s-0.6,2.7-2.3,4.3c0,0-0.2,2.5-2.3,4.1c0,0-0.2,2.7-1.5,4.1c0,0,0.1,2.6-2.6,5.3c0,0-0.3,5-3.7,7
	C18.7,40.8,19.6,29,19.6,29L19.6,29z"/>
<path class="st0" d="M10.5,50.1c-2,1.1-2.9-1-2.4-3.1c0,0-1.4-2.3-0.6-3.9C8.4,41.6,9.8,42,9.8,42s1.5-1.9,3.4-0.4
	c0,0,1.7-1.8,3.7-0.3c0,0,1-1.1,2.8-0.1c0,0,1.7-0.8,3.5,0.4c0,0,2.2-0.8,2.9,2.3c0.7,3.2-0.6,8.2-4,6.5c0,0-2.1,0.9-3.3-0.3
	c0,0-2,0.8-3.5-0.2C15.2,49.9,12.1,52.1,10.5,50.1L10.5,50.1z"/>
<path class="st1" d="M10.5,50.1c-2,1.1-2.9-1-2.4-3.1c0,0-1.4-2.3-0.6-3.9C8.4,41.6,9.8,42,9.8,42c-2.1,2.4-0.9,4.1-0.9,4.1
	c0.8-0.9,1.2-0.9,1.2-0.9s-1.4,2.9-0.2,3.3s2.1-2.8,2.1-2.8c-0.1,2-0.6,2.9-0.6,2.9c2.6,2.4,4.6-2.6,4.6-2.6
	c0.1,1.8-0.3,2.7-0.3,2.7c2.8,1,5.3-2.1,5.3-2.1c-0.4,1.8-1.5,2.7-1.5,2.7c1.4,0.6,3-0.2,3-0.2c0.1,1.3,1.3,1.7,1.3,1.7
	c-0.5,0.1-1.2,0.1-1.9-0.3c0,0-2.1,0.9-3.3-0.3c0,0-2,0.8-3.5-0.2C15.2,49.9,12.1,52.1,10.5,50.1L10.5,50.1z"/>
<path class="st0" d="M10.3,58.5c-2.1,0.9-2.8-1.3-2.2-3.3c0,0-1.2-2.4-0.3-3.9c0.9-1.4,2.2-0.9,2.2-0.9s1.7-1.7,3.4-0.1
	c0,0,1.9-1.6,3.7,0.1c0,0,1.2-1,2.8,0.1c0,0,1.7-0.6,3.4,0.7c0,0,2.2-0.6,2.8,2.6c0.5,3.2-1.3,8.1-4.4,6.2c0,0-2.2,0.7-3.3-0.6
	c0,0-2,0.6-3.5-0.6C14.9,58.7,11.7,60.7,10.3,58.5L10.3,58.5z"/>
<path class="st1" d="M10.3,58.5c-2.1,0.9-2.8-1.3-2.2-3.3c0,0-1.2-2.4-0.3-3.9c0.9-1.4,2.2-0.9,2.2-0.9c-2.2,2.3-1.2,4-1.2,4
	c0.8-0.8,1.2-0.8,1.2-0.8s-1.6,2.8-0.4,3.2c1.2,0.5,2.3-2.6,2.3-2.6c-0.3,2-0.8,2.9-0.8,2.9c2.4,2.6,4.8-2.2,4.8-2.2
	c0,1.8-0.5,2.6-0.5,2.6c2.7,1.2,5.5-1.6,5.5-1.6c-0.5,1.7-1.7,2.5-1.7,2.5c1.3,0.8,3,0.1,3,0.1c0.1,1.3,1.2,1.7,1.3,1.8
	c-0.6,0.1-1.2,0-1.9-0.4c0,0-2.2,0.7-3.3-0.6c0,0-2,0.6-3.5-0.6C14.9,58.7,11.7,60.7,10.3,58.5L10.3,58.5z"/>
<path class="st0" d="M10.3,67.5c-2.1,1-2.8-1.2-2.2-3.3c0,0-1.2-2.4-0.3-3.9c0.9-1.4,2.2-1,2.2-1s1.7-1.7,3.4-0.1
	c0,0,1.9-1.6,3.7,0.1c0,0,1.2-1,2.8,0.1c0,0,1.7-0.6,3.4,0.7c0,0,2.2-0.6,2.8,2.6c0.5,3.2-1.3,8.2-4.4,6.2c0,0-2.2,0.8-3.3-0.6
	c0,0-2,0.6-3.5-0.5C14.9,67.7,11.7,69.6,10.3,67.5L10.3,67.5z"/>
<path class="st1" d="M10.3,67.5c-2.1,1-2.8-1.2-2.2-3.3c0,0-1.2-2.4-0.3-3.9c0.9-1.4,2.2-1,2.2-1c-2.2,2.3-1.2,4-1.2,4
	c0.8-0.8,1.2-0.8,1.2-0.8s-1.6,2.8-0.4,3.2c1.2,0.4,2.3-2.6,2.3-2.6c-0.3,2-0.8,2.8-0.8,2.8c2.4,2.7,4.8-2.2,4.8-2.2
	c0,1.8-0.5,2.6-0.5,2.6c2.7,1.2,5.5-1.6,5.5-1.6c-0.5,1.8-1.7,2.6-1.7,2.6c1.3,0.8,3,0,3,0c0.1,1.4,1.2,1.8,1.3,1.8
	c-0.6,0.1-1.2,0-1.9-0.4c0,0-2.2,0.8-3.3-0.6c0,0-2,0.6-3.5-0.5C14.9,67.7,11.7,69.6,10.3,67.5L10.3,67.5z"/>
<path class="st0" d="M10.3,76.4c-2.1,1-2.8-1.2-2.2-3.2c0,0-1.2-2.5-0.3-3.9c0.9-1.4,2.2-0.9,2.2-0.9s1.7-1.7,3.4-0.1
	c0,0,1.9-1.7,3.7,0c0,0,1.2-1,2.8,0.1c0,0,1.7-0.6,3.4,0.7c0,0,2.2-0.6,2.8,2.6c0.5,3.2-1.3,8.1-4.4,6.2c0,0-2.2,0.7-3.3-0.7
	c0,0-2,0.7-3.5-0.5C14.9,76.6,11.7,78.6,10.3,76.4L10.3,76.4z"/>
<path class="st1" d="M10.3,76.4c-2.1,1-2.8-1.2-2.2-3.2c0,0-1.2-2.5-0.3-3.9c0.9-1.4,2.2-0.9,2.2-0.9c-2.2,2.2-1.2,4-1.2,4
	c0.8-0.8,1.2-0.8,1.2-0.8s-1.6,2.8-0.4,3.2c1.2,0.5,2.3-2.6,2.3-2.6c-0.3,2-0.8,2.9-0.8,2.9c2.4,2.6,4.8-2.2,4.8-2.2
	c0,1.8-0.5,2.6-0.5,2.6c2.7,1.2,5.5-1.6,5.5-1.6c-0.5,1.7-1.7,2.5-1.7,2.5c1.3,0.8,3,0.1,3,0.1c0.1,1.3,1.2,1.7,1.3,1.8
	c-0.6,0.1-1.2,0-1.9-0.4c0,0-2.2,0.7-3.3-0.7c0,0-2,0.7-3.5-0.5C14.9,76.6,11.7,78.6,10.3,76.4L10.3,76.4z"/>
<path class="st2" d="M33.8,13.2c0,0-0.6,2.7-2.3,4.3c0,0-0.2,2.5-2.3,4.1c0,0-0.2,2.7-1.4,4.1c0,0,0.1,2.6-2.6,5.3
	c0,0-0.1,1-0.5,2.3c0.2,0.4,0.4,0.8,0.6,1.2c0.5-1.4,0.5-2.6,0.5-2.6c2.7-2.7,2.6-5.3,2.6-5.3c1.3-1.4,1.5-4.1,1.5-4.1
	c2.1-1.6,2.3-4.1,2.3-4.1c1.7-1.6,2.3-4.3,2.3-4.3s2.5-2.7,1.7-4.2c-0.1-0.3-0.5-0.7-0.8-1c0.1,0.1,0.1,0.1,0.1,0.3
	C36.3,10.5,33.8,13.2,33.8,13.2L33.8,13.2z"/>
<path class="st2" d="M19.8,59.9c0,0,1.7-0.6,3.4,0.7c0,0,2.2-0.6,2.8,2.6c0.2,1.4,0,3.2-0.6,4.5c0.8-1.4,1.1-3.4,0.8-5.1
	c-0.5-3.2-2.8-2.6-2.8-2.6c-1.7-1.3-3.4-0.7-3.4-0.7c-1.7-1.2-2.8-0.1-2.8-0.1c-1.8-1.7-3.7-0.1-3.7-0.1c-1.7-1.6-3.4,0.1-3.4,0.1
	s-1.4-0.5-2.2,1c-0.1,0.1-0.2,0.3-0.3,0.4c0.9-1.3,2.2-0.8,2.2-0.8s1.7-1.7,3.4-0.1c0,0,1.9-1.7,3.7,0C16.9,59.8,18,58.7,19.8,59.9
	L19.8,59.9z"/>
<path class="st2" d="M23.4,69c-1.7-1.3-3.4-0.7-3.4-0.7c-1.7-1.1-2.8-0.1-2.8-0.1c-1.8-1.7-3.7,0-3.7,0c-1.7-1.6-3.4,0.1-3.4,0.1
	s-1.4-0.6-2.2,0.9c-0.1,0.1-0.2,0.4-0.2,0.5c0.9-1.3,2.2-0.8,2.2-0.8s1.7-1.7,3.4-0.1c0,0,1.9-1.6,3.7,0.1c0,0,1.1-1,2.8,0.1
	c0,0,1.7-0.6,3.4,0.7c0,0,2.2-0.6,2.8,2.6c0.2,1.4,0,3.1-0.6,4.5c0.8-1.4,1.1-3.5,0.8-5.1C25.7,68.4,23.4,69,23.4,69L23.4,69z"/>
<path class="st2" d="M22.8,42.1c0,0,2.2-0.8,3,2.3c0.3,1.5,0.2,3.5-0.5,4.9c0.9-1.5,1.1-3.7,0.7-5.5c-0.7-3.2-2.9-2.3-2.9-2.3
	c-1.8-1.2-3.5-0.4-3.5-0.4c-1.8-1-2.8,0.1-2.8,0.1c-1.9-1.5-3.7,0.3-3.7,0.3C11.3,40.1,9.8,42,9.8,42s-1.5-0.4-2.2,1.1
	c-0.1,0.1-0.1,0.2-0.1,0.3c0.8-1.2,2.1-0.8,2.1-0.8s1.5-1.9,3.4-0.4c0,0,1.8-1.8,3.7-0.3c0,0,1.1-1.1,2.9-0.1
	C19.4,41.7,21.1,40.9,22.8,42.1L22.8,42.1z"/>
<path class="st2" d="M17.2,50.3c-1.8-1.7-3.7-0.1-3.7-0.1c-1.7-1.6-3.4,0.1-3.4,0.1s-1.4-0.6-2.2,0.9c-0.1,0.1-0.2,0.3-0.3,0.5
	c0.9-1.3,2.2-0.8,2.2-0.8s1.7-1.7,3.4-0.1c0,0,1.9-1.6,3.7,0.1c0,0,1.1-1,2.8,0.1c0,0,1.7-0.6,3.4,0.6c0,0,2.2-0.6,2.8,2.6
	c0.2,1.4,0,3.2-0.6,4.5c0.8-1.4,1.1-3.5,0.8-5.1c-0.5-3.3-2.8-2.6-2.8-2.6c-1.7-1.3-3.4-0.7-3.4-0.7C18.3,49.2,17.2,50.3,17.2,50.3
	L17.2,50.3z"/>
</svg>
