<?xml version="1.0" encoding="utf-8"?>
<!-- Generator: Adobe Illustrator 25.0.0, SVG Export Plug-In . SVG Version: 6.00 Build 0)  -->
<svg version="1.1" id="Capa_1" xmlns="http://www.w3.org/2000/svg" xmlns:xlink="http://www.w3.org/1999/xlink" x="0px" y="0px"
	 viewBox="0 0 128 128" style="enable-background:new 0 0 128 128;" xml:space="preserve">
<style type="text/css">
	.st0{fill:#404040;}
	.st1{fill:#383838;}
	.st2{fill:#6E6E6E;}
	.st3{fill:#EAEAEA;}
	.st4{fill:#AFAEAE;}
	.st5{fill:#FFFFFF;}
	.st6{fill:#424241;}
	.st7{fill:#424242;}
	.st8{fill:#ED7770;}
	.st9{fill:none;stroke:#404040;stroke-width:2.3131;stroke-linecap:round;stroke-linejoin:round;stroke-miterlimit:10;}
</style>
<path class="st0" d="M22.13,38.83c-8.71,0-15.79-7.08-15.79-15.79S13.43,7.25,22.13,7.25s15.79,7.08,15.79,15.79
	S30.84,38.83,22.13,38.83z"/>
<path class="st1" d="M22.13,8.75c7.88,0,14.29,6.41,14.29,14.29s-6.41,14.29-14.29,14.29S7.84,30.92,7.84,23.04
	S14.26,8.75,22.13,8.75 M22.13,5.75c-9.55,0-17.29,7.74-17.29,17.29s7.74,17.29,17.29,17.29s17.29-7.74,17.29-17.29
	S31.68,5.75,22.13,5.75L22.13,5.75z"/>
<circle class="st2" cx="22.13" cy="23.04" r="9.86"/>
<path class="st0" d="M105.87,38.83c-8.71,0-15.79-7.08-15.79-15.79s7.08-15.79,15.79-15.79s15.79,7.08,15.79,15.79
	S114.57,38.83,105.87,38.83z"/>
<path class="st1" d="M105.87,8.75c7.88,0,14.29,6.41,14.29,14.29s-6.41,14.29-14.29,14.29s-14.29-6.41-14.29-14.29
	S97.99,8.75,105.87,8.75 M105.87,5.75c-9.55,0-17.29,7.74-17.29,17.29s7.74,17.29,17.29,17.29s17.29-7.74,17.29-17.29
	S115.41,5.75,105.87,5.75L105.87,5.75z"/>
<circle class="st2" cx="105.87" cy="23.04" r="9.86"/>
<path class="st3" d="M64,120.75c-36.94,0-58.13-17.41-58.13-47.76c0-15.89,5.53-31.73,15.18-43.46C28.62,20.33,42.21,9.36,64,9.36
	s35.38,10.97,42.95,20.17c9.65,11.73,15.18,27.57,15.18,43.46C122.13,103.34,100.94,120.75,64,120.75z"/>
<path class="st4" d="M64,10.86c21.2,0,34.43,10.67,41.79,19.63c9.43,11.47,14.84,26.96,14.84,42.51c0,14.7-4.94,26.19-14.67,34.15
	c-9.68,7.92-24.19,12.11-41.95,12.11s-32.27-4.19-41.95-12.11C12.31,99.18,7.37,87.69,7.37,72.99c0-15.55,5.41-31.04,14.84-42.51
	C29.57,21.53,42.8,10.86,64,10.86 M64,7.86C25.89,7.86,4.37,41.4,4.37,72.99S26.56,122.25,64,122.25s59.63-17.67,59.63-49.26
	S102.11,7.86,64,7.86L64,7.86z"/>
<path class="st0" d="M19.63,87.59c8.35,6.29,20.48,2.1,27.08-9.36s5.18-25.85-3.18-32.15s-20.48-2.1-27.08,9.36
	S11.28,81.3,19.63,87.59z"/>
<ellipse transform="matrix(0.2448 -0.9696 0.9696 0.2448 -32.138 82.4972)" class="st5" cx="36.89" cy="61.88" rx="7.43" ry="6.04"/>
<path class="st6" d="M108.37,87.59c-8.35,6.29-20.48,2.1-27.08-9.36s-5.18-25.85,3.18-32.15s20.48-2.1,27.08,9.36
	C118.14,66.91,116.72,81.3,108.37,87.59z"/>
<ellipse transform="matrix(0.9696 -0.2448 0.2448 0.9696 -12.3749 24.1894)" class="st5" cx="91.12" cy="61.88" rx="6.04" ry="7.43"/>
<path id="SVGID_3_" class="st7" d="M75.12,94.15l0.01,0.69c0.03,1.92-0.42,3.73-1.25,5.32c-0.33,0.64-0.72,1.24-1.17,1.79
	c-0.44,0.56-0.94,1.07-1.48,1.53c-1.9,1.62-4.35,2.61-7.03,2.66l0,0c-0.34,0.01-0.67,0-1-0.03c-0.33-0.02-0.65-0.06-0.97-0.11
	c-0.96-0.16-1.88-0.43-2.75-0.82c-0.86-0.39-1.67-0.88-2.4-1.46c-0.56-0.44-1.07-0.94-1.53-1.48s-0.87-1.13-1.23-1.75
	c-0.88-1.56-1.4-3.36-1.43-5.28l-0.01-0.69c4.94-0.08,11.08-2.81,10.99-8.37l0,0l0,0l0,0C63.95,91.71,70.17,94.24,75.12,94.15z"/>
<path class="st8" d="M56.67,103.34c4.02,3.82,10.99,3.72,14.91-0.2C68.37,97.71,59.75,97.84,56.67,103.34z"/>
<path class="st9" d="M63.9,84.29c0.09,5.31-4.15,9.69-9.46,9.78c-2.43,0.04-4.66-0.82-6.38-2.28"/>
<path class="st9" d="M63.86,84.29c0.09,5.31,4.47,9.55,9.78,9.46c2.43-0.04,4.63-0.98,6.3-2.49"/>
<path class="st0" d="M64,86.83c4.68,0,7.43-2.02,9.02-4.45c1.59-2.43-0.2-5.38-3.11-5.38H58.09c-2.9,0-4.7,2.95-3.11,5.38
	C56.57,84.81,59.32,86.83,64,86.83z"/>
</svg>
