<?xml version="1.0" encoding="utf-8"?>
<!-- Generator: Adobe Illustrator 25.0.0, SVG Export Plug-In . SVG Version: 6.00 Build 0)  -->
<svg version="1.1" id="Capa_1" xmlns="http://www.w3.org/2000/svg" xmlns:xlink="http://www.w3.org/1999/xlink" x="0px" y="0px"
	 viewBox="0 0 60 44" style="enable-background:new 0 0 60 44;" xml:space="preserve">
<style type="text/css">
	.st0{fill:#E9A967;}
	.st1{fill:#CA864A;}
	.st2{fill:#BA7435;}
	.st3{opacity:0.5;fill:#BA7435;enable-background:new    ;}
</style>
<path class="st0" d="M6.78,10.48l4.27,25.02c0,0,5.09,4.07,19.73,3.15c14.65-0.92,22.68-6.41,22.68-6.41l1.42-24L6.78,10.48z"/>
<g>
	<path class="st0" d="M45.43,19.7c0.17-2.28,0.19-4.8,0.8-7.02c0.04-0.13-0.16-0.06-0.19,0.03c-0.71,2.34-0.77,5.04-0.96,7.47
		c-0.13,1.56-0.29,3.13-0.4,4.71c-0.05-0.57-0.11-1.13-0.17-1.7c-0.2-1.95-0.39-3.9-0.52-5.85c-0.06-0.93-0.04-1.86-0.05-2.79
		c-0.01-0.62,0.11-1.26-0.16-1.84c-0.05-0.11-0.24,0.03-0.2,0.13c0.26,0.64,0.09,1.61,0.08,2.29c-0.01,0.94-0.02,1.86,0.03,2.79
		c0.1,1.81,0.28,3.61,0.45,5.41c0.18,1.82,0.31,3.62,0.4,5.45c0.1,2.02-0.01,3.99-0.04,6c0,0.19,0.3,0.04,0.32-0.09
		c0.29-2.32,0.25-4.67,0.09-7.02v-0.01C44.98,25.02,45.23,22.35,45.43,19.7z"/>
	<path class="st0" d="M40.17,24.74c-0.08-2.02-0.34-4.04-0.66-6.04c-0.17-1.05-0.39-2.06-0.47-3.12c-0.05-0.71,0.07-1.45-0.16-2.13
		c-0.04-0.13-0.24,0.03-0.22,0.14c0.2,0.8,0.03,1.74,0.08,2.56c0.05,0.91,0.27,1.8,0.41,2.7c0.29,1.85,0.51,3.71,0.62,5.58
		c0.11,1.85,0.13,3.72,0.19,5.57c0.02,0.87,0.03,1.75,0.05,2.62c0.02,1.16-0.24,2.27-0.33,3.42c-0.02,0.24,0.3,0.11,0.33-0.05
		C40.68,32.28,40.32,28.47,40.17,24.74z"/>
	<path class="st0" d="M37.88,25.05c-0.13-2.12-0.36-4.23-0.66-6.34c-0.14-1-0.3-2.01-0.46-3.01c-0.09-0.62-0.12-1.36-0.41-1.93
		c-0.06-0.12-0.25,0.03-0.21,0.14c0.56,1.65,0.56,3.67,0.79,5.39c0.25,1.96,0.43,3.93,0.56,5.91c0.26,4.15,0.47,8.26,0.51,12.42
		c0,0.07,0.02,0.1,0.07,0.11c0.12,0.04,0.35-0.12,0.34-0.27C38.45,33.31,38.14,29.2,37.88,25.05z"/>
	<path class="st0" d="M48.45,11.59c-0.03-0.14-0.23-0.02-0.21,0.08c0.11,0.89-0.12,1.87-0.18,2.76s-0.08,1.8-0.1,2.69
		c-0.07,2.09-0.15,4.18-0.16,6.27c0,2.11-0.08,4.19-0.39,6.28c-0.16,1.03-0.38,2.03-0.62,3.04c-0.21,0.89-0.26,1.9-0.58,2.75
		c-0.11,0.28,0.28,0.25,0.35,0.04c0.24-0.63,0.29-1.35,0.42-2.01c0.2-1,0.47-1.98,0.66-2.98c0.38-2.11,0.53-4.22,0.54-6.36
		c0.01-2.1,0.06-4.19,0.1-6.29c0.02-1.03,0.06-2.05,0.06-3.08C48.34,13.74,48.64,12.64,48.45,11.59z"/>
	<path class="st0" d="M50.78,13.24c0-0.72,0.22-1.85-0.11-2.51c-0.07-0.14-0.3,0.04-0.25,0.16c0.26,0.68,0.06,1.75,0.05,2.47
		c-0.01,1.11-0.01,2.21-0.01,3.32c-0.01,2.12-0.08,4.23-0.1,6.35c-0.02,1.91-0.09,3.81-0.09,5.72c0,1.84-0.38,3.65-0.57,5.47
		c-0.03,0.28,0.36,0.14,0.38-0.06c0.17-1.69,0.43-3.37,0.57-5.07c0.17-2.04,0.07-4.16,0.07-6.21c0-2.11,0.07-4.23,0.07-6.34
		C50.8,15.45,50.79,14.35,50.78,13.24z"/>
	<path class="st0" d="M53.69,16.51c-0.27-1.18-0.65-2.33-0.91-3.51c-0.21-0.93-0.31-2.01-0.81-2.83c-0.07-0.12-0.27,0.03-0.22,0.15
		c0.37,0.8,0.51,1.96,0.68,2.83c0.16,0.81,0.43,1.6,0.65,2.4c0.29,1.06,0.41,2.19,0.62,3.27c0.18,0.93,0.47,2.04,0.29,2.99
		c-0.04,0.23,0.27,0.09,0.31-0.05C54.76,20.27,54.02,17.97,53.69,16.51z"/>
	<path class="st0" d="M37.27,37.71c-1.2-2.48-1.67-5.22-2.05-7.93c-0.19-1.31-0.29-2.64-0.42-3.96c-0.14-1.48-0.53-2.92-0.58-4.41
		c0-0.07-0.05-0.07-0.11-0.04c0.02-0.34,0.03-0.68,0.05-1.02c0.13-2.15,0.22-4.42,0.71-6.52c0.03-0.14-0.17-0.06-0.2,0.03
		c-0.58,1.96-0.65,4.11-0.81,6.14c-0.16,2.02-0.24,4.04-0.3,6.07c-0.06,2.19-0.12,4.38-0.13,6.57c0,0.91-0.03,1.81-0.07,2.72
		c-0.04,0.99,0.14,2.07-0.08,3.04c-0.06,0.25,0.31,0.11,0.35-0.06c0.21-0.75,0.09-1.57,0.1-2.34c0-0.88,0.08-1.76,0.08-2.64
		c0-2.17,0.05-4.34,0.09-6.5c0.03-1.52,0.08-3.04,0.15-4.56c0.1,1.22,0.35,2.42,0.46,3.64c0.13,1.47,0.24,2.94,0.44,4.41
		c0.34,2.44,0.65,5.48,2.07,7.56C37.1,38.02,37.33,37.82,37.27,37.71z"/>
	<path class="st0" d="M33.11,19.3c-0.08-1.22-0.18-2.43-0.32-3.64c-0.08-0.61,0.03-1.28-0.32-1.81c-0.05-0.07-0.19,0.05-0.16,0.13
		c0.35,0.68,0.2,1.97,0.27,2.73c0.09,1.05,0.15,2.11,0.22,3.17c0.13,2.16-0.08,4.34-0.11,6.5c-0.02,1.09,0.03,2.18,0,3.28
		c-0.02,0.62-0.1,1.24-0.19,1.86c-0.51-2.86-0.93-5.72-1.39-8.58c-0.26-1.57-0.45-3.16-0.68-4.73c-0.19-1.31-0.61-2.74-0.54-4.07
		c0.01-0.12-0.19-0.03-0.2,0.05c-0.11,1.19,0.22,2.47,0.38,3.66c0.2,1.58,0.42,3.17,0.63,4.75c0.42,3.16,0.77,6.4,1.55,9.5
		c0.02,0.08,0.08,0.08,0.15,0.05c-0.06,0.36-0.12,0.73-0.17,1.09c-0.26,1.94-0.26,3.99-0.26,5.94c0,0.23,0.37,0.04,0.37-0.15
		c0-2.22,0.05-4.55,0.37-6.74c0.33-2.2,0.31-4.31,0.34-6.52C33.08,23.61,33.26,21.45,33.11,19.3z"/>
	<path class="st0" d="M29.02,25.03c-0.02-0.75-0.21-1.56-0.04-2.29c0.03-0.14-0.17-0.07-0.19,0.03c-0.26,1-0.02,2.19-0.01,3.23
		c0.02,1.34-0.05,2.69-0.13,4.02c-0.08,1.39-0.1,2.77-0.1,4.17c0,1.54,0.05,3.46-0.53,4.9c-0.08,0.19,0.17,0.2,0.25,0.07
		c0.49-0.8,0.47-1.9,0.52-2.81c0.09-1.54,0.11-3.08,0.11-4.62c0-1.51,0.1-3.04,0.17-4.55C29.08,26.46,29.05,25.74,29.02,25.03z"/>
	<path class="st0" d="M27.84,27.41c-0.25-4.36-0.53-8.9-1.63-13.14c-0.03-0.12-0.23,0.03-0.21,0.14c0.57,2.51,0.87,5.09,1.09,7.67
		c0,1.21-0.21,2.53-0.29,3.65c-0.11,1.49-0.15,2.99-0.29,4.48c-0.15,1.58-0.04,3.18-0.15,4.77c-0.1,1.35-0.31,2.68-0.31,4.03
		c0,0.19,0.29,0.03,0.3-0.12c0.02-1.48,0.25-2.96,0.33-4.43c0.09-1.72,0.03-3.44,0.18-5.15c0.12-1.35,0.16-2.71,0.23-4.07
		c0.03-0.51,0.09-1.04,0.14-1.58c0.08,1.02,0.15,2.03,0.22,3.04c0.14,2.03,0.11,4.05,0.14,6.08c0.02,1.09-0.01,2.12-0.22,3.2
		c-0.14,0.7-0.16,1.91-0.56,2.51c-0.15,0.22,0.14,0.3,0.27,0.12c0.3-0.42,0.3-0.96,0.39-1.45c0.18-0.98,0.48-1.97,0.5-2.98
		C27.99,31.92,27.97,29.64,27.84,27.41z"/>
	<path class="st0" d="M24.87,26.54c-0.01-2.18,0.03-4.35,0.04-6.53c0.01-1.08,0.02-2.15,0.03-3.23c0-0.84-0.3-1.99-0.1-2.79
		c0.04-0.16-0.2-0.1-0.24,0.01c-0.18,0.51-0.06,1.05-0.04,1.58c0.04,1.06-0.02,2.13-0.04,3.19c-0.04,2.33-0.05,4.67-0.07,7
		c-0.03,4.23,0.17,8.47,0.46,12.68c0.02,0.27,0.43,0.04,0.42-0.17C25.09,34.37,24.88,30.46,24.87,26.54z"/>
	<path class="st0" d="M23.56,19.08c-0.14-1.68-0.2-3.35-0.29-5.03c-0.01-0.14-0.21-0.01-0.21,0.09c-0.18,3.38,0.14,6.91,0.93,10.2
		c0.04,0.18,0.35-0.03,0.33-0.17C24.04,22.46,23.71,20.8,23.56,19.08z"/>
	<path class="st0" d="M22.94,22.51c-0.44-2.83-0.94-5.7-1.15-8.55c-0.01-0.13-0.2-0.02-0.2,0.08c0.09,2.88,0.57,5.77,0.97,8.62
		c0.21,1.52,0.54,3.01,0.83,4.51c0.27,1.38,0.48,2.77,0.75,4.14c0.04,0.21,0.34,0.03,0.33-0.13C24.25,28.25,23.4,25.42,22.94,22.51z
		"/>
	<path class="st0" d="M24.79,37.2c-0.68-1.72-1.23-3.52-1.69-5.32c-0.53-2.05-1.27-4.04-1.82-6.08c-0.29-1.1-0.59-2.21-0.8-3.32
		c-0.16-0.86-0.2-1.76-0.41-2.61c-0.29-1.18-0.54-2.35-0.71-3.55c-0.14-0.98-0.09-2.02-0.28-2.99c-0.02-0.11-0.19-0.02-0.18,0.07
		c0.09,0.84,0.01,1.74,0.08,2.59c0.08,1.08,0.28,2.16,0.52,3.21c0.49,2.13,0.79,4.29,1.3,6.42c0.5,2.07,1.25,4.07,1.82,6.12
		c0.51,1.84,0.86,4.04,1.85,5.68C24.58,37.58,24.86,37.36,24.79,37.2z"/>
	<path class="st0" d="M20.7,37.61c-0.84-2.04-1.26-4.08-1.69-6.24c-0.42-2.14-1.04-4.24-1.46-6.38c-0.41-2.06-0.8-4.13-1.13-6.2
		c-0.16-1.02-0.3-2.05-0.43-3.08c-0.11-0.89-0.1-1.88-0.34-2.74c-0.03-0.1-0.21,0.02-0.19,0.1c0.18,0.88,0.15,1.86,0.24,2.75
		c0.1,1.04,0.24,2.07,0.39,3.1c0.32,2.23,0.74,4.44,1.17,6.65c0.42,2.15,1.04,4.24,1.45,6.39c0.38,1.98,0.62,4.09,1.67,5.86
		C20.49,37.99,20.77,37.77,20.7,37.61z"/>
	<path class="st0" d="M19.4,37.39c-0.6-0.68-0.71-1.87-0.93-2.73c-0.25-0.96-0.42-1.93-0.67-2.89c-0.54-2.09-1.37-4.08-1.93-6.16
		c-1.15-4.27-1.8-8.64-2.27-13.03c-0.01-0.11-0.16-0.01-0.16,0.06c-0.14,2.21,0.31,4.6,0.66,6.78c0.33,2.11,0.86,4.22,1.37,6.3
		c0.09,2.15,0.23,4.28,0.22,6.43c0,1.12,0.06,2.22,0.16,3.33c0.07,0.77,0.18,1.68,0.74,2.26c0.1,0.1,0.34-0.09,0.26-0.21
		c-1.04-1.61-0.83-4.1-0.84-5.94c-0.01-1.62-0.13-3.21-0.25-4.81c0.51,1.76,1.19,3.47,1.67,5.24c0.29,1.09,0.48,2.19,0.77,3.28
		c0.21,0.8,0.31,1.77,0.89,2.4C19.22,37.86,19.54,37.55,19.4,37.39z"/>
	<path class="st0" d="M15.46,36.92c-1.2-1.63-1.45-4.06-1.86-5.98c-0.4-1.85-0.81-3.67-1.05-5.55c-0.53-4.19-1.11-8.36-1.54-12.56
		c-0.01-0.14-0.23-0.02-0.22,0.09c0.34,4.38,0.91,8.7,1.45,13.05c0.25,2.04,0.75,4.02,1.18,6.02c0.38,1.73,0.62,3.8,1.74,5.23
		C15.28,37.35,15.58,37.07,15.46,36.92z"/>
	<path class="st0" d="M13.01,30.83c-1.03-3.19-2.06-6.31-2.66-9.62c-0.54-2.97-0.82-5.94-0.83-8.96c0-0.12-0.19-0.03-0.2,0.05
		c-0.26,3,0.08,6.1,0.64,9.05c0.62,3.27,1.34,6.63,2.74,9.67C12.79,31.2,13.06,30.98,13.01,30.83z"/>
	<path class="st0" d="M13.91,36.58c-0.63-0.8-0.88-1.89-1.21-2.84c-0.34-0.95-0.66-1.89-0.94-2.86c-0.67-2.25-1.38-4.43-1.81-6.74
		c-0.78-4.21-0.79-8.5-1.9-12.65c-0.02-0.09-0.19,0.01-0.17,0.09c0.98,4.48,1,9.09,1.87,13.59c0.4,2.04,1.07,3.97,1.66,5.95
		c0.33,1.1,0.71,2.18,1.09,3.27c0.3,0.86,0.54,1.77,1.12,2.49C13.73,37.03,14.04,36.74,13.91,36.58z"/>
</g>
<g>
	<path class="st0" d="M8.67,10.4c3.5,1.79,11.66,5.21,22.34,4.86c14.4-0.48,13.45-0.19,14.11,6.29c0.67,6.48,0.09,13.26-5.82,14.69
		c-5.91,1.43-12.87,2.29-20.12,0.48s-7.53-3.15-8.87-10.01c-1.28-6.56-2.73-15.48-2.85-16.25l-0.68,0.03l4.27,25.02
		c0,0,5.09,4.07,19.73,3.15c14.65-0.92,22.68-6.41,22.68-6.41l1.42-24L8.67,10.4z"/>
</g>
<g>
	<path class="st1" d="M20.68,9.84c2.02,0.71,4.16,1.11,6.27,1.41c3.83,0.54,7.74,0.82,11.6,1.06c2.03,0.12,4.08,0.26,6.12,0.09
		c1.27-0.1,2.88-0.38,4.09,0.18c2.37,1.09,2.34,4.02,2.4,6.28c0.09,3,0.21,6.11-0.49,9.06c-0.69,2.89-2.07,5.05-4.36,6.95
		c-0.61,0.51-1.25,0.96-1.9,1.36c5.92-1.83,9.06-3.97,9.06-3.97l1.42-24L20.68,9.84z"/>
</g>
<path class="st2" d="M7.6,9.98c0,0,9.36-4.98,31.63-3.87c11.49,0.41,15.16,1.83,15.66,2.14c0.51,0.31-8.95,6-26.85,5.9
	C16.14,14.04,3.83,11.5,7.6,9.98z"/>
<path class="st3" d="M12.03,9.66c0,0,7.45-3.97,25.17-3.08c9.15,0.32,12.06,1.46,12.46,1.7c0.4,0.24-7.12,4.78-21.37,4.69
	C18.83,12.9,9.04,10.88,12.03,9.66z"/>
<path class="st3" d="M17.26,9.35c0,0,5.22-2.78,17.63-2.15c6.41,0.23,8.45,1.02,8.73,1.19c0.28,0.17-4.99,3.35-14.97,3.29
	C22.02,11.62,15.17,10.2,17.26,9.35z"/>
</svg>
