<?xml version="1.0" encoding="utf-8"?>
<!-- Generator: Adobe Illustrator 25.0.0, SVG Export Plug-In . SVG Version: 6.00 Build 0)  -->
<svg version="1.1" id="Layer_1" xmlns="http://www.w3.org/2000/svg" xmlns:xlink="http://www.w3.org/1999/xlink" x="0px" y="0px"
	 viewBox="0 0 386.38 94" style="enable-background:new 0 0 386.38 94;" xml:space="preserve">
<style type="text/css">
	.st0{fill:#1D3D0C;}
	.st1{fill:#995336;}
	.st2{opacity:0.4;fill:#5F4323;enable-background:new    ;}
	.st3{opacity:0.4;}
	.st4{fill:#68361D;}
	.st5{opacity:0.5;fill:#995336;enable-background:new    ;}
	.st6{fill:#628D00;}
	.st7{fill:#B5CE34;}
	.st8{fill:#4B7300;}
	.st9{fill:#38632F;}
	.st10{fill:#94C400;}
</style>
<g>
	<g>
		<path class="st0" d="M122.07,64.77c2.22-1.72,5.3-2.84,8-3.31c1.62-0.27,4.74-0.77,6.27-0.07c1.36,0.62,2.47,1.87,3.89,2.25
			c0.04,0.01,0.05,0.04,0.07,0.06c-2.44,0.99-4.63,2.5-7.13,3.39c-0.47,0.17-0.95,0.27-1.42,0.35c-0.23,0.03-0.45,0.06-0.66,0.08
			C127.97,67.76,124.92,66.22,122.07,64.77z"/>
		<g>
			<g>
				<path class="st1" d="M78.4,42.26c4.84-2.42,10.44-4.9,14.86-8.4c-1.87-0.02-4.67,0.44-5.29,0.47c-2.76,0.11-5.55-0.11-8.32-0.21
					c-3.85-0.15-7.6-0.82-11.44-0.62c-1.7,0.09-3.38-0.08-5.03-0.64c-0.54-0.18-0.98-0.88-0.94-1.43c0.11-1.7,0.64-3.87,2.66-4.12
					c4.2-0.52,8.73-0.78,13.01-0.59c11.43,0.49,22.93,1.32,34.26,0.31c9.2-0.82,18.26-2.69,27.43-3.75
					c20.08-2.31,40.26-2.66,60.38-4.36c11.75-0.99,23.49-2.11,35.28-2.37c11.94-0.27,23.9,0.13,35.84,0.49
					c11.84,0.36,23.63,0.52,35.48,0.03c11.71-0.49,23.42-1.22,35.14-1.04c11.25,0.16,22.5,0.64,33.75,0.87
					c1.83,2.18,2.94,4.8,2.8,7.88c-0.14,2.98-1.38,5.81-2.98,8.36c-12.98-1.85-26.08-2.86-39.17-3.44
					c-18.04-0.8-36.07-0.7-54.04,1.14c-0.64,0.07-1.27,0.13-1.91,0.18c-0.69-0.01-1.39-0.02-2.09-0.03
					c-6.34-0.15-12.72,0.02-19.09,0.32c-1.77-0.04-3.53-0.08-5.29-0.11c-4.72-0.08-9.43-0.1-14.15,0.07
					c-2.28,0.08-4.55,0.22-6.82,0.42c-2.34,0.2-4.66,0.65-6.99,0.84c-2.84,0.23-5.68,0.52-8.51,0.91c-2.84,0.24-5.67,0.56-8.49,1
					c-7.93,1.25-15.32,3.45-21.62,8.31c-5.45,4.21-9.96,9.5-15.47,13.62c-5.32,3.97-10.52,7.99-15.95,11.74
					c-2.76-0.29-5.5-0.69-8.2-1.17c2.13-1.31,5.72-3.7,0.88-3.19c-1.35,0.15-2.84,0.47-4.2,0.41c-2.7-0.11-5.41-0.04-8.11,0.08
					c-6.38-1.92-12.43-4.49-18.01-7.8c0.36,0.07,0.71,0.15,1.06,0.21c8.7,1.59,18.13,2.99,26.65,1.17c9-1.92,16.36-10.6,22.28-17.01
					c1.97-2.14,3.89-4.25,5.7-6.49c-0.3-0.52-0.9-0.86-1.98-0.84c-1.13,0.04-2.27,0.04-3.41-0.01c-2.65-0.09-5.26-0.36-7.91-0.66
					c-5.45-0.61-10.9-1.09-16.36-1.3c-10.3-0.41-20.2,0.74-30.24,2.35c-5.6,0.89-10.85,1.98-15.96,4.35
					c-4.87,2.25-9.62,4.79-14.58,6.87c-4.52,1.9-9.18,3.42-13.73,5.24c-2.51,1.01-5.49,2.84-8.38,2.34
					c-1.34-0.23-1.09-1.71-0.39-2.37c1.84-1.71,4.33-2.27,6.67-3.13C71.24,45.77,74.83,44.03,78.4,42.26z"/>
				<path class="st1" d="M373.42,29.56c0.82-1.36,1.59-2.97,1.35-4.6c-0.31-2.12-0.86-4.25-1.32-6.33
					c-0.13-0.61-0.28-1.21-0.43-1.81c0.82,0.02,1.65,0.03,2.47,0.05c1.83,2.18,2.94,4.8,2.8,7.88c-0.14,2.99-1.38,5.82-2.98,8.37
					c-1.31-0.19-2.61-0.37-3.92-0.54C372.09,31.6,372.79,30.61,373.42,29.56z"/>
				<path class="st1" d="M331.18,22.19c-0.46,1.09-1.26,2.55-0.7,3.73c0.34,0.72,1.16,1.23,1.69,1.8c0.51,0.55,0.92,1.18,1.25,1.85
					c-3.95-0.16-7.91-0.26-11.86-0.32c0.54-0.65,1.11-1.27,1.59-1.97c0.92-1.34,0.88-2.87,0.74-4.43c-0.2-2.22-0.79-4.36-1.37-6.51
					c3.63-0.15,7.26-0.27,10.89-0.33c-0.15,0.52-0.31,1.02-0.47,1.51C332.42,19.12,331.82,20.64,331.18,22.19z"/>
				<path class="st1" d="M102.55,27.48c3.22-0.05,6.44-0.18,9.64-0.47c0.5-0.04,1-0.1,1.5-0.15c-0.42,1.29-1.23,2.58-1.65,3.72
					c-0.25,0.67-0.49,1.65-0.15,2.33c0.22,0.43,0.51,0.8,0.84,1.13c-3.28,0.54-6.43,1.18-9.51,2.13c1.16-1.43,2.34-2.82,1.72-4.8
					C104.47,29.89,103.49,28.69,102.55,27.48z"/>
				<path class="st1" d="M178,50.9c0.46-0.52,0.9-1.06,1.33-1.61c3.89-5.06,8.09-10.14,13.66-13.42c5.12-3.01,11.41-3.01,17.11-3.94
					c6.92-1.13,13.8-2.15,20.79-2.69c13.78-1.06,27.6-1.49,41.41-1.86c6.88-0.18,13.77-0.37,20.66-0.56c6.85-0.2,13.71-0.03,20.56,0
					c3.82,0.02,7.64-0.01,11.45-0.16c13.6,0.71,27.23,0.75,40.81,1.84c3.78,0.31,7.54,0.75,11.27,1.29
					c-0.49,1.15-1.09,2.27-1.76,3.34c-12.98-1.85-26.08-2.86-39.17-3.44c-18.04-0.8-36.07-0.7-54.04,1.14
					c-0.64,0.07-1.27,0.13-1.91,0.18c-0.69-0.01-1.39-0.02-2.09-0.03c-6.34-0.15-12.72,0.02-19.09,0.32
					c-1.77-0.04-3.53-0.08-5.29-0.11c-4.72-0.08-9.43-0.1-14.15,0.07c-2.28,0.08-4.55,0.22-6.82,0.42c-2.34,0.2-4.66,0.65-6.99,0.84
					c-2.84,0.23-5.68,0.52-8.51,0.91c-2.84,0.24-5.67,0.56-8.49,1c-7.93,1.25-15.32,3.45-21.62,8.31C183.9,45.23,181,48.1,178,50.9z
					"/>
				<path class="st1" d="M113.85,33.84c-0.77,0.12-1.53,0.25-2.28,0.38c4.59-1.34,9.33-2.25,14.12-2.91
					c5.9-0.81,11.83-1.28,17.75-1.88c3.01-0.31,6.01-0.8,9.03-0.96c3.22-0.16,6.44,0.22,9.6,0.76c3.64,0.62,7.24,1.48,10.9,2.05
					c3.71,0.57,7.45,0.76,11.2,0.67c3.63-0.09,7.38-0.2,10.97-0.78c3.26-0.52,6.57-1.7,9.91-1.49c-2.45,0.85-5.07,1.15-7.57,1.85
					c-3.18,0.89-6.16,2.23-9.49,2.57c-3.31,0.34-6.69-0.26-10.01-0.28c-1.45,0-2.87,0.12-4.29,0.39c-0.32-0.46-0.9-0.77-1.92-0.75
					c-1.13,0.04-2.27,0.04-3.41-0.01c-2.65-0.09-5.26-0.36-7.91-0.66c-5.45-0.61-10.9-1.09-16.36-1.3
					C133.79,31.09,123.89,32.24,113.85,33.84z"/>
				<path class="st2" d="M150.75,63.97c1.99-0.48,4-0.9,6.06-1.2c-0.68,1.93-2.25,3.53-4.17,4.95c-1.72-0.22-3.43-0.49-5.13-0.79
					C148.98,66.02,151.15,64.6,150.75,63.97z"/>
				<path class="st2" d="M118.08,56.41c0.36,0.07,0.71,0.15,1.06,0.21c8.7,1.59,18.13,2.99,26.65,1.17
					c9-1.92,16.36-10.6,22.28-17.01c1.91-2.08,3.78-4.14,5.55-6.31c2.68-0.07,5.39,0.17,8.06,0.72c-1.47,0.12-2.89,0.4-4.06,1.02
					c-3.46,1.84-5.48,5.14-7.78,7.83c-5.88,6.89-13.44,15.42-24.76,16.75c-5.4,0.64-11.4-0.68-16.85-1.28
					c-2-0.22-3.98-0.49-5.97-0.79C120.84,58,119.45,57.22,118.08,56.41z"/>
				<path class="st2" d="M68.29,48.45c-2.68,1.08-5.21,2.53-7.97,3.57c-0.22-0.54,0.04-1.31,0.49-1.73
					c1.84-1.71,4.33-2.27,6.67-3.13c3.76-1.4,7.35-3.14,10.92-4.93c4.3-2.16,9.2-4.36,13.34-7.28c3-0.8,6-1.57,9.25-1.55
					c-6.75,3.05-12.71,7.03-19.58,9.95C77.12,45.18,72.63,46.69,68.29,48.45z"/>
				<path class="st2" d="M156.92,61.21c0.09-0.07,0.2-0.13,0.29-0.19c0.21-0.3,0.54-0.62,0.67-0.68
					c7.96-3.67,11.9-10.67,17.31-16.31c1.7-1.78,3.44-3.6,6.05-4.6c2.53-0.97,4.53-0.15,7.21-0.23c1.16-0.03-0.5,1.35-0.93,1.46
					c-2.14,0.54-3.73,2.58-5.47,3.62c-1.29,0.77-2.56,1.66-3.8,2.61c-1.8,2.39-3.79,4.78-6.07,6.81c-3.79,3.38-8.56,7.44-14.72,7.92
					c-0.06,0.01-0.09-0.01-0.14-0.01c-0.08,0.03-0.16,0.06-0.24,0.09C156.5,61.91,156.66,61.41,156.92,61.21z"/>
				<path class="st2" d="M124.1,31.02c10.47-0.75,20.11-3.16,30.9-2.96c3.96,0.07,8.62,0.92,12.43,0.48
					c2.63-0.31,5.52-0.49,8.21-0.06c0.41,0.07-0.38,0.63-0.59,0.65c-3.9,0.27-7.71,2.13-11.68,2.04c-4.29-0.09-8.53-0.24-12.81-0.25
					c-4.67-0.01-8.97-0.22-13.65-0.61c-4.66-0.4-8.59,1.11-13.14,1.13C123.45,31.45,123.91,31.03,124.1,31.02z"/>
				<g class="st3">
					<path class="st4" d="M212.26,32.53c-3.16,0.44-6.53,1.92-9.36,2.44c-3.43,0.63-7.07,1.47-10.69,1.41
						c-5.85-0.11-11.44-1.28-17.07-2.48c5.78,0.29,11.6,1.34,17.42,1.39C199.45,35.35,205.47,32.42,212.26,32.53z"/>
				</g>
				<path class="st5" d="M192.97,35.52c-1.99,0.18-3.96,0.4-5.92,0.69c-2.51,0.37-5.14,0.87-7.35,2.18
					c-2.2,1.31-3.93,3.34-5.58,5.26c-3.33,3.85-7.43,7.05-10.45,11.16c-0.82,1.11-1.5,2.33-1.94,3.64c-0.02,0.09,0.02,0.2,0.1,0.24
					c2.43,1.2,5.45-0.02,7.79-0.88c0.07-0.03,0.13-0.05,0.2-0.08c-4.69,3.52-9.31,7.05-14.12,10.37c-2.76-0.29-5.5-0.69-8.2-1.17
					c2.13-1.31,5.72-3.7,0.88-3.19c-1.35,0.15-2.84,0.47-4.2,0.41c-2.7-0.11-5.41-0.04-8.11,0.08c-6.38-1.92-12.43-4.49-18.01-7.8
					c0.36,0.07,0.71,0.15,1.06,0.21c8.7,1.59,18.13,2.99,26.65,1.17c9-1.92,16.36-10.6,22.28-17.01c1.9-2.06,3.75-4.1,5.5-6.25
					c0.76-0.02,1.53-0.03,2.29-0.03c1.59,0,3.17,0.08,4.74,0.26c1.22,0.14,2.42,0.46,3.64,0.53c1.88,0.1,3.77-0.02,5.65,0.02
					C190.63,35.35,191.89,35.31,192.97,35.52z"/>
				<path class="st5" d="M78.41,42.24c4.84-2.42,10.44-4.9,14.86-8.4c-1.87-0.02-4.67,0.44-5.29,0.47
					c-2.76,0.11-5.55-0.11-8.32-0.21c-3.85-0.15-7.6-0.82-11.44-0.62c-1.7,0.09-3.38-0.08-5.03-0.64c-0.54-0.18-0.98-0.88-0.94-1.43
					c0.11-1.7,0.64-3.87,2.66-4.12c4.2-0.52,8.73-0.78,13.01-0.59c11.43,0.49,22.93,1.32,34.26,0.31c9.2-0.82,18.26-2.69,27.43-3.75
					c20.08-2.31,40.26-2.66,60.38-4.36c11.75-0.99,23.49-2.11,35.28-2.37c11.94-0.27,23.9,0.13,35.84,0.49
					c11.84,0.36,23.63,0.52,35.48,0.03c11.71-0.49,23.42-1.22,35.14-1.04c11.25,0.16,22.5,0.64,33.75,0.87
					c0.77,0.92,1.41,1.92,1.89,3c-11.66-0.4-23.44,0.33-34.9,0.71c-25.58,0.85-51.21,0.69-76.8,0.81
					c-12.99,0.06-25.99,0.13-38.98,0.25c-12.83,0.12-25.73-0.02-38.54,0.99c-10.16,0.8-20.26,2.2-30.38,3.41
					c-7.91,0.95-15.85,1.42-23.79,2.17c-7.49,0.71-14.98,1.72-22.28,3.56c-6.56,1.66-13.14,4.1-18.49,8.34
					c-0.12,0.1-0.07,0.25,0.04,0.31c-3.28,1.61-6.56,3.23-9.94,4.65c-4.52,1.9-9.18,3.42-13.73,5.24c-2.51,1.01-5.49,2.84-8.38,2.34
					c-1.34-0.23-1.09-1.71-0.39-2.37c1.84-1.71,4.33-2.27,6.67-3.13C71.24,45.77,74.83,44.03,78.41,42.24z"/>
			</g>
		</g>
		<g>
			<path class="st6" d="M151.53,69c0.22-0.27,0.54-0.49,0.75-0.52c3.14-0.38,5.85,0.5,7.8,2.99c1.7,3.25,2.53,7.07,2.8,10.83
				c-5.62-0.96-7.44-5.9-9.76-10.28c0.25,7.19-3.93,17.9-11.26,17.97c-0.07-0.02-0.11-0.06-0.13-0.12
				c-0.67-2.84-0.71-6.71-0.08-9.53c0.33-1.48,0.72-2.94,1.31-4.33c-3.86,3.77-9.3,5.1-14.63,3.16c-0.41-0.15,0.19-0.81,0.37-0.92
				c1.77-1.05,2.92-2.97,4.29-4.51c-2.99,0.35-8.09-0.11-9.51-3.04c2.02-2.1,4.34-3.94,6.75-5.55c2.59-0.97,5.16-1.45,7.9-1.87
				C142.85,62.57,147.29,66.98,151.53,69z"/>
		</g>
		<path class="st7" d="M126.86,55.14c3.22-1.16,6.6-1.59,10.05-2.14c0.09-0.02,0.17-0.05,0.23-0.09c0.95-0.05,1.91-0.07,2.87-0.03
			c0.58,0.17,1.15,0.39,1.7,0.7c1.58,0.89,3.46,2.54,4.37,4.09c1.06,1.81,1.41,1.59-0.13,3.09c2.26-0.56,4.76,0.86,5.88,2.8
			c1.6-1.82,3.67-2.88,5.94-3.14c4.13,1.07,7.68,3.33,10.38,6.7c-0.67,0.32-1.68,0.56-2.58,0.8c-3.08,0.81-6.38,1.78-9.61,1.46
			c2.31,2.44,2.63,6.28,2.88,9.46c0.05,0.64,0.37,4.11,0.64,5.37c-3.67-2.36-6.63-5.59-9.46-8.94c-1.18-1.93-1.89-4.11-1.22-6.32
			c-2.58,1.3-5.63,1.67-8.48,1.81c-0.75,0.05-4.78,0.38-6.65,0.08c0.96-1.2,1.99-2.36,2.92-3.59c1.88-1.51,3.62-3.2,5.6-4.59
			c-3.17,0.64-6.94-0.26-9.5-2.19C130.35,59.17,128.74,56.91,126.86,55.14z"/>
		<path class="st0" d="M121.44,47.17c1.87,0.25,3.87,1.19,5.38,2.26c0.91,0.64,2.63,1.89,3.02,2.96c0.35,0.94,0.28,2.07,0.77,2.93
			c0.01,0.02,0,0.04,0,0.06c-1.64-0.69-3.4-1.02-5.01-1.79c-0.3-0.14-0.58-0.32-0.84-0.51c-0.12-0.1-0.24-0.19-0.35-0.28
			C122.82,51.42,122.1,49.24,121.44,47.17z"/>
		<g>
			<path class="st6" d="M133.43,63.27c0.23-0.02,0.48,0.02,0.6,0.11c1.67,1.32,2.54,3.03,2.28,5.15c-0.75,2.36-2.18,4.57-3.85,6.49
				c-2.21-3.15-0.71-6.36,0.28-9.56c-3.32,3.54-10.43,6.64-13.95,3.16c-0.03-0.03-0.03-0.07-0.01-0.11
				c1.04-1.67,2.87-3.53,4.52-4.57c0.86-0.54,1.75-1.05,2.69-1.43c-3.64-0.06-6.87-2.03-8.47-5.5c-0.13-0.27,0.47-0.3,0.61-0.26
				c1.35,0.35,2.81-0.02,4.2-0.09c-1.58-1.26-3.79-3.92-3.06-5.99c1.97-0.03,3.96,0.2,5.87,0.59c1.7,0.78,3.15,1.78,4.65,2.89
				C132.37,56.07,132.37,60.29,133.43,63.27z"/>
			<path class="st8" d="M126.61,45.51c2.08,0.99,3.89,2.4,5.8,3.79c0.05,0.04,0.1,0.06,0.15,0.07c0.48,0.43,0.94,0.88,1.38,1.36
				c0.19,0.35,0.36,0.73,0.47,1.14c0.32,1.18,0.43,2.87,0.12,4.04c-0.36,1.37-0.09,1.43-1.54,1.41c1.35,0.81,1.86,2.68,1.46,4.14
				c1.63-0.1,3.13,0.39,4.33,1.35c1.45,2.48,2.05,5.26,1.73,8.15c-0.48-0.17-1.07-0.53-1.61-0.85c-1.86-1.1-3.89-2.21-5.27-3.91
				c-0.07,2.27-1.76,4.24-3.16,5.88c-0.28,0.33-1.79,2.13-2.27,2.86c-0.61-2.88-0.48-5.84-0.22-8.78c0.36-1.48,1.07-2.86,2.44-3.59
				c-1.85-0.62-3.48-1.9-4.9-3.2c-0.38-0.33-2.45-2.1-3.2-3.14c1.03-0.11,2.07-0.17,3.1-0.31c1.62,0.19,3.26,0.22,4.86,0.5
				c-1.81-1.21-3.18-3.44-3.47-5.58C126.32,49.1,126.63,47.25,126.61,45.51z"/>
		</g>
		<g>
			<path class="st9" d="M33.83,5.97c-0.26,2.67-2.58,4.64-3.26,7.23c-0.99-1.45-3.46-6.96-4.65-3.88c-1.11,2.86-3.14,6.23-2.34,9.41
				c-2.05-0.92-4.3-0.39-6.45-0.74c-2.4-0.38-1.83,0.27-1.09,1.94c1.38,3.05,0.93,7.2,3.24,9.83c-3.84,1.09-6.24,3.9-8.75,6.76
				c-0.2,0.23-3.62,3.02-2.06,2.96c1.97-0.08,3.88,0.43,5.79,0.76c-1.11,1.04-1.91,2.2-2.47,3.63c-0.3,0.73-2.35,4.51-2.05,5.02
				c0.31,0.53,4.22,1.31,5.02,1.75c1.76,0.94,3.6,2.19,5.64,2.35c-1.27,1.93-2.14,4.09-2.97,6.23c-0.68,1.74-2.35,3.81,0.33,3.81
				c3.94-0.02,7.73,2.99,11.71,2.08c-1.16,2.12-2.04,4.4-3.39,6.41c-1.87,2.77,0.44,1.21,1.87,0.62c4.63-1.89,9.68,0.38,13.75-3.32
				c-0.83,1.72-1.49,3.51-2.51,5.12c-0.62,0.97-1.36,1.86-2.28,2.57c-0.62,0.49,0.17,1.49,0.8,1.08c4-2.58,9.38-2.43,12.9-5.83
				c0.65,3.52,3.48,5.63,4.46,8.73c0.6,1.87,0.84-2.32,0.79-1.69c0.15-1.87,0.94-3.61,1.42-5.41c1.81,4.38,7.76,5.58,11.74,6.95
				c0.61,0.21,2.25,1.21,2.89,0.79c0.62-0.41-0.21-3.82-0.21-4.56c-0.02-3.48,0.33-6.92-1.48-10.07c1.18,0.54,6,2.02,7.14,1.35
				c0.71-0.42-2.77-7.2-3.44-8.06c5.48,1.58,11.23-2.28,16.25-3.9c0.28-0.09,3.15-0.58,2.07-1.5c-1.2-1.02-2.12-2.32-3.06-3.57
				c-2.09-2.84-4.8-5.11-8.29-6c2.25-1.52,2.93-4.49,4.64-6.51c0.2-0.24,2.68-2.08,1.04-2.26c-2.09-0.24-4.12-0.87-6.22-1.1
				c1.37-1.17,2.32-2.73,3.45-4.11c1.27-1.54,2.23-2-0.24-2.42c-3.6-0.62-6.12-3.31-10.06-2.37c0.38-0.93,1.96-8.38,0.92-8
				c-2.76,0.98-5.81,1.75-8.08,3.72c-0.29-3.62-3.86-5.54-6.03-7.98c-1.59-1.78-1.66-0.41-3.14,0.92c-1.41,1.26-3.1,2.21-4.37,3.64
				c-0.39-3.72-3.68-5.15-4.94-8.33c-0.59-1.49,0.1-3.12-1.94-1.3c-1.5,1.33-2.99,2.7-4.1,4.38c-0.89-1.93-2.54-3.45-4.1-4.85
				C37.34,7.91,33.99,4.33,33.83,5.97C33.6,8.32,33.87,5.48,33.83,5.97z"/>
			<path class="st8" d="M75.11,56.24c2.63,0.13,4.4-0.94,6.42,1.39c0.04,0.06,2.39,3.15,0.89,2.56c-1.74-0.67-3.79-0.24-5.72-1.08
				c-0.38-0.17-3.07-2.07-2.33-2.64C74.12,56.65,75.69,56.27,75.11,56.24C76.74,56.33,74.95,56.23,75.11,56.24z"/>
			<path class="st8" d="M60.54,68.4c0.15,0.05,0.47,5.49,1.45,6.47c0.94,0.95,2.22,1.5,3.4,2.1c0.16,0.08,2.03,1.13,1.77,1.25
				c1.24-0.58,0.08-7.48-0.66-8.43c-0.86-1.11-2.13-1.71-3.43-2.12c-0.67-0.19-1.33-0.38-1.99-0.55
				C60.37,66.93,59.76,68.07,60.54,68.4C60.57,68.41,59.8,68.08,60.54,68.4z"/>
			<path class="st8" d="M67.9,70.64c0.31,0.46,1.49,2.67,2.28,2.56c-5.75,0.74-13.4-0.81-12.94-8.11c0.19-3.08,2.62-1.03,4.92-0.26
				C65.19,65.84,66.24,68.16,67.9,70.64C68.84,72.06,66.71,68.88,67.9,70.64z"/>
			<path class="st8" d="M29.48,55.15c0.62-0.26,1.15,0.31,0.79,0.93c-0.53,0.91-1.89,1.83-2.8,2.31c-0.87,0.46-7.43,0.88-7.65,0.28
				c-0.16-0.47,3.35-3.38,3.89-3.68C25.46,54.02,27.72,54.45,29.48,55.15C29.57,55.12,27.94,54.54,29.48,55.15z"/>
			<path class="st8" d="M27.19,59.3c1.27-1.58,0.86,1.85,0.43,2.52c-1.28,1.98-3.44,2.45-5.21,3.77c-1.18,0.88,1.07-3.06,1.24-3.34
				C24.05,61.58,26.37,58.28,27.19,59.3C27.24,59.24,26.95,59.01,27.19,59.3z"/>
			<path class="st6" d="M36.6,30.43c2.02,2.88,0.74,7.11,3.05,9.85c-0.92,0.17-7.41,1.79-7.65,2.3c-0.74,1.56,7.47,6.02,8.84,6.12
				c-1.41,1.15-2.43,2.66-2.81,4.45c-0.17,0.81-0.85,4.95-0.03,5.45c1.12,0.68,6.86-1.82,7.4-3.05c0.53,1.2,7.39,7.79,8.07,6.23
				c0-0.55-0.15-1.06-0.45-1.54c-0.19-1.17,0.29-2.31,0.41-3.47c0.25-2.44-1.18-4.61-3.13-5.95c1.94-0.04,3.62-0.8,5.14-1.96
				c0.5-0.38,4.74-2.95,4.72-3.04c-0.02-0.06-4.38-1.73-4.92-2.07c-1.67-1.03-3.83-1.86-5.75-1.1c0.52-1.33,0.75-2.77,1.16-4.14
				c0.15-0.47,1.45-2.32,1.37-2.66c-0.2-0.83-5.74,1.38-6.42,1.7c-0.19-2.57-1.79-5.06-4.16-6.09
				C40.91,31.22,35.83,29.33,36.6,30.43C38.43,33.04,36.3,30.01,36.6,30.43z"/>
			<path class="st6" d="M55.6,51.97c2.32-1.99,5.54-2.37,8.22-0.92c0.69,0.37,5.65,2.52,5.76,2.85c0.22,0.69-7.68,3.3-8.71,3.13
				C59.7,56.84,54.01,53.34,55.6,51.97C57.21,50.59,55.14,52.37,55.6,51.97z"/>
			<path class="st6" d="M62.72,60.23c1.18-2.04,5.05-1.06,6.65-0.2c0.45,0.24,6.33,4.29,6.37,4.04c-0.01,0.07-3.61,0.81-3.97,0.92
				c-1.35,0.44-2.84,0.79-4.26,0.44c-1.84-0.47-3.65-2.08-4.87-3.47C62.32,61.6,61.12,59.88,62.72,60.23
				C63.67,58.59,62.67,60.21,62.72,60.23z"/>
			<path class="st6" d="M18.97,47.53c2.29-1.31,4.64-2.93,7.31-3.3c0.85-0.11,6.45,1.12,4.75,2.66c-1.89,1.72-3.44,4.3-6.69,3.32
				C23.57,49.98,17.78,48.21,18.97,47.53C22.5,45.5,18.81,47.61,18.97,47.53z"/>
			<path class="st6" d="M29.69,52.68c1.85-1.32,3.62-3.37,6.02-3.69c2.81-0.37,2.13,1.31,0.9,2.76c-1.6,1.88-2.73,2.64-5.3,2
				C31.47,53.8,27.82,53.14,29.69,52.68C31.85,51.14,29.66,52.7,29.69,52.68z"/>
			<path class="st6" d="M41,61.5c0.45-0.93,3.13-4.55,4.4-2.64c1.19,1.82,0.14,4.63-1.29,5.96c-0.55,0.51-4.52,3.27-5.16,2.75
				C38.47,67.18,40.68,62.17,41,61.5C41.63,60.2,40.13,63.31,41,61.5z"/>
			<path class="st6" d="M48.53,61.42c0.18-1.5,2.26,0.25,2.52,0.76c0.59,1.1,0.68,2.56,0.3,3.73c-0.56,1.74-1.68,3.25-3.23,4.24
				c-0.2,0.13-2.13,0.94-2.4,0.57c0.02,0.02,0.64-4.21,0.65-4.72C46.41,64.34,47.28,62.51,48.53,61.42
				C48.58,61.05,47.45,62.36,48.53,61.42z"/>
			<path class="st6" d="M55.05,64.23c5.46-3.89,7.55,9.02,6.65,9.33c-0.51,0.18-5.31-3.55-5.9-4.2
				C54.7,68.17,53.3,65.49,55.05,64.23C56.87,62.93,55.03,64.24,55.05,64.23z"/>
			<path class="st6" d="M63.89,35.13c0.94-0.71,0.55,0.8,0.09,1.21c-0.29,1-0.98,2.09-1.61,2.91c-1.7,2.19-4.66,3.02-7.33,2.54
				c-3.82-0.69-0.83-2.97,0.91-4.23C58.45,35.77,61.67,36.82,63.89,35.13C64.26,34.86,62.13,36.47,63.89,35.13z"/>
			<path class="st10" d="M21.88,34.9c2.66,1.58,4.33,4.78,7.2,6.41c2.36,1.77,5.83,2.6,8.75,2.01c-1.89,1.34-3.56,2.98-5.38,4.41
				c-0.45,0.35-3.39,2.59-3.35,2.74c0.25,0.85,6.13,0.36,7.01,0.31c2.63-0.13,5.44-0.47,7.82-1.67c-0.98,3.24,1.28,6.43,3.35,8.71
				c0.81,0.89,5.5,6.14,6.65,5.77c-0.25,0.08-0.69-4.65-0.75-5.37c-0.23-2.94-0.52-6.46-2.65-8.72c2.98,0.3,6.01-0.59,8.86-1.34
				c2.06-0.54,4.77-1.12,1.71-2.76c-2.35-1.26-3.71-3.69-6.52-4.11c-3.01-0.45-5.84,0.56-7.86,2.85c-1.03-1.79-3.33-3.1-5.42-2.58
				c1.42-1.39,1.09-1.18,0.12-2.85c-0.84-1.43-2.57-2.95-4.02-3.77c-2.46-1.39-5.3-1.1-7.99-0.72c-1.86,0.26-3.74,0.53-5.62,0.31
				C23.43,34.38,20.62,34.16,21.88,34.9C22.16,35.07,21.51,34.69,21.88,34.9z"/>
			<path class="st10" d="M47.97,29.91c-0.61,2.45-3.66,3.2-4.46,5.58c-0.35,1.05-0.15,5.65,1.81,5.5c2.77-0.22,4.87-2.2,4.87-5.04
				c0-1.53-0.51-3.01-1.06-4.42C49.19,31.68,48.27,28.73,47.97,29.91C47.47,31.93,48.05,29.58,47.97,29.91z"/>
			<path class="st6" d="M57.35,48.7c2.01-2.4,6.23-0.91,7.85-3.92c0.65,1,7.59,5.79,8.48,4.91c0.2-0.18-0.31-2.31-0.37-2.66
				c-0.42-2.19-1.09-4.38-2.85-5.88c1.44-0.65,2.55-1.79,3.67-2.86c1.14-1.1,2.93-1.78,0.8-2.58c-2.39-0.89-5.78-2.97-8.3-1.38
				c0.26-1.28-1.36-8.41-1.99-7.6c-2.02,2.62-5.06,5.55-3.89,9.2c-1.64-0.68-3.63-0.89-4.76-2.42c-0.85-1.15,0.11,4.4,0.24,4.96
				c0.25,1.09,0.65,2.12,1.68,2.69c-0.42,1.22-0.47,2.55-0.58,3.82C57.31,45.28,56.5,49.71,57.35,48.7
				C58.59,47.2,57.05,49.06,57.35,48.7z"/>
			<path class="st6" d="M65.69,58.44c-0.48-2.39-2.64-3.58-2.43-6.25c0.13-1.54,1.12-5.41,3.19-3.66c2.19,1.85,1.68,4.19,0.65,6.47
				C67.02,55.19,65.9,59.43,65.69,58.44C65.3,56.5,65.79,58.9,65.69,58.44z"/>
			<path class="st6" d="M75.41,42.5c-0.68-0.97,2.3-3.82,3.08-4.2c0.7-0.36,6.35-0.97,6.57-0.23c0,0.01-3.6,3.66-3.89,3.97
				C79.76,43.49,76.9,44.59,75.41,42.5C75.24,42.26,76.23,43.66,75.41,42.5z"/>
			<path class="st10" d="M62.55,47.55c-0.47-1.6-1.13-3.38-0.82-5.08c0.22-1.2,1.62-2.57,2.79-2.61c3.05-0.1,4.19,2.58,4.59,5.18
				c0.4,2.62,0.02,5.53,0.86,8.06c0.61,1.84-3.24-1.03-3.37-1.12C64.97,50.86,63.14,49.55,62.55,47.55
				C62.07,45.91,63.4,50.44,62.55,47.55z"/>
			<path class="st10" d="M65.09,38.93c-2.94,0.27,1.2-6.58,2.23-7.26c0.87-0.59,6.71-3.49,7.61-2.64c0.47,0.44-3.14,5.95-3.59,6.6
				C69.65,38.03,67.83,38.68,65.09,38.93C64.62,38.97,65.43,38.9,65.09,38.93z"/>
			<path class="st10" d="M53.83,36.08c-0.38-0.3,3.16-0.59,3.7-0.5c2,0.3,4.26,1.53,4.86,3.61c0.21,0.74-2.93,1.36-3.65,1.16
				C56.45,39.76,55.56,37.45,53.83,36.08C53.53,35.85,55.14,37.12,53.83,36.08z"/>
			<path class="st10" d="M73.93,48.39c-0.61-0.84-2.54-4.01-1.73-5.06c0.39-0.53,1.16-0.24,1.47,0.18c2.17-0.26,3.49,1.77,4.19,3.52
				c0.56,1.4,0.45,3.44,1.02,4.65c0.75,1.53-1.86-0.65-1.44-0.29C76.27,50.41,74.85,49.65,73.93,48.39
				C72.99,47.1,75.04,49.92,73.93,48.39z"/>
		</g>
	</g>
	<path class="st2" d="M353.48,22.3c8.3,0.67,16.51,1.95,24.78,2.8c-0.02,0.22-0.04,0.44-0.07,0.66c-8.32-0.8-16.58-2.06-24.87-3.19
		C353.21,22.55,353.38,22.3,353.48,22.3z"/>
	<path class="st2" d="M301.07,17.68c3.2,0.45,6.41-0.21,9.59,0.16c3.07,0.36,6.35,0.45,9.45,0.38c6.15-0.14,12.26-0.59,18.42-0.36
		c3.06,0.11,6.08-0.1,9.14-0.15c3.11-0.05,6.18,0.42,9.27,0.68c5.96,0.5,12.07,0,17.91,1.42c0.09,0.02-0.05,0.22-0.13,0.21
		c-6.25-1.21-12.74-0.47-19.06-0.89c-3.12-0.21-6.22-0.58-9.36-0.41c-3.07,0.17-6.09,0.26-9.16,0.14c-3.03-0.12-6.03-0.03-9.06,0.06
		c-3.1,0.1-6.3,0.48-9.4,0.28c-3.09-0.2-6.21-0.48-9.3-0.61c-2.85-0.12-5.69-0.04-8.5-0.62C300.75,17.95,300.95,17.65,301.07,17.68z
		"/>
	<path class="st2" d="M237.98,19.93c5.66,0.56,11.34,0.89,17,1.51c3.12,0.35,6.24,0.4,9.38,0.38c2.55-0.02,5.08-0.3,7.63-0.14
		c3.42,0.22,6.85-0.07,10.27-0.01c3.24,0.06,6.48,0.4,9.72,0.65c6.74,0.53,13.48,1.13,20.22,1.62c6.46,0.46,12.97,0.83,19.44,1.12
		c6.39,0.29,12.8,0.21,19.17,0.67c9,0.64,18.04,0.98,27.03,1.81c-0.1,0.39-0.22,0.79-0.36,1.18c-8.36-0.88-16.77-1.43-25.14-1.74
		c-3.29-0.12-6.51-0.41-9.81-0.41c-3.08,0-6.19-0.18-9.27-0.29c-6.44-0.23-12.92-0.66-19.35-1.1c-6.7-0.46-13.39-1.12-20.09-1.67
		c-3.5-0.29-7.02-0.72-10.52-0.85c-3.22-0.12-6.43,0.09-9.65,0.01c-6.09-0.15-12.28,0.29-18.35-0.39
		c-5.85-0.65-11.75-1.1-17.57-1.95C237.57,20.3,237.82,19.91,237.98,19.93z"/>
	<path class="st2" d="M182.32,21.29c5.1-0.46,10.2-1.37,15.32-1.45c3.1-0.04,6.15-0.44,9.23-0.75c2.44-0.25,5.11-0.26,7.5-0.71
		c4.92-0.93,9.66-1.3,14.66-1.17c4.68,0.12,10.04-0.14,14.53,1.37c0.07,0.03-0.03,0.17-0.09,0.16c-4.68-1.29-10.12-0.74-14.93-0.72
		c-2.59,0.02-5.16,0.2-7.75,0.28c-2.87,0.09-5.58,1.02-8.42,1.25c-5.05,0.41-10.12,1.14-15.2,1.08c-4.99-0.07-9.95,0.72-14.94,0.85
		C182.16,21.48,182.26,21.3,182.32,21.29z"/>
	<path class="st2" d="M171.53,27.69c1.96,0.63,4.09,0.84,6.13,1.13c2.81,0.4,5.59,0.82,8.43,0.9c2.44,0.07,4.86,0.06,7.29,0.18
		c2.19,0.11,4.65-0.48,6.82-0.78c5.03-0.71,10.04,0.04,15.04-1.16c2.51-0.6,5.25-0.61,7.8-1.06c0.86-0.15,1.74-0.35,2.56-0.68
		c0.96-0.39,2.06-0.43,2.94-0.92c0.17-0.1,0.51-0.42,0.4-0.65c-0.33-0.67-1.32-0.73-1.94-0.98c-1.66-0.69-3.41-1.13-5.17-1.49
		c-3.85-0.8-7.95-0.92-11.87-0.73c2.98-0.52,5.97-0.92,9.09-0.8c5.69,0.22,11.65,0.77,17.18,2.2c1.1,0.28,2.19,0.58,3.28,0.92
		c2.27,0.71-1.73,1.86-2.48,1.98c-2.7,0.42-5.38,1.35-8.12,1.44c-2.46,0.08-5.07,0.55-7.53,0.84c-2.79,0.33-5.55,0.63-8.3,1.24
		c-2.91,0.66-5.71,1.27-8.71,1.39c-2.48,0.1-4.98,0.08-7.44,0.43c-2.7,0.38-5.3,0.82-8.05,0.59c-1.34-0.11-2.67-0.2-4.01-0.38
		c-1.04-0.14-1.74-0.33-2.76,0.03c-0.08,0.03-0.2,0.25-0.1,0.22c1.18-0.4,2.23-0.04,3.4,0.14c1.32,0.2,2.63,0.28,3.95,0.42
		c2.45,0.26,4.94-0.07,7.34-0.49c2.88-0.5,5.9-0.13,8.8-0.31c2.93-0.18,5.76-0.87,8.63-1.45c5.9-1.19,12.28-0.61,18.05-2.34
		c2.6-0.78,8.15-0.31,9.08-3.76c0.03-0.08,0.02-0.16-0.07-0.19c-5.97-2-12.39-2.74-18.61-3.48c-6.63-0.79-12.83,0.12-19.31,1.59
		c-6.32,1.44-12.93,1.83-19.37,2.5c-2.55,0.26-5.6-0.19-8.02,0.76c-1.16,0.46-3.66,1.1-4.35,2.28
		C171.46,27.34,171.33,27.62,171.53,27.69z M178.41,25.43c2.49-0.01,4.91-0.27,7.38-0.51c5.49-0.54,10.91-1.2,16.37-2.05
		c0.41-0.06,0.82-0.13,1.23-0.2c-1.24,0.38-2.46,0.81-3.63,1.25c-1.08,0.41-3.73,0.5-3.79,2.13c0,0.05,0.02,0.09,0.05,0.12
		c1.61,0.79,3.5,0.65,5.24,0.86c2.19,0.27,4.38,0.15,6.58,0.36c4.1,0.39,8.18-0.16,11.89-1.92c0.13-0.07,0.55-0.52,0.27-0.62
		c-2.44-0.85-4.73-1.26-7.31-1.3c-2.04-0.03-3.7-0.31-5.57,0.59c-0.17,0.08-0.7,0.62-0.43,0.82c0.91,0.69,2.12,0.65,3.22,0.64
		c0.33-0.01,0.84-0.86,0.52-0.86c-0.78-0.01-1.57-0.01-2.3-0.25c1.57-0.41,3.26-0.21,4.89-0.23c2.06-0.02,4.01,0.36,5.95,1
		c-1.79,0.71-3.54,1.06-5.5,1.31c-2.39,0.32-4.69-0.1-7.07-0.1c-2.3-0.01-4.5-0.27-6.79-0.42c-0.39,0.05-0.78,0.01-1.15-0.12
		c-0.04-0.01-1.54-0.46-1.35-0.53c0.59-0.2,1.28-0.27,1.86-0.5c5.08-2.02,10.02-2.8,15.47-2.68c2.58,0.05,5.13,0.34,7.66,0.86
		c1.15,0.24,2.3,0.56,3.41,0.94c0.27,0.09,1.62,0.48,2.35,0.88c-0.52,0.1-1.05,0.14-1.55,0.41c-1.07,0.59-2.48,0.76-3.67,0.97
		c-2.34,0.41-4.79,0.46-7.1,0.99c-2.53,0.58-5.07,0.92-7.68,0.92c-2.2,0-4.47-0.18-6.65,0.15c-2.36,0.36-5.03,0.95-7.41,0.87
		c-2.41-0.08-4.81-0.21-7.22-0.29c-2.57-0.09-5.11-0.43-7.64-0.82c-2.09-0.33-4.28-0.51-6.32-1.1c0.42-0.14,0.95-0.26,1.17-0.38
		C175.26,25.81,176.76,25.43,178.41,25.43z"/>
	<path class="st2" d="M239.15,28.56c0.87-0.35,1.71-0.54,2.67-0.57c1.56-0.04,3.06-0.58,4.6-0.73c2.8-0.28,5.59-0.63,8.38-1.04
		c5.43-0.79,11-2.5,16.55-1.66c3.01,0.46,6.11,0.41,9.15,0.61c3,0.21,6.01,0.33,9.01,0.44c6.02,0.21,12.04,0.43,18.03,1.12
		c0.09,0.01-0.05,0.23-0.13,0.22c-6.1-0.57-12.23-0.56-18.35-0.6c-3.06-0.02-6.12-0.04-9.18-0.16c-2.8-0.11-5.72,0.05-8.5-0.32
		c-5.96-0.8-11.94,0.63-17.81,1.49c-2.71,0.4-5.45,0.46-8.15,0.83c-2.08,0.29-4.36,0.23-6.38,0.71
		C238.86,28.94,239.07,28.6,239.15,28.56z"/>
	<path class="st2" d="M338.79,27.55c4.4,0.27,8.78,1.46,13.19,1.33c3.75-0.11,7.55,0.22,11.31,0.28c2.41,0.04,4.83,0.28,7.23,0.59
		c2.04,0.26,3.99,0.87,6.02,1.17c-0.09,0.19-0.19,0.38-0.29,0.57c-4.45-0.87-8.93-1.52-13.46-1.52c-3.97,0-7.96-0.35-11.93-0.26
		c-2.06,0.04-4.17-0.68-6.22-0.94c-2.01-0.25-4-0.64-6-0.97C338.54,27.78,338.7,27.55,338.79,27.55z"/>
	<path class="st2" d="M106.7,27.85c4.21-0.07,8.45-0.07,12.63-0.63c3.9-0.53,7.84-1.01,11.74-1.47c3.83-0.45,7.55-1.38,11.38-1.78
		c3.12-0.33,6.24-1.21,9.39-1.26c0.05,0-0.02,0.12-0.07,0.12c-3.89,0.22-7.74,1.47-11.6,2c-1.94,0.27-3.78,0.96-5.72,1.25
		c-1.73,0.26-3.46,0.46-5.18,0.72c-7.55,1.15-15.05,1.49-22.67,1.24C106.53,28.04,106.64,27.87,106.7,27.85z"/>
	<path class="st2" d="M84.54,29.44c2.23-0.04,4.74-0.09,6.95,0.25c2.24,0.34,4.68-0.14,6.95-0.13c3.89,0.02,7.62-0.28,11.51,0.08
		c0.1,0.01-0.07,0.25-0.16,0.25c-4.01-0.01-7.95,0.62-11.95,0.64c-4.52,0.02-9.03-0.46-13.54-0.71
		C84.15,29.82,84.4,29.45,84.54,29.44z"/>
</g>
</svg>
